Fraternidad-Italic.ufo
<glyph name="exclam" format="2">
  <advance width="663"/>
  <unicode hex="0021"/>
  <outline>
    <component base="period" xOffset="86"/>
    <contour>
      <point x="221" y="392" type="line"/>
      <point x="362" y="1440.72" type="line"/>
      <point x="564" y="1440.72" type="line"/>
      <point x="362" y="392" type="line"/>
    </contour>
  </outline>
</glyph>
<glyph name="numbersign" format="2">
  <advance width="1792"/>
  <unicode hex="0023"/>
  <outline>
    <contour>
      <point x="392" y="1" type="line"/>
      <point x="572" y="423" type="line"/>
      <point x="185" y="423" type="line"/>
      <point x="255" y="587" type="line"/>
      <point x="643" y="587" type="line"/>
      <point x="769" y="885" type="line"/>
      <point x="383" y="885" type="line"/>
      <point x="453" y="1048" type="line"/>
      <point x="840" y="1048" type="line"/>
      <point x="1008" y="1440" type="line"/>
      <point x="1174" y="1440" type="line"/>
      <point x="1006" y="1048" type="line"/>
      <point x="1311" y="1048" type="line"/>
      <point x="1478" y="1440" type="line"/>
      <point x="1644" y="1440" type="line"/>
      <point x="1476" y="1048" type="line"/>
      <point x="1863" y="1048" type="line"/>
      <point x="1794" y="885" type="line"/>
      <point x="1407" y="885" type="line"/>
      <point x="1278" y="587" type="line"/>
      <point x="1665" y="587" type="line"/>
      <point x="1596" y="423" type="line"/>
      <point x="1209" y="423" type="line"/>
      <point x="1028" y="1" type="line"/>
      <point x="862" y="1" type="line"/>
      <point x="1041" y="423" type="line"/>
      <point x="738" y="423" type="line"/>
      <point x="557" y="1" type="line"/>
    </contour>
    <contour>
      <point x="809" y="587" type="line"/>
      <point x="1113" y="587" type="line"/>
      <point x="1239" y="885" type="line"/>
      <point x="936" y="885" type="line"/>
    </contour>
  </outline>
</glyph>
<glyph name="dollar" format="2">
  <advance width="1169"/>
  <unicode hex="0024"/>
  <outline>
    <contour>
      <point x="365" y="-198" type="line"/>
      <point x="402" y="33" type="line"/>
      <point x="581" y="33" type="line"/>
      <point x="544" y="-198" type="line"/>
    </contour>
    <contour>
      <point x="619" y="1407" type="line"/>
      <point x="656" y="1639" type="line"/>
      <point x="835" y="1639" type="line"/>
      <point x="798" y="1407" type="line"/>
    </contour>
    <contour>
      <point x="494" y="-30" type="qcurve" smooth="yes"/>
      <point x="398" y="-30"/>
      <point x="232" y="21"/>
      <point x="108" y="120"/>
      <point x="31" y="267"/>
      <point x="24" y="364" type="qcurve"/>
      <point x="22" y="373"/>
      <point x="21" y="391"/>
      <point x="21" y="401" type="qcurve"/>
      <point x="201" y="431" type="line"/>
      <point x="206" y="361"/>
      <point x="260" y="254"/>
      <point x="347" y="181"/>
      <point x="463" y="143"/>
      <point x="530" y="143" type="qcurve" smooth="yes"/>
      <point x="593" y="143"/>
      <point x="722" y="179"/>
      <point x="826" y="252"/>
      <point x="892" y="360"/>
      <point x="892" y="432" type="qcurve" smooth="yes"/>
      <point x="892" y="467"/>
      <point x="868" y="519"/>
      <point x="828" y="558"/>
      <point x="776" y="587"/>
      <point x="747" y="597" type="qcurve" smooth="yes"/>
      <point x="733" y="602"/>
      <point x="704" y="611"/>
      <point x="690" y="616" type="qcurve" smooth="yes"/>
      <point x="412" y="709" type="line" smooth="yes"/>
      <point x="360" y="727"/>
      <point x="272" y="777"/>
      <point x="208" y="848"/>
      <point x="172" y="939"/>
      <point x="172" y="997" type="qcurve" smooth="yes"/>
      <point x="172" y="1007"/>
      <point x="174" y="1026"/>
      <point x="176" y="1036" type="qcurve"/>
      <point x="185" y="1141"/>
      <point x="279" y="1302"/>
      <point x="426" y="1412"/>
      <point x="610" y="1469"/>
      <point x="709" y="1469" type="qcurve" smooth="yes"/>
      <point x="802" y="1469"/>
      <point x="958" y="1419"/>
      <point x="1075" y="1323"/>
      <point x="1147" y="1182"/>
      <point x="1156" y="1091" type="qcurve"/>
      <point x="1158" y="1080"/>
      <point x="1159" y="1059"/>
      <point x="1161" y="1048" type="qcurve"/>
      <point x="974" y="1014" type="line"/>
      <point x="973" y="1024"/>
      <point x="971" y="1041"/>
      <point x="969" y="1050" type="qcurve"/>
      <point x="963" y="1109"/>
      <point x="915" y="1200"/>
      <point x="839" y="1263"/>
      <point x="737" y="1296"/>
      <point x="677" y="1296" type="qcurve" smooth="yes"/>
      <point x="627" y="1296"/>
      <point x="520" y="1266"/>
      <point x="429" y="1209"/>
      <point x="366" y="1125"/>
      <point x="360" y="1071" type="qcurve"/>
      <point x="358" y="1064"/>
      <point x="357" y="1050"/>
      <point x="357" y="1043" type="qcurve" smooth="yes"/>
      <point x="357" y="1009"/>
      <point x="384" y="955"/>
      <point x="429" y="915"/>
      <point x="487" y="885"/>
      <point x="519" y="873" type="qcurve" smooth="yes"/>
      <point x="551" y="861"/>
      <point x="620" y="839"/>
      <point x="693" y="817"/>
      <point x="767" y="795"/>
      <point x="804" y="783" type="qcurve" smooth="yes"/>
      <point x="855" y="765"/>
      <point x="948" y="719"/>
      <point x="1019" y="655"/>
      <point x="1065" y="568"/>
      <point x="1069" y="510" type="qcurve"/>
      <point x="1071" y="495"/>
      <point x="1072" y="463"/>
      <point x="1071" y="446" type="qcurve" smooth="yes"/>
      <point x="1064" y="332"/>
      <point x="963" y="155"/>
      <point x="805" y="34"/>
      <point x="603" y="-30"/>
    </contour>
  </outline>
</glyph>
<glyph name="percent" format="2">
  <advance width="1741"/>
  <unicode hex="0025"/>
  <outline>
    <contour>
      <point x="180" y="0" type="line"/>
      <point x="79" y="123" type="line"/>
      <point x="1580" y="1440" type="line"/>
      <point x="1681" y="1317" type="line"/>
    </contour>
    <contour>
      <point x="1226" y="-30" type="curve" smooth="yes"/>
      <point x="1044" y="-30"/>
      <point x="903" y="113"/>
      <point x="903" y="295" type="curve" smooth="yes"/>
      <point x="903" y="500"/>
      <point x="1081" y="690"/>
      <point x="1290" y="690" type="curve" smooth="yes"/>
      <point x="1473" y="690"/>
      <point x="1612" y="547"/>
      <point x="1612" y="365" type="curve" smooth="yes"/>
      <point x="1612" y="154"/>
      <point x="1438" y="-30"/>
    </contour>
    <contour>
      <point x="1240" y="131" type="curve" smooth="yes"/>
      <point x="1356" y="131"/>
      <point x="1453" y="235"/>
      <point x="1453" y="349" type="curve" smooth="yes"/>
      <point x="1453" y="449"/>
      <point x="1375" y="529"/>
      <point x="1275" y="529" type="curve" smooth="yes"/>
      <point x="1162" y="529"/>
      <point x="1061" y="425"/>
      <point x="1061" y="313" type="curve" smooth="yes"/>
      <point x="1061" y="213"/>
      <point x="1140" y="131"/>
    </contour>
    <contour>
      <point x="470" y="750" type="curve" smooth="yes"/>
      <point x="288" y="750"/>
      <point x="147" y="892"/>
      <point x="147" y="1074" type="curve" smooth="yes"/>
      <point x="147" y="1281"/>
      <point x="324" y="1470"/>
      <point x="534" y="1470" type="curve" smooth="yes"/>
      <point x="716" y="1470"/>
      <point x="857" y="1327"/>
      <point x="857" y="1145" type="curve" smooth="yes"/>
      <point x="857" y="932"/>
      <point x="685" y="750"/>
    </contour>
    <contour>
      <point x="484" y="911" type="curve" smooth="yes"/>
      <point x="597" y="911"/>
      <point x="698" y="1015"/>
      <point x="698" y="1127" type="curve" smooth="yes"/>
      <point x="698" y="1227"/>
      <point x="620" y="1309"/>
      <point x="519" y="1309" type="curve" smooth="yes"/>
      <point x="404" y="1309"/>
      <point x="306" y="1205"/>
      <point x="306" y="1091" type="curve" smooth="yes"/>
      <point x="306" y="992"/>
      <point x="384" y="911"/>
    </contour>
  </outline>
</glyph>
<glyph name="ampersand" format="2">
  <advance width="1276"/>
  <unicode hex="0026"/>
  <outline>
    <contour>
      <point x="514" y="-30" type="qcurve" smooth="yes"/>
      <point x="417" y="-30"/>
      <point x="246" y="22"/>
      <point x="126" y="128"/>
      <point x="70" y="290"/>
      <point x="88" y="400" type="qcurve" smooth="yes"/>
      <point x="110" y="530"/>
      <point x="248" y="721"/>
      <point x="370" y="782" type="qcurve"/>
      <point x="344" y="816"/>
      <point x="303" y="881"/>
      <point x="277" y="953"/>
      <point x="270" y="1033"/>
      <point x="278" y="1081" type="qcurve" smooth="yes"/>
      <point x="294" y="1176"/>
      <point x="385" y="1321"/>
      <point x="516" y="1419"/>
      <point x="679" y="1468"/>
      <point x="766" y="1468" type="qcurve" smooth="yes"/>
      <point x="833" y="1468"/>
      <point x="953" y="1438"/>
      <point x="1049" y="1375"/>
      <point x="1114" y="1278"/>
      <point x="1125" y="1210" type="qcurve"/>
      <point x="953" y="1165" type="line"/>
      <point x="946" y="1204"/>
      <point x="906" y="1257"/>
      <point x="847" y="1290"/>
      <point x="777" y="1305"/>
      <point x="740" y="1305" type="qcurve" smooth="yes"/>
      <point x="688" y="1305"/>
      <point x="591" y="1278"/>
      <point x="514" y="1223"/>
      <point x="460" y="1139"/>
      <point x="450" y="1081" type="qcurve" smooth="yes"/>
      <point x="443" y="1035"/>
      <point x="462" y="960"/>
      <point x="501" y="896"/>
      <point x="554" y="839"/>
      <point x="579" y="809" type="qcurve"/>
      <point x="935" y="410" type="line"/>
      <point x="945" y="447"/>
      <point x="960" y="522"/>
      <point x="972" y="599"/>
      <point x="983" y="676"/>
      <point x="989" y="713" type="qcurve"/>
      <point x="1144" y="713" type="line"/>
      <point x="1105" y="482" type="line" smooth="yes"/>
      <point x="1097" y="430"/>
      <point x="1075" y="327"/>
      <point x="1053" y="276" type="qcurve"/>
      <point x="1205" y="107" type="line"/>
      <point x="1075" y="-13" type="line"/>
      <point x="948" y="132" type="line"/>
      <point x="903" y="84"/>
      <point x="799" y="22"/>
      <point x="687" y="-15"/>
      <point x="571" y="-30"/>
    </contour>
    <contour>
      <point x="545" y="135" type="qcurve" smooth="yes"/>
      <point x="587" y="135"/>
      <point x="667" y="145"/>
      <point x="743" y="171"/>
      <point x="813" y="216"/>
      <point x="846" y="251" type="qcurve"/>
      <point x="478" y="658" type="line"/>
      <point x="384" y="629"/>
      <point x="278" y="503"/>
      <point x="262" y="408" type="qcurve" smooth="yes"/>
      <point x="250" y="336"/>
      <point x="289" y="233"/>
      <point x="369" y="166"/>
      <point x="482" y="135"/>
    </contour>
  </outline>
</glyph>
<glyph name="parenleft" format="2">
  <advance width="823"/>
  <unicode hex="0028"/>
  <outline>
    <contour>
      <point x="491" y="-365" type="line"/>
      <point x="445" y="-297"/>
      <point x="372" y="-146"/>
      <point x="344" y="-62" type="qcurve" smooth="yes"/>
      <point x="289" y="107"/>
      <point x="262" y="474"/>
      <point x="295" y="660" type="qcurve"/>
      <point x="310" y="753"/>
      <point x="361" y="937"/>
      <point x="399" y="1030" type="qcurve" smooth="yes"/>
      <point x="474" y="1216"/>
      <point x="693" y="1549"/>
      <point x="831" y="1685" type="qcurve"/>
      <point x="940" y="1588" type="line"/>
      <point x="871" y="1517"/>
      <point x="752" y="1373"/>
      <point x="702" y="1297" type="qcurve" smooth="yes"/>
      <point x="602" y="1144"/>
      <point x="478" y="826"/>
      <point x="449" y="660" type="qcurve"/>
      <point x="436" y="577"/>
      <point x="428" y="416"/>
      <point x="433" y="336" type="qcurve" smooth="yes"/>
      <point x="443" y="174"/>
      <point x="541" y="-130"/>
      <point x="633" y="-267" type="qcurve"/>
    </contour>
  </outline>
</glyph>
<glyph name="parenright" format="2">
  <advance width="823"/>
  <unicode hex="0029"/>
  <outline>
    <contour>
      <point x="-35" y="-267" type="line"/>
      <point x="33" y="-198"/>
      <point x="150" y="-54"/>
      <point x="201" y="23" type="qcurve" smooth="yes"/>
      <point x="301" y="175"/>
      <point x="427" y="495"/>
      <point x="455" y="660" type="qcurve"/>
      <point x="468" y="743"/>
      <point x="477" y="905"/>
      <point x="473" y="985" type="qcurve" smooth="yes"/>
      <point x="463" y="1145"/>
      <point x="363" y="1448"/>
      <point x="272" y="1588" type="qcurve"/>
      <point x="412" y="1685" type="line"/>
      <point x="459" y="1617"/>
      <point x="532" y="1467"/>
      <point x="560" y="1382" type="qcurve" smooth="yes"/>
      <point x="616" y="1214"/>
      <point x="642" y="846"/>
      <point x="609" y="660" type="qcurve"/>
      <point x="594" y="567"/>
      <point x="543" y="383"/>
      <point x="506" y="290" type="qcurve" smooth="yes"/>
      <point x="430" y="105"/>
      <point x="211" y="-229"/>
      <point x="73" y="-365" type="qcurve"/>
    </contour>
  </outline>
</glyph>
<glyph name="asterisk" format="2">
  <advance width="864"/>
  <unicode hex="002A"/>
  <outline>
    <contour>
      <point x="301" y="759" type="line"/>
      <point x="185" y="857" type="line"/>
      <point x="369" y="1050" type="line"/>
      <point x="146" y="1120" type="line"/>
      <point x="222" y="1277" type="line"/>
      <point x="436" y="1190" type="line"/>
      <point x="468" y="1440" type="line"/>
      <point x="630" y="1440" type="line"/>
      <point x="580" y="1190" type="line"/>
      <point x="823" y="1277" type="line"/>
      <point x="847" y="1120" type="line"/>
      <point x="601" y="1050" type="line"/>
      <point x="720" y="857" type="line"/>
      <point x="571" y="759" type="line"/>
      <point x="470" y="965" type="line"/>
    </contour>
  </outline>
</glyph>
<glyph name="plus" format="2">
  <advance width="1102"/>
  <unicode hex="002B"/>
  <outline>
    <contour>
      <point x="414" y="265" type="line"/>
      <point x="475" y="645" type="line"/>
      <point x="102" y="645" type="line"/>
      <point x="126" y="796" type="line"/>
      <point x="499" y="796" type="line"/>
      <point x="558" y="1175" type="line"/>
      <point x="706" y="1175" type="line"/>
      <point x="645" y="796" type="line"/>
      <point x="1017" y="796" type="line"/>
      <point x="994" y="645" type="line"/>
      <point x="622" y="645" type="line"/>
      <point x="562" y="265" type="line"/>
    </contour>
  </outline>
</glyph>
<glyph name="comma" format="2">
  <advance width="519"/>
  <unicode hex="002C"/>
  <outline>
    <contour>
      <point x="107" y="228" type="line"/>
      <point x="282" y="228" type="line"/>
      <point x="54" y="-287" type="line"/>
      <point x="-64" y="-287" type="line"/>
    </contour>
  </outline>
</glyph>
<glyph name="hyphen" format="2">
  <advance width="806"/>
  <unicode hex="002D"/>
  <outline>
    <contour>
      <point x="193" y="469" type="line"/>
      <point x="217" y="611" type="line"/>
      <point x="805" y="611" type="line"/>
      <point x="781" y="469" type="line"/>
    </contour>
  </outline>
</glyph>
<glyph name="period" format="2">
  <advance width="503"/>
  <unicode hex="002E"/>
  <outline>
    <contour>
      <point x="144" y="-14" type="qcurve" smooth="yes"/>
      <point x="101" y="-14"/>
      <point x="44" y="39"/>
      <point x="44" y="83" type="qcurve" smooth="yes"/>
      <point x="44" y="111"/>
      <point x="66" y="161"/>
      <point x="103" y="199"/>
      <point x="153" y="221"/>
      <point x="181" y="221" type="qcurve" smooth="yes"/>
      <point x="225" y="221"/>
      <point x="280" y="169"/>
      <point x="280" y="124" type="qcurve" smooth="yes"/>
      <point x="280" y="96"/>
      <point x="259" y="46"/>
      <point x="222" y="8"/>
      <point x="172" y="-14"/>
    </contour>
  </outline>
</glyph>
<glyph name="zero" format="2">
  <advance width="1336"/>
  <unicode hex="0030"/>
  <outline>
    <contour>
      <point x="700.592" y="-33.184" type="curve" smooth="yes"/>
      <point x="362.896" y="-33.184"/>
      <point x="223.328" y="244.976"/>
      <point x="223.328" y="548.512" type="curve" smooth="yes"/>
      <point x="223.328" y="963.312"/>
      <point x="388.272" y="1461.07"/>
      <point x="874.32" y="1461.07" type="curve" smooth="yes"/>
      <point x="1216.9" y="1461.07"/>
      <point x="1348.66" y="1179.98"/>
      <point x="1348.66" y="876.448" type="curve" smooth="yes"/>
      <point x="1348.66" y="463.6"/>
      <point x="1185.66" y="-33.184"/>
    </contour>
    <contour>
      <point x="719.136" y="130.784" type="curve" smooth="yes"/>
      <point x="1071.47" y="130.784"/>
      <point x="1169.07" y="597.312"/>
      <point x="1169.07" y="872.544" type="curve" smooth="yes"/>
      <point x="1169.07" y="1077.5"/>
      <point x="1094.9" y="1297.1"/>
      <point x="853.824" y="1297.1" type="curve" smooth="yes"/>
      <point x="501.488" y="1297.1"/>
      <point x="403.888" y="829.6"/>
      <point x="403.888" y="555.344" type="curve" smooth="yes"/>
      <point x="403.888" y="352.336"/>
      <point x="480.992" y="130.784"/>
    </contour>
  </outline>
</glyph>
<glyph name="one" format="2">
  <advance width="775"/>
  <unicode hex="0031"/>
  <outline>
    <contour>
      <point x="281" y="0" type="line"/>
      <point x="486" y="1238" type="line"/>
      <point x="193" y="1074" type="line"/>
      <point x="227" y="1278" type="line"/>
      <point x="519" y="1440" type="line"/>
      <point x="701" y="1440" type="line"/>
      <point x="463" y="0" type="line"/>
    </contour>
  </outline>
</glyph>
<glyph name="two" format="2">
  <advance width="1138"/>
  <unicode hex="0032"/>
  <outline>
    <contour>
      <point x="147.272" y="164.944" type="line"/>
      <point x="828.52" y="732.976" type="line" smooth="yes"/>
      <point x="936.856" y="822.768"/>
      <point x="1053" y="925.248"/>
      <point x="1053" y="1082.38" type="curve" smooth="yes"/>
      <point x="1053" y="1235.62"/>
      <point x="904.648" y="1307.84"/>
      <point x="772.888" y="1307.84" type="curve" smooth="yes"/>
      <point x="607.944" y="1307.84"/>
      <point x="478.136" y="1212.19"/>
      <point x="430.312" y="1049.2" type="curve"/>
      <point x="258.536" y="1095.07" type="line"/>
      <point x="346.376" y="1345.9"/>
      <point x="535.72" y="1470.83"/>
      <point x="798.264" y="1470.83" type="curve" smooth="yes"/>
      <point x="1014.94" y="1470.83"/>
      <point x="1229.66" y="1341.02"/>
      <point x="1229.66" y="1098" type="curve" smooth="yes"/>
      <point x="1229.66" y="891.088"/>
      <point x="1102.78" y="743.712"/>
      <point x="956.376" y="621.712" type="curve" smooth="yes"/>
      <point x="405.912" y="164.944" type="line"/>
      <point x="1087.16" y="164.944" type="line"/>
      <point x="1061.78" y="0" type="line"/>
      <point x="121.896" y="0" type="line"/>
    </contour>
  </outline>
</glyph>
<glyph name="three" format="2">
  <advance width="1195"/>
  <unicode hex="0033"/>
  <outline>
    <contour>
      <point x="538" y="-30" type="curve" smooth="yes"/>
      <point x="263" y="-30"/>
      <point x="102" y="140"/>
      <point x="78" y="396" type="curve"/>
      <point x="251" y="425" type="line"/>
      <point x="273" y="226"/>
      <point x="375" y="132"/>
      <point x="579" y="132" type="curve" smooth="yes"/>
      <point x="770" y="132"/>
      <point x="931" y="270"/>
      <point x="931" y="475" type="curve" smooth="yes"/>
      <point x="931" y="645"/>
      <point x="804" y="704"/>
      <point x="651" y="704" type="curve" smooth="yes"/>
      <point x="511" y="704" type="line"/>
      <point x="533" y="849" type="line"/>
      <point x="971" y="1276" type="line"/>
      <point x="290" y="1276" type="line"/>
      <point x="315" y="1440" type="line"/>
      <point x="1204" y="1440" type="line"/>
      <point x="1179" y="1276" type="line"/>
      <point x="732" y="842" type="line"/>
      <point x="734" y="842" type="line" smooth="yes"/>
      <point x="938" y="842"/>
      <point x="1108" y="712"/>
      <point x="1108" y="497" type="curve" smooth="yes"/>
      <point x="1108" y="154"/>
      <point x="855" y="-30"/>
    </contour>
  </outline>
</glyph>
<glyph name="four" format="2">
  <advance width="1156"/>
  <unicode hex="0034"/>
  <outline>
    <contour>
      <point x="644" y="0" type="line"/>
      <point x="687" y="263" type="line"/>
      <point x="41" y="263" type="line"/>
      <point x="69" y="436" type="line"/>
      <point x="700" y="1440" type="line"/>
      <point x="904" y="1440" type="line"/>
      <point x="273" y="436" type="line"/>
      <point x="716" y="436" type="line"/>
      <point x="783" y="839" type="line"/>
      <point x="964" y="839" type="line"/>
      <point x="897" y="436" type="line"/>
      <point x="1043" y="436" type="line"/>
      <point x="1015" y="263" type="line"/>
      <point x="869" y="263" type="line"/>
      <point x="825" y="0" type="line"/>
    </contour>
  </outline>
</glyph>
<glyph name="five" format="2">
  <advance width="1195"/>
  <unicode hex="0035"/>
  <outline>
    <contour>
      <point x="608.656" y="-30.256" type="curve" smooth="yes"/>
      <point x="349.04" y="-30.256"/>
      <point x="182.144" y="154.208"/>
      <point x="152.864" y="396.256" type="curve"/>
      <point x="326.592" y="424.56" type="line"/>
      <point x="349.04" y="252.784"/>
      <point x="449.568" y="131.76"/>
      <point x="636.96" y="131.76" type="curve" smooth="yes"/>
      <point x="840.944" y="131.76"/>
      <point x="1001.01" y="231.312"/>
      <point x="1001.01" y="454.816" type="curve" smooth="yes"/>
      <point x="1001.01" y="626.592"/>
      <point x="881.936" y="701.744"/>
      <point x="720.896" y="701.744" type="curve" smooth="yes"/>
      <point x="292.432" y="701.744" type="line"/>
      <point x="450.544" y="1439.6" type="line"/>
      <point x="1237.2" y="1439.6" type="line"/>
      <point x="1212.8" y="1275.63" type="line"/>
      <point x="583.28" y="1275.63" type="line"/>
      <point x="495.44" y="865.712" type="line"/>
      <point x="750.176" y="865.712" type="line" smooth="yes"/>
      <point x="975.632" y="865.712"/>
      <point x="1177.66" y="720.288"/>
      <point x="1177.66" y="473.36" type="curve" smooth="yes"/>
      <point x="1177.66" y="118.096"/>
      <point x="929.76" y="-30.256"/>
    </contour>
  </outline>
</glyph>
<glyph name="six" format="2">
  <advance width="1072"/>
  <unicode hex="0036"/>
  <outline>
    <contour>
      <point x="438" y="-30" type="qcurve" smooth="yes"/>
      <point x="333" y="-30"/>
      <point x="170" y="49"/>
      <point x="64" y="186"/>
      <point x="22" y="371"/>
      <point x="39" y="476" type="qcurve" smooth="yes"/>
      <point x="48" y="530"/>
      <point x="85" y="638"/>
      <point x="136" y="743"/>
      <point x="199" y="842"/>
      <point x="236" y="887" type="qcurve" smooth="yes"/>
      <point x="682" y="1440" type="line"/>
      <point x="886" y="1440" type="line"/>
      <point x="270" y="688" type="line"/>
      <point x="226" y="732" type="line"/>
      <point x="264" y="777"/>
      <point x="355" y="849"/>
      <point x="457" y="900"/>
      <point x="564" y="927"/>
      <point x="618" y="927" type="qcurve" smooth="yes"/>
      <point x="717" y="927"/>
      <point x="873" y="854"/>
      <point x="975" y="726"/>
      <point x="1015" y="553"/>
      <point x="999" y="452" type="qcurve" smooth="yes"/>
      <point x="982" y="351"/>
      <point x="876" y="175"/>
      <point x="724" y="45"/>
      <point x="536" y="-30"/>
    </contour>
    <contour>
      <point x="467" y="147" type="qcurve" smooth="yes"/>
      <point x="530" y="147"/>
      <point x="647" y="195"/>
      <point x="741" y="277"/>
      <point x="807" y="388"/>
      <point x="817" y="452" type="qcurve" smooth="yes"/>
      <point x="828" y="516"/>
      <point x="801" y="628"/>
      <point x="733" y="711"/>
      <point x="632" y="759"/>
      <point x="569" y="759" type="qcurve" smooth="yes"/>
      <point x="506" y="759"/>
      <point x="389" y="711"/>
      <point x="294" y="628"/>
      <point x="228" y="516"/>
      <point x="218" y="452" type="qcurve" smooth="yes"/>
      <point x="207" y="388"/>
      <point x="236" y="277"/>
      <point x="304" y="195"/>
      <point x="405" y="147"/>
    </contour>
  </outline>
</glyph>
<glyph name="seven" format="2">
  <advance width="1025"/>
  <unicode hex="0037"/>
  <outline>
    <contour>
      <point x="135" y="0" type="line"/>
      <point x="901" y="1275" type="line"/>
      <point x="216" y="1275" type="line"/>
      <point x="242" y="1440" type="line"/>
      <point x="1108" y="1440" type="line"/>
      <point x="1084" y="1275" type="line"/>
      <point x="319" y="0" type="line"/>
    </contour>
  </outline>
</glyph>
<glyph name="eight" format="2">
  <advance width="1137"/>
  <unicode hex="0038"/>
  <outline>
    <contour>
      <point x="450" y="-23" type="curve" smooth="yes"/>
      <point x="221" y="-23"/>
      <point x="56" y="140"/>
      <point x="56" y="369" type="curve" smooth="yes"/>
      <point x="56" y="573"/>
      <point x="175" y="749"/>
      <point x="367" y="820" type="curve"/>
      <point x="354" y="755" type="line"/>
      <point x="253" y="819"/>
      <point x="203" y="919"/>
      <point x="203" y="1038" type="curve" smooth="yes"/>
      <point x="203" y="1319"/>
      <point x="443" y="1462"/>
      <point x="700" y="1462" type="curve" smooth="yes"/>
      <point x="908" y="1462"/>
      <point x="1068" y="1324"/>
      <point x="1068" y="1111" type="curve" smooth="yes"/>
      <point x="1068" y="933"/>
      <point x="970" y="785"/>
      <point x="804" y="719" type="curve"/>
      <point x="812" y="784" type="line"/>
      <point x="935" y="712"/>
      <point x="994" y="598"/>
      <point x="994" y="457" type="curve" smooth="yes"/>
      <point x="994" y="150"/>
      <point x="736" y="-23"/>
    </contour>
    <contour>
      <point x="479" y="149" type="curve" smooth="yes"/>
      <point x="668" y="149"/>
      <point x="804" y="256"/>
      <point x="804" y="453" type="curve" smooth="yes"/>
      <point x="804" y="593"/>
      <point x="707" y="681"/>
      <point x="569" y="681" type="curve" smooth="yes"/>
      <point x="380" y="681"/>
      <point x="247" y="572"/>
      <point x="247" y="376" type="curve" smooth="yes"/>
      <point x="247" y="238"/>
      <point x="343" y="149"/>
    </contour>
    <contour>
      <point x="598" y="854" type="curve" smooth="yes"/>
      <point x="754" y="854"/>
      <point x="876" y="932"/>
      <point x="876" y="1100" type="curve" smooth="yes"/>
      <point x="876" y="1220"/>
      <point x="786" y="1288"/>
      <point x="672" y="1288" type="curve" smooth="yes"/>
      <point x="515" y="1288"/>
      <point x="394" y="1211"/>
      <point x="394" y="1042" type="curve" smooth="yes"/>
      <point x="394" y="921"/>
      <point x="483" y="854"/>
    </contour>
  </outline>
</glyph>
<glyph name="nine" format="2">
  <advance width="1164"/>
  <unicode hex="0039"/>
  <outline>
    <contour>
      <point x="735.016" y="1468.88" type="curve" smooth="yes"/>
      <point x="1114.68" y="1468.88"/>
      <point x="1257.18" y="1252.21"/>
      <point x="1257.18" y="921.344" type="curve" smooth="yes"/>
      <point x="1257.18" y="468.48"/>
      <point x="1043.43" y="-30.256"/>
      <point x="519.32" y="-30.256" type="curve" smooth="yes"/>
      <point x="404.152" y="-30.256"/>
      <point x="280.2" y="-4.88"/>
      <point x="171.864" y="38.064" type="curve"/>
      <point x="216.76" y="194.224" type="line"/>
      <point x="305.576" y="153.232"/>
      <point x="395.368" y="128.832"/>
      <point x="491.992" y="128.832" type="curve" smooth="yes"/>
      <point x="850.184" y="128.832"/>
      <point x="1001.46" y="366.976"/>
      <point x="1064.9" y="675.392" type="curve"/>
      <point x="981.944" y="558.272"/>
      <point x="837.496" y="516.304"/>
      <point x="700.856" y="516.304" type="curve" smooth="yes"/>
      <point x="434.408" y="516.304"/>
      <point x="207.976" y="651.968"/>
      <point x="207.976" y="949.648" type="curve" smooth="yes"/>
      <point x="207.976" y="1275.63"/>
      <point x="428.552" y="1468.88"/>
    </contour>
    <contour>
      <point x="731.112" y="1304.91" type="curve" smooth="yes"/>
      <point x="532.984" y="1304.91"/>
      <point x="389.512" y="1182.91"/>
      <point x="389.512" y="971.12" type="curve" smooth="yes"/>
      <point x="389.512" y="765.184"/>
      <point x="559.336" y="683.2"/>
      <point x="735.992" y="683.2" type="curve" smooth="yes"/>
      <point x="935.096" y="683.2"/>
      <point x="1078.57" y="801.296"/>
      <point x="1078.57" y="1016.02" type="curve" smooth="yes"/>
      <point x="1078.57" y="1224.88"/>
      <point x="910.696" y="1304.91"/>
    </contour>
  </outline>
</glyph>
<glyph name="less" format="2">
  <advance width="1169"/>
  <unicode hex="003C"/>
  <outline>
    <contour>
      <point x="749" y="158" type="line"/>
      <point x="365" y="630" type="line"/>
      <point x="906" y="1102" type="line"/>
      <point x="994" y="995" type="line"/>
      <point x="571" y="630" type="line"/>
      <point x="874" y="265" type="line"/>
    </contour>
  </outline>
</glyph>
<glyph name="equal" format="2">
  <advance width="1436"/>
  <unicode hex="003D"/>
  <outline>
    <contour>
      <point x="260" y="822" type="line"/>
      <point x="285" y="973" type="line"/>
      <point x="1285" y="973" type="line"/>
      <point x="1260" y="822" type="line"/>
    </contour>
    <contour>
      <point x="202" y="467" type="line"/>
      <point x="227" y="618" type="line"/>
      <point x="1226" y="618" type="line"/>
      <point x="1201" y="467" type="line"/>
    </contour>
  </outline>
</glyph>
<glyph name="greater" format="2">
  <advance width="1169"/>
  <unicode hex="003E"/>
  <outline>
    <contour>
      <point x="321" y="265" type="line"/>
      <point x="745" y="630" type="line"/>
      <point x="442" y="995" type="line"/>
      <point x="566" y="1102" type="line"/>
      <point x="950" y="630" type="line"/>
      <point x="410" y="158" type="line"/>
    </contour>
  </outline>
</glyph>
<glyph name="question" format="2">
  <advance width="1182"/>
  <unicode hex="003F"/>
  <outline>
    <contour>
      <point x="567" y="-13" type="curve" smooth="yes"/>
      <point x="628" y="-13"/>
      <point x="682" y="34"/>
      <point x="693" y="97" type="curve" smooth="yes"/>
      <point x="703" y="160"/>
      <point x="665" y="207"/>
      <point x="603" y="207" type="curve" smooth="yes"/>
      <point x="542" y="207"/>
      <point x="487" y="159"/>
      <point x="477" y="97" type="curve" smooth="yes"/>
      <point x="466" y="35"/>
      <point x="507" y="-13"/>
    </contour>
    <contour>
      <point x="543" y="378" type="line"/>
      <point x="571" y="543" type="line" smooth="yes"/>
      <point x="588" y="645"/>
      <point x="627" y="711"/>
      <point x="696" y="743" type="curve" smooth="yes"/>
      <point x="944" y="858" type="line" smooth="yes"/>
      <point x="1042" y="904"/>
      <point x="1078" y="971"/>
      <point x="1078" y="1071" type="curve" smooth="yes"/>
      <point x="1078" y="1268"/>
      <point x="939" y="1314"/>
      <point x="777" y="1314" type="curve" smooth="yes"/>
      <point x="555" y="1314"/>
      <point x="430" y="1227"/>
      <point x="349" y="1031" type="curve"/>
      <point x="187" y="1069" type="line"/>
      <point x="288" y="1332"/>
      <point x="486" y="1470"/>
      <point x="787" y="1470" type="curve" smooth="yes"/>
      <point x="1047" y="1470"/>
      <point x="1245" y="1367"/>
      <point x="1245" y="1094" type="curve" smooth="yes"/>
      <point x="1245" y="922"/>
      <point x="1167" y="786"/>
      <point x="1004" y="713" type="curve" smooth="yes"/>
      <point x="792" y="618" type="line" smooth="yes"/>
      <point x="743" y="596"/>
      <point x="728" y="567"/>
      <point x="719" y="511" type="curve" smooth="yes"/>
      <point x="697" y="378" type="line"/>
    </contour>
  </outline>
</glyph>
<glyph name="at" format="2">
  <advance width="1753"/>
  <unicode hex="0040"/>
  <outline>
    <contour>
      <point x="775" y="-210" type="curve" smooth="yes"/>
      <point x="418" y="-210"/>
      <point x="152" y="22"/>
      <point x="152" y="387" type="curve" smooth="yes"/>
      <point x="152" y="876"/>
      <point x="530" y="1290"/>
      <point x="1025" y="1290" type="curve" smooth="yes"/>
      <point x="1378" y="1290"/>
      <point x="1649" y="1100"/>
      <point x="1649" y="726" type="curve" smooth="yes"/>
      <point x="1649" y="486"/>
      <point x="1545" y="179"/>
      <point x="1261" y="179" type="curve" smooth="yes"/>
      <point x="1156" y="179"/>
      <point x="1056" y="226"/>
      <point x="1040" y="339" type="curve"/>
      <point x="1090" y="334" type="line"/>
      <point x="1031" y="243"/>
      <point x="927" y="198"/>
      <point x="820" y="198" type="curve" smooth="yes"/>
      <point x="663" y="198"/>
      <point x="555" y="296"/>
      <point x="555" y="456" type="curve" smooth="yes"/>
      <point x="555" y="670"/>
      <point x="712" y="851"/>
      <point x="931" y="851" type="curve" smooth="yes"/>
      <point x="1014" y="851"/>
      <point x="1113" y="819"/>
      <point x="1151" y="741" type="curve"/>
      <point x="1104" y="694" type="line"/>
      <point x="1125" y="823" type="line"/>
      <point x="1240" y="823" type="line"/>
      <point x="1220" y="705"/>
      <point x="1178" y="555"/>
      <point x="1178" y="438" type="curve" smooth="yes"/>
      <point x="1178" y="363"/>
      <point x="1216" y="322"/>
      <point x="1290" y="322" type="curve" smooth="yes"/>
      <point x="1461" y="322"/>
      <point x="1498" y="583"/>
      <point x="1498" y="711" type="curve" smooth="yes"/>
      <point x="1498" y="1003"/>
      <point x="1284" y="1147"/>
      <point x="1010" y="1147" type="curve" smooth="yes"/>
      <point x="604" y="1147"/>
      <point x="305" y="819"/>
      <point x="305" y="419" type="curve" smooth="yes"/>
      <point x="305" y="120"/>
      <point x="514" y="-67"/>
      <point x="806" y="-67" type="curve" smooth="yes"/>
      <point x="911" y="-67"/>
      <point x="1020" y="-41"/>
      <point x="1113" y="6" type="curve"/>
      <point x="1141" y="-123" type="line"/>
      <point x="1028" y="-179"/>
      <point x="902" y="-210"/>
    </contour>
    <contour>
      <point x="854" y="343" type="curve" smooth="yes"/>
      <point x="990" y="343"/>
      <point x="1058" y="448"/>
      <point x="1058" y="575" type="curve" smooth="yes"/>
      <point x="1058" y="664"/>
      <point x="1004" y="709"/>
      <point x="918" y="709" type="curve" smooth="yes"/>
      <point x="781" y="709"/>
      <point x="704" y="613"/>
      <point x="704" y="480" type="curve" smooth="yes"/>
      <point x="704" y="388"/>
      <point x="765" y="343"/>
    </contour>
  </outline>
</glyph>
<glyph name="A" format="2">
  <advance width="1256"/>
  <unicode hex="0041"/>
  <outline>
    <contour>
      <point x="-33" y="0" type="line"/>
      <point x="681" y="1440" type="line"/>
      <point x="914" y="1440" type="line"/>
      <point x="1151" y="0" type="line"/>
      <point x="975" y="0" type="line"/>
      <point x="751" y="1340" type="line"/>
      <point x="807" y="1340" type="line"/>
      <point x="143" y="0" type="line"/>
    </contour>
    <contour>
      <point x="249" y="339" type="line"/>
      <point x="276" y="501" type="line"/>
      <point x="1008" y="501" type="line"/>
      <point x="982" y="339" type="line"/>
    </contour>
  </outline>
</glyph>
<glyph name="B" format="2">
  <advance width="1195"/>
  <unicode hex="0042"/>
  <outline>
    <contour>
      <point x="17" y="0" type="line"/>
      <point x="245" y="1440" type="line"/>
      <point x="796" y="1440" type="line" smooth="yes"/>
      <point x="870" y="1440"/>
      <point x="997" y="1399"/>
      <point x="1090" y="1318"/>
      <point x="1143" y="1199"/>
      <point x="1143" y="1122" type="qcurve" smooth="yes"/>
      <point x="1143" y="1058"/>
      <point x="1104" y="935"/>
      <point x="1033" y="832"/>
      <point x="932" y="754"/>
      <point x="870" y="735" type="qcurve"/>
      <point x="876" y="784" type="line"/>
      <point x="930" y="769"/>
      <point x="1017" y="713"/>
      <point x="1077" y="636"/>
      <point x="1109" y="539"/>
      <point x="1109" y="482" type="qcurve" smooth="yes"/>
      <point x="1109" y="474"/>
      <point x="1108" y="457"/>
      <point x="1106" y="449" type="qcurve"/>
      <point x="1098" y="347"/>
      <point x="1020" y="182"/>
      <point x="892" y="64"/>
      <point x="720" y="0"/>
      <point x="618" y="0" type="qcurve" smooth="yes"/>
    </contour>
    <contour>
      <point x="226" y="174" type="line"/>
      <point x="584" y="174" type="line" smooth="yes"/>
      <point x="602" y="174"/>
      <point x="638" y="176"/>
      <point x="655" y="178" type="qcurve"/>
      <point x="711" y="183"/>
      <point x="809" y="228"/>
      <point x="881" y="302"/>
      <point x="923" y="401"/>
      <point x="923" y="461" type="qcurve" smooth="yes"/>
      <point x="923" y="508"/>
      <point x="891" y="585"/>
      <point x="834" y="639"/>
      <point x="755" y="669"/>
      <point x="709" y="669" type="qcurve" smooth="yes"/>
      <point x="305" y="669" type="line"/>
    </contour>
    <contour>
      <point x="332" y="841" type="line"/>
      <point x="699" y="841" type="line" smooth="yes"/>
      <point x="753" y="841"/>
      <point x="847" y="881"/>
      <point x="917" y="951"/>
      <point x="957" y="1044"/>
      <point x="957" y="1098" type="qcurve" smooth="yes"/>
      <point x="957" y="1140"/>
      <point x="927" y="1204"/>
      <point x="875" y="1246"/>
      <point x="806" y="1268"/>
      <point x="767" y="1268" type="qcurve" smooth="yes"/>
      <point x="400" y="1268" type="line"/>
    </contour>
  </outline>
</glyph>
<glyph name="C" format="2">
  <advance width="1405"/>
  <unicode hex="0043"/>
  <outline>
    <contour>
      <point x="655" y="-30" type="curve" smooth="yes"/>
      <point x="278" y="-30"/>
      <point x="72" y="215"/>
      <point x="58" y="579" type="curve" smooth="yes"/>
      <point x="41" y="1040"/>
      <point x="285" y="1470"/>
      <point x="788" y="1470" type="curve" smooth="yes"/>
      <point x="1090" y="1470"/>
      <point x="1313" y="1307"/>
      <point x="1368" y="1002" type="curve"/>
      <point x="1182" y="952" type="line"/>
      <point x="1148" y="1175"/>
      <point x="992" y="1296"/>
      <point x="772" y="1296" type="curve" smooth="yes"/>
      <point x="387" y="1296"/>
      <point x="236" y="937"/>
      <point x="247" y="600" type="curve" smooth="yes"/>
      <point x="255" y="334"/>
      <point x="387" y="144"/>
      <point x="671" y="144" type="curve" smooth="yes"/>
      <point x="900" y="144"/>
      <point x="1068" y="275"/>
      <point x="1141" y="488" type="curve"/>
      <point x="1319" y="438" type="line"/>
      <point x="1211" y="147"/>
      <point x="973" y="-30"/>
    </contour>
  </outline>
</glyph>
<glyph name="D" format="2">
  <advance width="1314"/>
  <unicode hex="0044"/>
  <outline>
    <contour>
      <point x="17" y="0" type="line"/>
      <point x="245" y="1440" type="line"/>
      <point x="632" y="1440" type="line" smooth="yes"/>
      <point x="691" y="1440"/>
      <point x="750" y="1439"/>
      <point x="808" y="1431" type="curve" smooth="yes"/>
      <point x="1125" y="1386"/>
      <point x="1248" y="1112"/>
      <point x="1248" y="819" type="curve" smooth="yes"/>
      <point x="1248" y="462"/>
      <point x="1076" y="63"/>
      <point x="683" y="9" type="curve" smooth="yes"/>
      <point x="624" y="1"/>
      <point x="564" y="0"/>
      <point x="504" y="0" type="curve" smooth="yes"/>
    </contour>
    <contour>
      <point x="229" y="174" type="line"/>
      <point x="519" y="174" type="line" smooth="yes"/>
      <point x="574" y="174"/>
      <point x="629" y="175"/>
      <point x="684" y="185" type="curve" smooth="yes"/>
      <point x="966" y="238"/>
      <point x="1057" y="559"/>
      <point x="1057" y="808" type="curve" smooth="yes"/>
      <point x="1057" y="1006"/>
      <point x="998" y="1211"/>
      <point x="778" y="1255" type="curve" smooth="yes"/>
      <point x="725" y="1265"/>
      <point x="670" y="1266"/>
      <point x="617" y="1266" type="curve" smooth="yes"/>
      <point x="402" y="1266" type="line"/>
    </contour>
  </outline>
</glyph>
<glyph name="E" format="2">
  <advance width="1104"/>
  <unicode hex="0045"/>
  <outline>
    <contour>
      <point x="17" y="0" type="line"/>
      <point x="245" y="1440" type="line"/>
      <point x="1139" y="1440" type="line"/>
      <point x="1111" y="1267" type="line"/>
      <point x="397" y="1267" type="line"/>
      <point x="327" y="823" type="line"/>
      <point x="924" y="823" type="line"/>
      <point x="896" y="650" type="line"/>
      <point x="300" y="650" type="line"/>
      <point x="224" y="173" type="line"/>
      <point x="939" y="173" type="line"/>
      <point x="911" y="0" type="line"/>
    </contour>
  </outline>
</glyph>
<glyph name="F" format="2">
  <advance width="984"/>
  <unicode hex="0046"/>
  <outline>
    <contour>
      <point x="58" y="0" type="line"/>
      <point x="297" y="1440" type="line"/>
      <point x="1117" y="1440" type="line"/>
      <point x="1089" y="1268" type="line"/>
      <point x="436" y="1268" type="line"/>
      <point x="360" y="806" type="line"/>
      <point x="895" y="806" type="line"/>
      <point x="866" y="634" type="line"/>
      <point x="332" y="634" type="line"/>
      <point x="227" y="0" type="line"/>
    </contour>
  </outline>
</glyph>
<glyph name="G" format="2">
  <advance width="1394"/>
  <unicode hex="0047"/>
  <outline>
    <contour>
      <point x="1189" y="0" type="line"/>
      <point x="1328" y="0" type="line"/>
      <point x="1454" y="760" type="line"/>
      <point x="1300" y="760" type="line"/>
      <point x="1228" y="320" type="line"/>
    </contour>
    <contour>
      <point x="955" y="1469" type="curve" smooth="yes"/>
      <point x="756" y="1469"/>
      <point x="582" y="1397"/>
      <point x="447" y="1266" type="curve" smooth="yes"/>
      <point x="312" y="1136"/>
      <point x="218" y="949"/>
      <point x="180" y="720" type="curve" smooth="yes"/>
      <point x="137" y="459"/>
      <point x="180" y="256"/>
      <point x="294" y="127" type="curve" smooth="yes"/>
      <point x="385" y="25"/>
      <point x="521" y="-30"/>
      <point x="695" y="-30" type="curve" smooth="yes"/>
      <point x="814" y="-30"/>
      <point x="943" y="1"/>
      <point x="1050" y="64" type="curve" smooth="yes"/>
      <point x="1120" y="105"/>
      <point x="1180" y="160"/>
      <point x="1222" y="228" type="curve"/>
      <point x="1447" y="760" type="line"/>
      <point x="886" y="760" type="line"/>
      <point x="859" y="597" type="line"/>
      <point x="1270" y="597" type="line"/>
      <point x="1237" y="425"/>
      <point x="1150" y="288"/>
      <point x="1019" y="209" type="curve" smooth="yes"/>
      <point x="939" y="161"/>
      <point x="844" y="134"/>
      <point x="735" y="134" type="curve" smooth="yes"/>
      <point x="591" y="134"/>
      <point x="490" y="182"/>
      <point x="428" y="263" type="curve" smooth="yes"/>
      <point x="346" y="367"/>
      <point x="327" y="527"/>
      <point x="357" y="714" type="curve" smooth="yes"/>
      <point x="388" y="897"/>
      <point x="454" y="1050"/>
      <point x="559" y="1155" type="curve" smooth="yes"/>
      <point x="654" y="1252"/>
      <point x="777" y="1305"/>
      <point x="932" y="1305" type="curve" smooth="yes"/>
      <point x="1027" y="1305"/>
      <point x="1108" y="1281"/>
      <point x="1170" y="1234" type="curve" smooth="yes"/>
      <point x="1234" y="1186"/>
      <point x="1276" y="1114"/>
      <point x="1289" y="1017" type="curve"/>
      <point x="1465" y="1054" type="line"/>
      <point x="1445" y="1191"/>
      <point x="1389" y="1293"/>
      <point x="1306" y="1361" type="curve" smooth="yes"/>
      <point x="1218" y="1433"/>
      <point x="1101" y="1469"/>
    </contour>
  </outline>
</glyph>
<glyph name="H" format="2">
  <advance width="1342"/>
  <unicode hex="0048"/>
  <outline>
    <contour>
      <point x="133" y="0" type="line"/>
      <point x="372" y="1440" type="line"/>
      <point x="540" y="1440" type="line"/>
      <point x="434" y="802" type="line"/>
      <point x="1184" y="802" type="line"/>
      <point x="1290" y="1440" type="line"/>
      <point x="1459" y="1440" type="line"/>
      <point x="1221" y="0" type="line"/>
      <point x="1052" y="0" type="line"/>
      <point x="1158" y="639" type="line"/>
      <point x="407" y="639" type="line"/>
      <point x="302" y="0" type="line"/>
    </contour>
  </outline>
</glyph>
<glyph name="I" format="2">
  <advance width="460"/>
  <unicode hex="0049"/>
  <outline>
    <contour>
      <point x="35" y="0" type="line"/>
      <point x="263" y="1440" type="line"/>
      <point x="442" y="1440" type="line"/>
      <point x="214" y="0" type="line"/>
    </contour>
  </outline>
</glyph>
<glyph name="J" format="2">
  <advance width="917"/>
  <unicode hex="004A"/>
  <outline>
    <contour>
      <point x="390" y="-29" type="curve" smooth="yes"/>
      <point x="201" y="-29"/>
      <point x="71" y="81"/>
      <point x="51" y="271" type="curve"/>
      <point x="225" y="312" type="line"/>
      <point x="229" y="209"/>
      <point x="312" y="134"/>
      <point x="414" y="134" type="curve" smooth="yes"/>
      <point x="521" y="134"/>
      <point x="601" y="195"/>
      <point x="641" y="284" type="curve" smooth="yes"/>
      <point x="663" y="335"/>
      <point x="672" y="394"/>
      <point x="681" y="450" type="curve" smooth="yes"/>
      <point x="845" y="1440" type="line"/>
      <point x="1015" y="1440" type="line"/>
      <point x="851" y="450" type="line" smooth="yes"/>
      <point x="839" y="382"/>
      <point x="831" y="312"/>
      <point x="807" y="247" type="curve" smooth="yes"/>
      <point x="742" y="76"/>
      <point x="569" y="-29"/>
    </contour>
  </outline>
</glyph>
<glyph name="K" format="2">
  <advance width="1181"/>
  <unicode hex="004B"/>
  <outline>
    <contour>
      <point x="1088" y="1440" type="line"/>
      <point x="1301" y="1440" type="line"/>
      <point x="210" y="427" type="line"/>
      <point x="250" y="666" type="line"/>
    </contour>
    <contour>
      <point x="898" y="0" type="line"/>
      <point x="439" y="742" type="line"/>
      <point x="606" y="814" type="line"/>
      <point x="1113" y="0" type="line"/>
    </contour>
    <contour>
      <point x="58" y="0" type="line"/>
      <point x="297" y="1440" type="line"/>
      <point x="461" y="1440" type="line"/>
      <point x="222" y="0" type="line"/>
    </contour>
  </outline>
</glyph>
<glyph name="L" format="2">
  <advance width="998"/>
  <unicode hex="004C"/>
  <outline>
    <contour>
      <point x="152" y="0" type="line"/>
      <point x="390" y="1440" type="line"/>
      <point x="558" y="1440" type="line"/>
      <point x="347" y="163" type="line"/>
      <point x="1005" y="163" type="line"/>
      <point x="978" y="0" type="line"/>
    </contour>
  </outline>
</glyph>
<glyph name="M" format="2">
  <advance width="1583"/>
  <unicode hex="004D"/>
  <outline>
    <contour>
      <point x="133" y="0" type="line"/>
      <point x="372" y="1440" type="line"/>
      <point x="539" y="1440" type="line"/>
      <point x="859" y="366" type="line"/>
      <point x="1531" y="1440" type="line"/>
      <point x="1700" y="1440" type="line"/>
      <point x="1462" y="1" type="line"/>
      <point x="1293" y="1" type="line"/>
      <point x="1471" y="1080" type="line"/>
      <point x="902" y="168" type="line"/>
      <point x="749" y="168" type="line"/>
      <point x="482" y="1080" type="line"/>
      <point x="303" y="0" type="line"/>
    </contour>
  </outline>
</glyph>
<glyph name="N" format="2">
  <advance width="1346"/>
  <unicode hex="004E"/>
  <outline>
    <contour>
      <point x="33" y="0" type="line"/>
      <point x="272" y="1440" type="line"/>
      <point x="453" y="1440" type="line"/>
      <point x="998" y="323" type="line"/>
      <point x="1183" y="1440" type="line"/>
      <point x="1364" y="1440" type="line"/>
      <point x="1125" y="0" type="line"/>
      <point x="945" y="0" type="line"/>
      <point x="400" y="1117" type="line"/>
      <point x="215" y="0" type="line"/>
    </contour>
  </outline>
</glyph>
<glyph name="O" format="2">
  <advance width="1425"/>
  <unicode hex="004F"/>
  <outline>
    <contour>
      <point x="655" y="-30" type="curve" smooth="yes"/>
      <point x="278" y="-30"/>
      <point x="72" y="215"/>
      <point x="58" y="579" type="curve" smooth="yes"/>
      <point x="41" y="1040"/>
      <point x="285" y="1470"/>
      <point x="788" y="1470" type="curve" smooth="yes"/>
      <point x="1166" y="1470"/>
      <point x="1371" y="1224"/>
      <point x="1384" y="859" type="curve"/>
      <point x="1402" y="400"/>
      <point x="1156" y="-30"/>
    </contour>
    <contour>
      <point x="675" y="144" type="curve" smooth="yes"/>
      <point x="1056" y="144"/>
      <point x="1205" y="503"/>
      <point x="1194" y="836" type="curve"/>
      <point x="1186" y="1106"/>
      <point x="1055" y="1296"/>
      <point x="768" y="1296" type="curve" smooth="yes"/>
      <point x="385" y="1296"/>
      <point x="237" y="933"/>
      <point x="248" y="600" type="curve" smooth="yes"/>
      <point x="257" y="332"/>
      <point x="391" y="144"/>
    </contour>
  </outline>
</glyph>
<glyph name="P" format="2">
  <advance width="1187"/>
  <unicode hex="0050"/>
  <outline>
    <contour>
      <point x="58" y="0" type="line"/>
      <point x="297" y="1440" type="line"/>
      <point x="852" y="1440" type="line" smooth="yes"/>
      <point x="873" y="1440"/>
      <point x="927" y="1437"/>
      <point x="954" y="1432" type="qcurve" smooth="yes"/>
      <point x="1009" y="1423"/>
      <point x="1098" y="1383"/>
      <point x="1132" y="1352" type="qcurve" smooth="yes"/>
      <point x="1200" y="1290"/>
      <point x="1247" y="1102"/>
      <point x="1228" y="987" type="qcurve" smooth="yes"/>
      <point x="1218" y="930"/>
      <point x="1181" y="827"/>
      <point x="1154" y="780" type="qcurve" smooth="yes"/>
      <point x="1098" y="684"/>
      <point x="923" y="561"/>
      <point x="807" y="543" type="qcurve" smooth="yes"/>
      <point x="793" y="541"/>
      <point x="765" y="538"/>
      <point x="751" y="537" type="qcurve" smooth="yes"/>
      <point x="736" y="536"/>
      <point x="712" y="535"/>
      <point x="702" y="535" type="qcurve" smooth="yes"/>
      <point x="315" y="535" type="line"/>
      <point x="227" y="0" type="line"/>
    </contour>
    <contour>
      <point x="342" y="698" type="line"/>
      <point x="723" y="698" type="line" smooth="yes"/>
      <point x="742" y="698"/>
      <point x="790" y="702"/>
      <point x="813" y="707" type="qcurve" smooth="yes"/>
      <point x="849" y="715"/>
      <point x="909" y="744"/>
      <point x="935" y="766" type="qcurve" smooth="yes"/>
      <point x="986" y="810"/>
      <point x="1045" y="926"/>
      <point x="1055" y="987" type="qcurve" smooth="yes"/>
      <point x="1060" y="1019"/>
      <point x="1060" y="1078"/>
      <point x="1055" y="1108" type="qcurve" smooth="yes"/>
      <point x="1045" y="1167"/>
      <point x="973" y="1252"/>
      <point x="906" y="1268" type="qcurve" smooth="yes"/>
      <point x="884" y="1273"/>
      <point x="838" y="1277"/>
      <point x="819" y="1277" type="qcurve" smooth="yes"/>
      <point x="438" y="1277" type="line"/>
    </contour>
  </outline>
</glyph>
<glyph name="Q" format="2">
  <advance width="1489"/>
  <unicode hex="0051"/>
  <outline>
    <component base="O"/>
    <contour>
      <point x="1217" y="173" type="curve" smooth="yes"/>
      <point x="1409" y="173" type="line"/>
      <point x="1381" y="0" type="line"/>
      <point x="1043" y="0" type="line" smooth="yes"/>
      <point x="900" y="0"/>
      <point x="758" y="-30"/>
      <point x="615" y="-30" type="curve"/>
      <point x="763" y="110"/>
      <point x="1018" y="173"/>
    </contour>
  </outline>
</glyph>
<glyph name="R" format="2">
  <advance width="1236"/>
  <unicode hex="0052"/>
  <outline>
    <contour>
      <point x="851" y="0" type="line"/>
      <point x="632" y="632" type="line"/>
      <point x="826" y="660" type="line"/>
      <point x="1056" y="0" type="line"/>
    </contour>
    <contour>
      <point x="18" y="0" type="line"/>
      <point x="246" y="1440" type="line"/>
      <point x="806" y="1440" type="line" smooth="yes"/>
      <point x="1029" y="1440"/>
      <point x="1199" y="1335"/>
      <point x="1199" y="1094" type="curve" smooth="yes"/>
      <point x="1199" y="991"/>
      <point x="1170" y="899"/>
      <point x="1117" y="815" type="curve" smooth="yes"/>
      <point x="1028" y="673"/>
      <point x="887" y="594"/>
      <point x="722" y="583" type="curve"/>
      <point x="692" y="580"/>
      <point x="660" y="579"/>
      <point x="628" y="579" type="curve" smooth="yes"/>
      <point x="289" y="579" type="line"/>
      <point x="197" y="0" type="line"/>
    </contour>
    <contour>
      <point x="317" y="753" type="line"/>
      <point x="691" y="753" type="line" smooth="yes"/>
      <point x="713" y="753"/>
      <point x="735" y="754"/>
      <point x="757" y="757" type="curve" smooth="yes"/>
      <point x="775" y="759"/>
      <point x="793" y="763"/>
      <point x="810" y="770" type="curve" smooth="yes"/>
      <point x="925" y="816"/>
      <point x="1012" y="923"/>
      <point x="1012" y="1053" type="curve" smooth="yes"/>
      <point x="1012" y="1206"/>
      <point x="915" y="1267"/>
      <point x="772" y="1267" type="curve" smooth="yes"/>
      <point x="398" y="1267" type="line"/>
    </contour>
  </outline>
</glyph>
<glyph name="S" format="2">
  <advance width="1225"/>
  <unicode hex="0053"/>
  <outline>
    <contour>
      <point x="575" y="-30" type="curve" smooth="yes"/>
      <point x="304" y="-30"/>
      <point x="69" y="111"/>
      <point x="43" y="401" type="curve"/>
      <point x="231" y="431" type="line"/>
      <point x="260" y="243"/>
      <point x="419" y="143"/>
      <point x="599" y="143" type="curve" smooth="yes"/>
      <point x="767" y="143"/>
      <point x="967" y="230"/>
      <point x="958" y="424" type="curve" smooth="yes"/>
      <point x="954" y="529"/>
      <point x="869" y="571"/>
      <point x="782" y="600" type="curve" smooth="yes"/>
      <point x="667" y="641"/>
      <point x="547" y="671"/>
      <point x="431" y="709" type="curve" smooth="yes"/>
      <point x="279" y="760"/>
      <point x="160" y="835"/>
      <point x="155" y="1010" type="curve" smooth="yes"/>
      <point x="146" y="1315"/>
      <point x="408" y="1469"/>
      <point x="684" y="1469" type="curve" smooth="yes"/>
      <point x="953" y="1469"/>
      <point x="1159" y="1326"/>
      <point x="1192" y="1048" type="curve"/>
      <point x="998" y="1014" type="line"/>
      <point x="980" y="1197"/>
      <point x="840" y="1296"/>
      <point x="664" y="1296" type="curve" smooth="yes"/>
      <point x="519" y="1296"/>
      <point x="337" y="1213"/>
      <point x="345" y="1045" type="curve" smooth="yes"/>
      <point x="349" y="941"/>
      <point x="456" y="897"/>
      <point x="563" y="864" type="curve" smooth="yes"/>
      <point x="651" y="837"/>
      <point x="749" y="813"/>
      <point x="843" y="781" type="curve" smooth="yes"/>
      <point x="1001" y="728"/>
      <point x="1139" y="651"/>
      <point x="1145" y="463" type="curve" smooth="yes"/>
      <point x="1155" y="136"/>
      <point x="873" y="-30"/>
    </contour>
  </outline>
</glyph>
<glyph name="T" format="2">
  <advance width="1171"/>
  <unicode hex="0054"/>
  <outline>
    <contour>
      <point x="508" y="0" type="line"/>
      <point x="719" y="1277" type="line"/>
      <point x="236" y="1277" type="line"/>
      <point x="263" y="1440" type="line"/>
      <point x="1398" y="1440" type="line"/>
      <point x="1371" y="1277" type="line"/>
      <point x="887" y="1277" type="line"/>
      <point x="676" y="0" type="line"/>
    </contour>
  </outline>
</glyph>
<glyph name="U" format="2">
  <advance width="1361"/>
  <unicode hex="0055"/>
  <outline>
    <contour>
      <point x="576" y="-30" type="curve" smooth="yes"/>
      <point x="304" y="-30"/>
      <point x="91" y="120"/>
      <point x="91" y="409" type="curve" smooth="yes"/>
      <point x="91" y="448"/>
      <point x="95" y="487"/>
      <point x="101" y="526" type="curve" smooth="yes"/>
      <point x="245" y="1439" type="line"/>
      <point x="427" y="1440" type="line"/>
      <point x="285" y="540" type="line" smooth="yes"/>
      <point x="279" y="503"/>
      <point x="275" y="467"/>
      <point x="275" y="429" type="curve" smooth="yes"/>
      <point x="275" y="413"/>
      <point x="276" y="396"/>
      <point x="280" y="381" type="curve"/>
      <point x="299" y="228"/>
      <point x="446" y="143"/>
      <point x="591" y="143" type="curve" smooth="yes"/>
      <point x="737" y="143"/>
      <point x="876" y="230"/>
      <point x="959" y="348" type="curve" smooth="yes"/>
      <point x="993" y="395"/>
      <point x="1016" y="447"/>
      <point x="1028" y="502" type="curve"/>
      <point x="1032" y="514"/>
      <point x="1035" y="527"/>
      <point x="1037" y="540" type="curve" smooth="yes"/>
      <point x="1179" y="1440" type="line"/>
      <point x="1361" y="1440" type="line"/>
      <point x="1312" y="1135"/>
      <point x="1273" y="829"/>
      <point x="1216" y="526" type="curve" smooth="yes"/>
      <point x="1154" y="200"/>
      <point x="917" y="-30"/>
    </contour>
  </outline>
</glyph>
<glyph name="V" format="2">
  <advance width="1208"/>
  <unicode hex="0056"/>
  <outline>
    <contour>
      <point x="374" y="0" type="line"/>
      <point x="132" y="1440" type="line"/>
      <point x="318" y="1440" type="line"/>
      <point x="528" y="192" type="line"/>
      <point x="1137" y="1440" type="line"/>
      <point x="1323" y="1440" type="line"/>
      <point x="625" y="0" type="line"/>
    </contour>
  </outline>
</glyph>
<glyph name="W" format="2">
  <advance width="1858"/>
  <unicode hex="0057"/>
  <outline>
    <contour>
      <point x="329" y="0" type="line"/>
      <point x="148" y="1440" type="line"/>
      <point x="336" y="1440" type="line"/>
      <point x="468" y="309" type="line"/>
      <point x="957" y="1439" type="line"/>
      <point x="1145" y="1440" type="line"/>
      <point x="1277" y="309" type="line"/>
      <point x="1766" y="1440" type="line"/>
      <point x="1955" y="1440" type="line"/>
      <point x="1318" y="0" type="line"/>
      <point x="1139" y="0" type="line"/>
      <point x="1001" y="1121" type="line"/>
      <point x="508" y="0" type="line"/>
    </contour>
  </outline>
</glyph>
<glyph name="X" format="2">
  <advance width="1221"/>
  <unicode hex="0058"/>
  <outline>
    <contour>
      <point x="-88" y="0" type="line"/>
      <point x="512" y="729" type="line"/>
      <point x="152" y="1440" type="line"/>
      <point x="371" y="1440" type="line"/>
      <point x="646" y="883" type="line"/>
      <point x="1095" y="1440" type="line"/>
      <point x="1314" y="1440" type="line"/>
      <point x="729" y="729" type="line"/>
      <point x="1098" y="0" type="line"/>
      <point x="879" y="0" type="line"/>
      <point x="596" y="574" type="line"/>
      <point x="132" y="0" type="line"/>
    </contour>
  </outline>
</glyph>
<glyph name="Y" format="2">
  <advance width="1131"/>
  <unicode hex="0059"/>
  <outline>
    <contour>
      <point x="381" y="0" type="line"/>
      <point x="480" y="598" type="line"/>
      <point x="144" y="1440" type="line"/>
      <point x="353" y="1440" type="line"/>
      <point x="606" y="808" type="line"/>
      <point x="1068" y="1440" type="line"/>
      <point x="1276" y="1440" type="line"/>
      <point x="662" y="598" type="line"/>
      <point x="563" y="0" type="line"/>
    </contour>
  </outline>
</glyph>
<glyph name="Z" format="2">
  <advance width="1226"/>
  <unicode hex="005A"/>
  <outline>
    <contour>
      <point x="-3" y="0" type="line"/>
      <point x="2" y="32" type="line"/>
      <point x="949" y="1267" type="line"/>
      <point x="238" y="1267" type="line"/>
      <point x="267" y="1440" type="line"/>
      <point x="1280" y="1440" type="line"/>
      <point x="1274" y="1406" type="line"/>
      <point x="332" y="173" type="line"/>
      <point x="1061" y="173" type="line"/>
      <point x="1032" y="0" type="line"/>
    </contour>
  </outline>
</glyph>
<glyph name="bracketleft" format="2">
  <advance width="780"/>
  <unicode hex="005B"/>
  <outline>
    <contour>
      <point x="89" y="-431" type="line"/>
      <point x="456" y="1783" type="line"/>
      <point x="846" y="1783" type="line"/>
      <point x="819" y="1617" type="line"/>
      <point x="591" y="1617" type="line"/>
      <point x="280" y="-265" type="line"/>
      <point x="507" y="-265" type="line"/>
      <point x="479" y="-431" type="line"/>
    </contour>
  </outline>
</glyph>
<glyph name="backslash" format="2">
  <advance width="766"/>
  <unicode hex="005C"/>
  <outline>
    <contour>
      <point x="525" y="1440" type="line"/>
      <point x="663" y="0" type="line"/>
      <point x="492" y="0" type="line"/>
      <point x="354" y="1440" type="line"/>
    </contour>
  </outline>
</glyph>
<glyph name="bracketright" format="2">
  <advance width="775"/>
  <unicode hex="005D"/>
  <outline>
    <contour>
      <point x="381" y="-433" type="line"/>
      <point x="747" y="1781" type="line"/>
      <point x="364" y="1781" type="line"/>
      <point x="338" y="1624" type="line"/>
      <point x="567" y="1624" type="line"/>
      <point x="253" y="-276" type="line"/>
      <point x="23" y="-276" type="line"/>
      <point x="-2" y="-433" type="line"/>
    </contour>
  </outline>
</glyph>
<glyph name="asciicircum" format="2">
  <advance width="1289"/>
  <unicode hex="005E"/>
  <outline>
    <contour>
      <point x="288" y="999" type="line"/>
      <point x="828" y="1471" type="line"/>
      <point x="1214" y="1000" type="line"/>
      <point x="1092" y="892" type="line"/>
      <point x="793" y="1261" type="line"/>
      <point x="376" y="891" type="line"/>
    </contour>
  </outline>
</glyph>
<glyph name="grave" format="2">
  <advance width="920"/>
  <unicode hex="0060"/>
  <outline>
    <contour>
      <point x="675" y="1937" type="line"/>
      <point x="498" y="1937" type="line"/>
      <point x="575" y="1604" type="line"/>
      <point x="694" y="1604" type="line"/>
    </contour>
  </outline>
</glyph>
<glyph name="a" format="2">
  <advance width="1141"/>
  <unicode hex="0061"/>
  <outline>
    <contour>
      <point x="438" y="-30" type="curve" smooth="yes"/>
      <point x="175" y="-30"/>
      <point x="57" y="169"/>
      <point x="57" y="411" type="curve" smooth="yes"/>
      <point x="57" y="734"/>
      <point x="264" y="1110"/>
      <point x="625" y="1110" type="curve" smooth="yes"/>
      <point x="881" y="1110"/>
      <point x="993" y="927"/>
      <point x="993" y="690" type="curve" smooth="yes"/>
      <point x="993" y="366"/>
      <point x="810" y="-30"/>
    </contour>
    <contour>
      <point x="487" y="137" type="curve" smooth="yes"/>
      <point x="759" y="137"/>
      <point x="864" y="435"/>
      <point x="864" y="663" type="curve" smooth="yes"/>
      <point x="864" y="821"/>
      <point x="798" y="943"/>
      <point x="625" y="943" type="curve" smooth="yes"/>
      <point x="360" y="943"/>
      <point x="244" y="660"/>
      <point x="244" y="433" type="curve" smooth="yes"/>
      <point x="244" y="271"/>
      <point x="305" y="137"/>
    </contour>
    <contour>
      <point x="764" y="0" type="line"/>
      <point x="895" y="792" type="line"/>
      <point x="876" y="792" type="line"/>
      <point x="921" y="1080" type="line"/>
      <point x="1098" y="1080" type="line"/>
      <point x="920" y="0" type="line"/>
    </contour>
  </outline>
</glyph>
<glyph name="b" format="2">
  <advance width="1171"/>
  <unicode hex="0062"/>
  <outline>
    <contour>
      <point x="133" y="0" type="line"/>
      <point x="294" y="0" type="line"/>
      <point x="322" y="170" type="line"/>
      <point x="331" y="145"/>
      <point x="344" y="121"/>
      <point x="358" y="101" type="curve"/>
      <point x="411" y="18"/>
      <point x="502" y="-30"/>
      <point x="634" y="-30" type="curve" smooth="yes"/>
      <point x="919" y="-30"/>
      <point x="1139" y="205"/>
      <point x="1194" y="539" type="curve" smooth="yes"/>
      <point x="1250" y="878"/>
      <point x="1105" y="1110"/>
      <point x="823" y="1110" type="curve" smooth="yes"/>
      <point x="690" y="1110"/>
      <point x="584" y="1062"/>
      <point x="502" y="979" type="curve" smooth="yes"/>
      <point x="481" y="958"/>
      <point x="462" y="935"/>
      <point x="444" y="909" type="curve"/>
      <point x="533" y="1440" type="line"/>
      <point x="371" y="1440" type="line"/>
    </contour>
    <contour>
      <point x="770" y="947" type="curve" smooth="yes"/>
      <point x="984" y="947"/>
      <point x="1062" y="781"/>
      <point x="1022" y="539" type="curve" smooth="yes"/>
      <point x="981" y="293"/>
      <point x="847" y="133"/>
      <point x="635" y="133" type="curve" smooth="yes"/>
      <point x="417" y="133"/>
      <point x="344" y="300"/>
      <point x="383" y="540" type="curve" smooth="yes"/>
      <point x="421" y="771"/>
      <point x="549" y="947"/>
    </contour>
  </outline>
</glyph>
<glyph name="c" format="2">
  <advance width="1056"/>
  <unicode hex="0063"/>
  <outline>
    <contour>
      <point x="489" y="-30" type="curve" smooth="yes"/>
      <point x="190" y="-30"/>
      <point x="47" y="188"/>
      <point x="47" y="466" type="curve" smooth="yes"/>
      <point x="47" y="794"/>
      <point x="232" y="1110"/>
      <point x="592" y="1110" type="curve" smooth="yes"/>
      <point x="796" y="1110"/>
      <point x="963" y="1001"/>
      <point x="1001" y="794" type="curve"/>
      <point x="824" y="740" type="line"/>
      <point x="793" y="861"/>
      <point x="700" y="937"/>
      <point x="573" y="937" type="curve" smooth="yes"/>
      <point x="322" y="937"/>
      <point x="231" y="692"/>
      <point x="231" y="479" type="curve" smooth="yes"/>
      <point x="231" y="299"/>
      <point x="301" y="143"/>
      <point x="503" y="143" type="curve" smooth="yes"/>
      <point x="635" y="143"/>
      <point x="733" y="212"/>
      <point x="785" y="331" type="curve"/>
      <point x="956" y="283" type="line"/>
      <point x="870" y="85"/>
      <point x="708" y="-30"/>
    </contour>
  </outline>
</glyph>
<glyph name="d" format="2">
  <advance width="1124"/>
  <unicode hex="0064"/>
  <outline>
    <contour>
      <point x="458" y="-30" type="curve" smooth="yes"/>
      <point x="174" y="-30"/>
      <point x="47" y="207"/>
      <point x="47" y="464" type="curve" smooth="yes"/>
      <point x="47" y="768"/>
      <point x="214" y="1110"/>
      <point x="559" y="1110" type="curve" smooth="yes"/>
      <point x="843" y="1110"/>
      <point x="956" y="880"/>
      <point x="956" y="626" type="curve" smooth="yes"/>
      <point x="956" y="325"/>
      <point x="808" y="-30"/>
    </contour>
    <contour>
      <point x="495" y="137" type="curve" smooth="yes"/>
      <point x="752" y="137"/>
      <point x="831" y="400"/>
      <point x="831" y="612" type="curve" smooth="yes"/>
      <point x="831" y="784"/>
      <point x="770" y="943"/>
      <point x="571" y="943" type="curve" smooth="yes"/>
      <point x="321" y="943"/>
      <point x="231" y="690"/>
      <point x="231" y="478" type="curve" smooth="yes"/>
      <point x="231" y="306"/>
      <point x="297" y="137"/>
    </contour>
    <contour>
      <point x="742" y="0" type="line"/>
      <point x="867" y="792" type="line"/>
      <point x="848" y="792" type="line"/>
      <point x="951" y="1440" type="line"/>
      <point x="1123" y="1440" type="line"/>
      <point x="895" y="0" type="line"/>
    </contour>
  </outline>
</glyph>
<glyph name="e" format="2">
  <advance width="1122"/>
  <unicode hex="0065"/>
  <outline>
    <contour>
      <point x="578" y="-30" type="qcurve" smooth="yes"/>
      <point x="501" y="-30"/>
      <point x="375" y="5"/>
      <point x="324" y="40" type="qcurve" smooth="yes"/>
      <point x="273" y="75"/>
      <point x="201" y="174"/>
      <point x="181" y="237" type="qcurve" smooth="yes"/>
      <point x="160" y="301"/>
      <point x="153" y="449"/>
      <point x="167" y="533" type="qcurve" smooth="yes"/>
      <point x="182" y="622"/>
      <point x="238" y="775"/>
      <point x="280" y="840" type="qcurve" smooth="yes"/>
      <point x="363" y="970"/>
      <point x="608" y="1110"/>
      <point x="759" y="1110" type="qcurve" smooth="yes"/>
      <point x="837" y="1110"/>
      <point x="963" y="1073"/>
      <point x="1012" y="1035" type="qcurve" smooth="yes"/>
      <point x="1110" y="960"/>
      <point x="1174" y="684"/>
      <point x="1134" y="492" type="qcurve"/>
      <point x="968" y="492" type="line"/>
      <point x="979" y="553" type="line"/>
      <point x="994" y="654"/>
      <point x="980" y="804"/>
      <point x="950" y="855" type="qcurve" smooth="yes"/>
      <point x="920" y="906"/>
      <point x="815" y="955"/>
      <point x="739" y="955" type="qcurve" smooth="yes"/>
      <point x="658" y="955"/>
      <point x="528" y="902"/>
      <point x="478" y="848" type="qcurve" smooth="yes"/>
      <point x="426" y="794"/>
      <point x="359" y="641"/>
      <point x="343" y="540" type="qcurve" smooth="yes"/>
      <point x="326" y="443"/>
      <point x="343" y="294"/>
      <point x="377" y="240" type="qcurve" smooth="yes"/>
      <point x="410" y="187"/>
      <point x="519" y="133"/>
      <point x="598" y="133" type="qcurve" smooth="yes"/>
      <point x="704" y="133"/>
      <point x="873" y="233"/>
      <point x="933" y="327" type="qcurve"/>
      <point x="1080" y="269" type="line"/>
      <point x="1038" y="197"/>
      <point x="930" y="88"/>
      <point x="863" y="48" type="qcurve" smooth="yes"/>
      <point x="795" y="8"/>
      <point x="653" y="-30"/>
    </contour>
    <contour>
      <point x="279" y="492" type="line"/>
      <point x="302" y="631" type="line"/>
      <point x="1072" y="631" type="line"/>
      <point x="1049" y="492" type="line"/>
    </contour>
  </outline>
</glyph>
<glyph name="f" format="2">
  <advance width="692"/>
  <unicode hex="0066"/>
  <outline>
    <contour>
      <point x="135" y="0" type="line"/>
      <point x="323" y="1136" type="line" smooth="yes"/>
      <point x="338" y="1226"/>
      <point x="393" y="1352"/>
      <point x="481" y="1433"/>
      <point x="606" y="1470"/>
      <point x="693" y="1470" type="qcurve" smooth="yes"/>
      <point x="823" y="1470" type="line"/>
      <point x="798" y="1318" type="line"/>
      <point x="695" y="1318" type="line" smooth="yes"/>
      <point x="660" y="1318"/>
      <point x="599" y="1307"/>
      <point x="547" y="1274"/>
      <point x="510" y="1215"/>
      <point x="502" y="1166" type="qcurve" smooth="yes"/>
      <point x="309" y="0" type="line"/>
    </contour>
    <contour>
      <point x="115" y="930" type="line"/>
      <point x="139" y="1080" type="line"/>
      <point x="759" y="1080" type="line"/>
      <point x="734" y="930" type="line"/>
    </contour>
  </outline>
</glyph>
<glyph name="g" format="2">
  <advance width="1172"/>
  <unicode hex="0067"/>
  <outline>
    <contour>
      <point x="1130" y="1080" type="line"/>
      <point x="968" y="1080" type="line"/>
      <point x="941" y="914" type="line"/>
      <point x="897" y="1032"/>
      <point x="801" y="1110"/>
      <point x="628" y="1110" type="curve" smooth="yes"/>
      <point x="324" y="1110"/>
      <point x="121" y="859"/>
      <point x="71" y="559" type="curve" smooth="yes"/>
      <point x="21" y="259"/>
      <point x="144" y="10"/>
      <point x="446" y="10" type="curve" smooth="yes"/>
      <point x="618" y="10"/>
      <point x="740" y="88"/>
      <point x="823" y="206" type="curve"/>
      <point x="799" y="60" type="line" smooth="yes"/>
      <point x="763" y="-159"/>
      <point x="640" y="-347"/>
      <point x="409" y="-347" type="curve" smooth="yes"/>
      <point x="279" y="-347"/>
      <point x="186" y="-284"/>
      <point x="159" y="-156" type="curve"/>
      <point x="-12" y="-202" type="line"/>
      <point x="28" y="-405"/>
      <point x="177" y="-510"/>
      <point x="382" y="-510" type="curve" smooth="yes"/>
      <point x="705" y="-510"/>
      <point x="908" y="-263"/>
      <point x="961" y="58" type="curve" smooth="yes"/>
    </contour>
    <contour>
      <point x="499" y="173" type="curve" smooth="yes"/>
      <point x="279" y="173"/>
      <point x="207" y="345"/>
      <point x="242" y="559" type="curve" smooth="yes"/>
      <point x="277" y="771"/>
      <point x="409" y="947"/>
      <point x="627" y="947" type="curve" smooth="yes"/>
      <point x="846" y="947"/>
      <point x="917" y="771"/>
      <point x="882" y="559" type="curve" smooth="yes"/>
      <point x="847" y="346"/>
      <point x="718" y="173"/>
    </contour>
  </outline>
</glyph>
<glyph name="h" format="2">
  <advance width="1146"/>
  <unicode hex="0068"/>
  <outline>
    <contour>
      <point x="768" y="0" type="line"/>
      <point x="857" y="539" type="line" smooth="yes"/>
      <point x="864" y="582"/>
      <point x="869" y="625"/>
      <point x="869" y="668" type="curve" smooth="yes"/>
      <point x="869" y="821"/>
      <point x="812" y="935"/>
      <point x="644" y="935" type="curve" smooth="yes"/>
      <point x="432" y="935"/>
      <point x="333" y="753"/>
      <point x="302" y="568" type="curve"/>
      <point x="196" y="606" type="line"/>
      <point x="242" y="883"/>
      <point x="417" y="1108"/>
      <point x="717" y="1108" type="curve" smooth="yes"/>
      <point x="947" y="1108"/>
      <point x="1054" y="958"/>
      <point x="1054" y="739" type="curve" smooth="yes"/>
      <point x="1054" y="692"/>
      <point x="1051" y="643"/>
      <point x="1043" y="597" type="curve" smooth="yes"/>
      <point x="944" y="0" type="line"/>
    </contour>
    <contour>
      <point x="32" y="0" type="line"/>
      <point x="271" y="1440" type="line"/>
      <point x="427" y="1440" type="line"/>
      <point x="296" y="648" type="line"/>
      <point x="316" y="648" type="line"/>
      <point x="208" y="0" type="line"/>
    </contour>
  </outline>
</glyph>
<glyph name="j" format="2">
  <advance width="501"/>
  <unicode hex="006A"/>
  <outline>
    <contour>
      <point x="-192" y="-480" type="line"/>
      <point x="-163" y="-306" type="line"/>
      <point x="-108" y="-306" type="line" smooth="yes"/>
      <point x="-70" y="-306"/>
      <point x="-9" y="-287"/>
      <point x="13" y="-267" type="qcurve" smooth="yes"/>
      <point x="35" y="-247"/>
      <point x="66" y="-186"/>
      <point x="73" y="-143" type="qcurve" smooth="yes"/>
      <point x="276" y="1080" type="line"/>
      <point x="448" y="1080" type="line"/>
      <point x="235" y="-207" type="line" smooth="yes"/>
      <point x="224" y="-274"/>
      <point x="175" y="-376"/>
      <point x="136" y="-411" type="qcurve" smooth="yes"/>
      <point x="97" y="-446"/>
      <point x="-5" y="-480"/>
      <point x="-69" y="-480" type="qcurve" smooth="yes"/>
    </contour>
    <contour>
      <point x="389" y="1244" type="qcurve" smooth="yes"/>
      <point x="365" y="1244"/>
      <point x="328" y="1261"/>
      <point x="315" y="1278" type="qcurve" smooth="yes"/>
      <point x="302" y="1295"/>
      <point x="292" y="1337"/>
      <point x="296" y="1362" type="qcurve" smooth="yes"/>
      <point x="300" y="1387"/>
      <point x="324" y="1429"/>
      <point x="343" y="1446" type="qcurve" smooth="yes"/>
      <point x="362" y="1463"/>
      <point x="405" y="1480"/>
      <point x="428" y="1480" type="qcurve" smooth="yes"/>
      <point x="453" y="1480"/>
      <point x="490" y="1463"/>
      <point x="503" y="1446" type="qcurve" smooth="yes"/>
      <point x="516" y="1429"/>
      <point x="526" y="1387"/>
      <point x="522" y="1362" type="qcurve" smooth="yes"/>
      <point x="518" y="1337"/>
      <point x="495" y="1295"/>
      <point x="476" y="1278" type="qcurve" smooth="yes"/>
      <point x="457" y="1261"/>
      <point x="414" y="1244"/>
    </contour>
  </outline>
</glyph>
<glyph name="k" format="2">
  <advance width="961"/>
  <unicode hex="006B"/>
  <outline>
    <contour>
      <point x="16" y="0" type="line"/>
      <point x="245" y="1440" type="line"/>
      <point x="409" y="1440" type="line"/>
      <point x="181" y="0" type="line"/>
    </contour>
    <contour>
      <point x="796" y="1080" type="line"/>
      <point x="1007" y="1080" type="line"/>
      <point x="148" y="318" type="line"/>
      <point x="184" y="546" type="line"/>
    </contour>
    <contour>
      <point x="312" y="591" type="line"/>
      <point x="448" y="697" type="line"/>
      <point x="862" y="0" type="line"/>
      <point x="664" y="0" type="line"/>
    </contour>
  </outline>
</glyph>
<glyph name="l" format="2">
  <advance width="546"/>
  <unicode hex="006C"/>
  <outline>
    <contour>
      <point x="462" y="157" type="qcurve"/>
      <point x="436" y="0" type="line"/>
      <point x="355" y="0" type="line" smooth="yes"/>
      <point x="298" y="0"/>
      <point x="208" y="31"/>
      <point x="178" y="60" type="qcurve" smooth="yes"/>
      <point x="147" y="89"/>
      <point x="117" y="176"/>
      <point x="120" y="231" type="qcurve" smooth="yes"/>
      <point x="121" y="253"/>
      <point x="126" y="298"/>
      <point x="130" y="323" type="qcurve" smooth="yes"/>
      <point x="315" y="1440" type="line"/>
      <point x="478" y="1440" type="line"/>
      <point x="316" y="461" type="line" smooth="yes"/>
      <point x="311" y="427"/>
      <point x="299" y="360"/>
      <point x="293" y="327" type="qcurve"/>
      <point x="288" y="289"/>
      <point x="288" y="230"/>
      <point x="298" y="209" type="qcurve" smooth="yes"/>
      <point x="308" y="188"/>
      <point x="349" y="164"/>
      <point x="383" y="161" type="qcurve"/>
      <point x="400" y="158"/>
      <point x="440" y="157"/>
    </contour>
  </outline>
</glyph>
<glyph name="m" format="2">
  <advance width="1647"/>
  <unicode hex="006D"/>
  <outline>
    <contour>
      <point x="1269" y="0" type="line"/>
      <point x="1384" y="688" type="line" smooth="yes"/>
      <point x="1388" y="709"/>
      <point x="1390" y="731"/>
      <point x="1390" y="753" type="curve" smooth="yes"/>
      <point x="1390" y="867"/>
      <point x="1324" y="945"/>
      <point x="1207" y="945" type="curve" smooth="yes"/>
      <point x="1057" y="945"/>
      <point x="961" y="822"/>
      <point x="939" y="684" type="curve"/>
      <point x="855" y="724" type="line"/>
      <point x="888" y="939"/>
      <point x="1057" y="1108"/>
      <point x="1280" y="1108" type="curve" smooth="yes"/>
      <point x="1463" y="1108"/>
      <point x="1573" y="1004"/>
      <point x="1573" y="819" type="curve" smooth="yes"/>
      <point x="1573" y="789"/>
      <point x="1570" y="759"/>
      <point x="1565" y="729" type="curve" smooth="yes"/>
      <point x="1443" y="0" type="line"/>
    </contour>
    <contour>
      <point x="32" y="0" type="line"/>
      <point x="211" y="1080" type="line"/>
      <point x="366" y="1080" type="line"/>
      <point x="318" y="787" type="line"/>
      <point x="338" y="787" type="line"/>
      <point x="207" y="0" type="line"/>
    </contour>
    <contour>
      <point x="652" y="0" type="line"/>
      <point x="766" y="682" type="line" smooth="yes"/>
      <point x="770" y="704"/>
      <point x="772" y="727"/>
      <point x="772" y="749" type="curve" smooth="yes"/>
      <point x="772" y="867"/>
      <point x="707" y="945"/>
      <point x="586" y="945" type="curve" smooth="yes"/>
      <point x="437" y="945"/>
      <point x="342" y="822"/>
      <point x="321" y="684" type="curve"/>
      <point x="240" y="742" type="line"/>
      <point x="275" y="950"/>
      <point x="453" y="1108"/>
      <point x="666" y="1108" type="curve" smooth="yes"/>
      <point x="849" y="1108"/>
      <point x="954" y="999"/>
      <point x="954" y="817" type="curve" smooth="yes"/>
      <point x="954" y="786"/>
      <point x="951" y="756"/>
      <point x="946" y="726" type="curve" smooth="yes"/>
      <point x="825" y="0" type="line"/>
    </contour>
  </outline>
</glyph>
<glyph name="n" format="2">
  <advance width="1146"/>
  <unicode hex="006E"/>
  <outline>
    <contour>
      <point x="768" y="0" type="line"/>
      <point x="857" y="539" type="line" smooth="yes"/>
      <point x="864" y="582"/>
      <point x="869" y="625"/>
      <point x="869" y="668" type="curve" smooth="yes"/>
      <point x="869" y="821"/>
      <point x="812" y="935"/>
      <point x="644" y="935" type="curve" smooth="yes"/>
      <point x="432" y="935"/>
      <point x="333" y="753"/>
      <point x="302" y="568" type="curve"/>
      <point x="196" y="606" type="line"/>
      <point x="242" y="883"/>
      <point x="417" y="1108"/>
      <point x="717" y="1108" type="curve" smooth="yes"/>
      <point x="947" y="1108"/>
      <point x="1054" y="958"/>
      <point x="1054" y="739" type="curve" smooth="yes"/>
      <point x="1054" y="692"/>
      <point x="1051" y="643"/>
      <point x="1043" y="597" type="curve" smooth="yes"/>
      <point x="944" y="0" type="line"/>
    </contour>
    <contour>
      <point x="32" y="0" type="line"/>
      <point x="211" y="1080" type="line"/>
      <point x="367" y="1080" type="line"/>
      <point x="319" y="787" type="line"/>
      <point x="339" y="787" type="line"/>
      <point x="208" y="0" type="line"/>
    </contour>
  </outline>
</glyph>
<glyph name="o" format="2">
  <advance width="1138"/>
  <unicode hex="006F"/>
  <outline>
    <contour>
      <point x="569" y="-30" type="curve" smooth="yes"/>
      <point x="303" y="-30"/>
      <point x="156" y="146"/>
      <point x="156" y="404" type="curve" smooth="yes"/>
      <point x="156" y="756"/>
      <point x="376" y="1110"/>
      <point x="758" y="1110" type="curve" smooth="yes"/>
      <point x="1026" y="1110"/>
      <point x="1172" y="937"/>
      <point x="1172" y="676" type="curve" smooth="yes"/>
      <point x="1172" y="325"/>
      <point x="952" y="-30"/>
    </contour>
    <contour>
      <point x="596" y="133" type="curve" smooth="yes"/>
      <point x="875" y="133"/>
      <point x="998" y="412"/>
      <point x="998" y="655" type="curve" smooth="yes"/>
      <point x="998" y="833"/>
      <point x="917" y="947"/>
      <point x="731" y="947" type="curve" smooth="yes"/>
      <point x="452" y="947"/>
      <point x="332" y="670"/>
      <point x="332" y="428" type="curve" smooth="yes"/>
      <point x="332" y="253"/>
      <point x="412" y="133"/>
    </contour>
  </outline>
</glyph>
<glyph name="p" format="2">
  <advance width="1172"/>
  <unicode hex="0070"/>
  <outline>
    <contour>
      <point x="141" y="-480" type="line"/>
      <point x="248" y="171" type="line"/>
      <point x="257" y="143"/>
      <point x="270" y="119"/>
      <point x="286" y="97" type="curve"/>
      <point x="339" y="17"/>
      <point x="429" y="-30"/>
      <point x="560" y="-30" type="curve" smooth="yes"/>
      <point x="842" y="-30"/>
      <point x="1064" y="202"/>
      <point x="1120" y="541" type="curve" smooth="yes"/>
      <point x="1175" y="875"/>
      <point x="1034" y="1110"/>
      <point x="749" y="1110" type="curve" smooth="yes"/>
      <point x="617" y="1110"/>
      <point x="511" y="1063"/>
      <point x="429" y="980" type="curve" smooth="yes"/>
      <point x="408" y="959"/>
      <point x="388" y="935"/>
      <point x="371" y="910" type="curve"/>
      <point x="399" y="1080" type="line"/>
      <point x="237" y="1080" type="line"/>
      <point x="-21" y="-480" type="line"/>
    </contour>
    <contour>
      <point x="561" y="133" type="curve" smooth="yes"/>
      <point x="350" y="133"/>
      <point x="269" y="295"/>
      <point x="310" y="542" type="curve" smooth="yes"/>
      <point x="347" y="768"/>
      <point x="470" y="947"/>
      <point x="696" y="947" type="curve" smooth="yes"/>
      <point x="908" y="947"/>
      <point x="990" y="787"/>
      <point x="949" y="541" type="curve" smooth="yes"/>
      <point x="909" y="299"/>
      <point x="775" y="133"/>
    </contour>
  </outline>
</glyph>
<glyph name="q" format="2">
  <advance width="1172"/>
  <unicode hex="0071"/>
  <outline>
    <contour>
      <point x="1230" y="1080" type="line"/>
      <point x="1068" y="1080" type="line"/>
      <point x="1040" y="910" type="line"/>
      <point x="1028" y="941"/>
      <point x="1012" y="970"/>
      <point x="993" y="994" type="curve"/>
      <point x="937" y="1071"/>
      <point x="847" y="1110"/>
      <point x="728" y="1110" type="curve" smooth="yes"/>
      <point x="443" y="1110"/>
      <point x="224" y="875"/>
      <point x="169" y="541" type="curve" smooth="yes"/>
      <point x="113" y="202"/>
      <point x="257" y="-30"/>
      <point x="540" y="-30" type="curve" smooth="yes"/>
      <point x="671" y="-30"/>
      <point x="775" y="16"/>
      <point x="856" y="98" type="curve"/>
      <point x="879" y="120"/>
      <point x="899" y="144"/>
      <point x="918" y="171" type="curve"/>
      <point x="810" y="-480" type="line"/>
      <point x="971" y="-480" type="line"/>
    </contour>
    <contour>
      <point x="592" y="133" type="curve" smooth="yes"/>
      <point x="378" y="133"/>
      <point x="300" y="299"/>
      <point x="340" y="541" type="curve" smooth="yes"/>
      <point x="381" y="787"/>
      <point x="514" y="947"/>
      <point x="727" y="947" type="curve" smooth="yes"/>
      <point x="956" y="947"/>
      <point x="1016" y="763"/>
      <point x="979" y="542" type="curve" smooth="yes"/>
      <point x="938" y="295"/>
      <point x="803" y="133"/>
    </contour>
  </outline>
</glyph>
<glyph name="r" format="2">
  <advance width="698"/>
  <unicode hex="0072"/>
  <outline>
    <contour>
      <point x="18" y="0" type="line"/>
      <point x="189" y="1080" type="line"/>
      <point x="343" y="1080" type="line"/>
      <point x="301" y="819" type="line"/>
      <point x="282" y="853" type="line"/>
      <point x="352" y="988"/>
      <point x="469" y="1076"/>
      <point x="619" y="1086" type="curve"/>
      <point x="630" y="1087"/>
      <point x="640" y="1088"/>
      <point x="651" y="1088" type="curve" smooth="yes"/>
      <point x="675" y="1088"/>
      <point x="698" y="1086"/>
      <point x="720" y="1080" type="curve"/>
      <point x="693" y="909" type="line"/>
      <point x="669" y="916"/>
      <point x="643" y="919"/>
      <point x="618" y="919" type="curve" smooth="yes"/>
      <point x="545" y="919"/>
      <point x="489" y="900"/>
      <point x="435" y="859" type="curve" smooth="yes"/>
      <point x="352" y="798"/>
      <point x="306" y="701"/>
      <point x="286" y="595" type="curve" smooth="yes"/>
      <point x="279" y="556"/>
      <point x="272" y="517"/>
      <point x="266" y="478" type="curve" smooth="yes"/>
      <point x="191" y="0" type="line"/>
    </contour>
  </outline>
</glyph>
<glyph name="s" format="2">
  <advance width="994"/>
  <unicode hex="0073"/>
  <outline>
    <contour>
      <point x="443" y="-29" type="curve" smooth="yes"/>
      <point x="233" y="-29"/>
      <point x="48" y="64"/>
      <point x="29" y="294" type="curve"/>
      <point x="207" y="323" type="line"/>
      <point x="227" y="191"/>
      <point x="345" y="134"/>
      <point x="468" y="134" type="curve" smooth="yes"/>
      <point x="576" y="134"/>
      <point x="688" y="177"/>
      <point x="703" y="290" type="curve"/>
      <point x="704" y="299"/>
      <point x="705" y="308"/>
      <point x="705" y="317" type="curve" smooth="yes"/>
      <point x="705" y="336"/>
      <point x="700" y="358"/>
      <point x="692" y="375" type="curve"/>
      <point x="632" y="483"/>
      <point x="186" y="482"/>
      <point x="118" y="684" type="curve" smooth="yes"/>
      <point x="112" y="702"/>
      <point x="108" y="720"/>
      <point x="106" y="739" type="curve"/>
      <point x="105" y="756"/>
      <point x="104" y="773"/>
      <point x="106" y="791" type="curve"/>
      <point x="121" y="1006"/>
      <point x="324" y="1110"/>
      <point x="526" y="1110" type="curve" smooth="yes"/>
      <point x="723" y="1110"/>
      <point x="916" y="1014"/>
      <point x="922" y="794" type="curve"/>
      <point x="743" y="760" type="line"/>
      <point x="737" y="895"/>
      <point x="615" y="948"/>
      <point x="496" y="948" type="curve" smooth="yes"/>
      <point x="409" y="948"/>
      <point x="297" y="912"/>
      <point x="281" y="817" type="curve"/>
      <point x="279" y="809"/>
      <point x="278" y="800"/>
      <point x="278" y="791" type="curve" smooth="yes"/>
      <point x="278" y="612"/>
      <point x="795" y="662"/>
      <point x="869" y="424" type="curve" smooth="yes"/>
      <point x="875" y="405"/>
      <point x="879" y="386"/>
      <point x="881" y="366" type="curve" smooth="yes"/>
      <point x="883" y="347"/>
      <point x="883" y="329"/>
      <point x="881" y="309" type="curve"/>
      <point x="866" y="74"/>
      <point x="665" y="-29"/>
    </contour>
  </outline>
</glyph>
<glyph name="t" format="2">
  <advance width="778"/>
  <unicode hex="0074"/>
  <outline>
    <contour>
      <point x="639" y="0" type="line"/>
      <point x="586" y="-11"/>
      <point x="534" y="-17"/>
      <point x="480" y="-17" type="curve" smooth="yes"/>
      <point x="321" y="-17"/>
      <point x="205" y="46"/>
      <point x="205" y="219" type="curve" smooth="yes"/>
      <point x="205" y="280"/>
      <point x="219" y="345"/>
      <point x="229" y="405" type="curve" smooth="yes"/>
      <point x="390" y="1380" type="line"/>
      <point x="553" y="1380" type="line"/>
      <point x="393" y="412" type="line" smooth="yes"/>
      <point x="385" y="366"/>
      <point x="374" y="315"/>
      <point x="374" y="267" type="curve" smooth="yes"/>
      <point x="374" y="159"/>
      <point x="452" y="138"/>
      <point x="543" y="138" type="curve" smooth="yes"/>
      <point x="583" y="138"/>
      <point x="623" y="142"/>
      <point x="663" y="148" type="curve"/>
    </contour>
    <contour>
      <point x="104" y="937" type="line"/>
      <point x="128" y="1080" type="line"/>
      <point x="818" y="1080" type="line"/>
      <point x="794" y="937" type="line"/>
    </contour>
  </outline>
</glyph>
<glyph name="u" format="2">
  <advance width="1129"/>
  <unicode hex="0075"/>
  <outline>
    <contour>
      <point x="424" y="-28" type="curve" smooth="yes"/>
      <point x="179" y="-28"/>
      <point x="77" y="138"/>
      <point x="77" y="367" type="curve" smooth="yes"/>
      <point x="77" y="407"/>
      <point x="82" y="445"/>
      <point x="88" y="483" type="curve" smooth="yes"/>
      <point x="183" y="1080" type="line"/>
      <point x="357" y="1080" type="line"/>
      <point x="271" y="541" type="line" smooth="yes"/>
      <point x="263" y="494"/>
      <point x="254" y="447"/>
      <point x="254" y="398" type="curve" smooth="yes"/>
      <point x="254" y="247"/>
      <point x="325" y="145"/>
      <point x="484" y="145" type="curve" smooth="yes"/>
      <point x="698" y="145"/>
      <point x="785" y="326"/>
      <point x="809" y="512" type="curve"/>
      <point x="919" y="474" type="line"/>
      <point x="887" y="202"/>
      <point x="718" y="-28"/>
    </contour>
    <contour>
      <point x="747" y="0" type="line"/>
      <point x="794" y="293" type="line"/>
      <point x="775" y="293" type="line"/>
      <point x="899" y="1080" type="line"/>
      <point x="1072" y="1080" type="line"/>
      <point x="901" y="0" type="line"/>
    </contour>
  </outline>
</glyph>
<glyph name="v" format="2">
  <advance width="994"/>
  <unicode hex="0076"/>
  <outline>
    <contour>
      <point x="419" y="0" type="line"/>
      <point x="221" y="1080" type="line"/>
      <point x="388" y="1080" type="line"/>
      <point x="539" y="220" type="line"/>
      <point x="975" y="1080" type="line"/>
      <point x="1143" y="1080" type="line"/>
      <point x="588" y="0" type="line"/>
    </contour>
  </outline>
</glyph>
<glyph name="w" format="2">
  <advance width="1478"/>
  <unicode hex="0077"/>
  <outline>
    <contour>
      <point x="243" y="0" type="line"/>
      <point x="101" y="1081" type="line"/>
      <point x="273" y="1080" type="line"/>
      <point x="376" y="298" type="line"/>
      <point x="728" y="1080" type="line"/>
      <point x="881" y="1080" type="line"/>
      <point x="985" y="298" type="line"/>
      <point x="1336" y="1080" type="line"/>
      <point x="1508" y="1080" type="line"/>
      <point x="1023" y="0" type="line"/>
      <point x="880" y="0" type="line"/>
      <point x="763" y="815" type="line"/>
      <point x="386" y="0" type="line"/>
    </contour>
  </outline>
</glyph>
<glyph name="x" format="2">
  <advance width="1023"/>
  <unicode hex="0078"/>
  <outline>
    <contour>
      <point x="24" y="0" type="line"/>
      <point x="513" y="546" type="line"/>
      <point x="212" y="1080" type="line"/>
      <point x="408" y="1080" type="line"/>
      <point x="631" y="679" type="line"/>
      <point x="984" y="1080" type="line"/>
      <point x="1181" y="1080" type="line"/>
      <point x="703" y="546" type="line"/>
      <point x="1012" y="0" type="line"/>
      <point x="814" y="0" type="line"/>
      <point x="587" y="413" type="line"/>
      <point x="222" y="0" type="line"/>
    </contour>
  </outline>
</glyph>
<glyph name="y" format="2">
  <advance width="1053"/>
  <unicode hex="0079"/>
  <outline>
    <contour>
      <point x="930" y="1079" type="line"/>
      <point x="1107" y="1079" type="line"/>
      <point x="479" y="-137" type="line" smooth="yes"/>
      <point x="453" y="-185"/>
      <point x="431" y="-230"/>
      <point x="410" y="-270" type="curve" smooth="yes"/>
      <point x="353" y="-376"/>
      <point x="294" y="-457"/>
      <point x="170" y="-474" type="curve"/>
      <point x="130" y="-479"/>
      <point x="84" y="-479"/>
      <point x="32" y="-479" type="curve"/>
      <point x="60" y="-303" type="line"/>
      <point x="134" y="-304"/>
      <point x="165" y="-287"/>
      <point x="193" y="-253" type="curve"/>
      <point x="213" y="-253"/>
      <point x="226" y="-250"/>
      <point x="242" y="-238" type="curve"/>
      <point x="284" y="-198"/>
      <point x="345" y="-66"/>
      <point x="379" y="0" type="curve"/>
      <point x="354" y="0" type="line"/>
      <point x="108" y="1080" type="line"/>
      <point x="284" y="1080" type="line"/>
      <point x="481" y="203" type="line"/>
    </contour>
  </outline>
</glyph>
<glyph name="z" format="2">
  <advance width="1000"/>
  <unicode hex="007A"/>
  <outline>
    <contour>
      <point x="-70" y="0" type="line"/>
      <point x="-65" y="32" type="line"/>
      <point x="691" y="914" type="line"/>
      <point x="126" y="914" type="line"/>
      <point x="153" y="1080" type="line"/>
      <point x="997" y="1080" type="line"/>
      <point x="991" y="1046" type="line"/>
      <point x="236" y="166" type="line"/>
      <point x="820" y="166" type="line"/>
      <point x="794" y="0" type="line"/>
    </contour>
  </outline>
</glyph>
<glyph name="braceleft" format="2">
  <advance width="819"/>
  <unicode hex="007B"/>
  <outline>
    <contour>
      <point x="453" y="-431" type="line" smooth="yes"/>
      <point x="397" y="-431"/>
      <point x="313" y="-396"/>
      <point x="284" y="-361" type="qcurve" smooth="yes"/>
      <point x="255" y="-326"/>
      <point x="237" y="-235"/>
      <point x="246" y="-178" type="qcurve" smooth="yes"/>
      <point x="351" y="454" type="line" smooth="yes"/>
      <point x="353" y="468"/>
      <point x="349" y="494"/>
      <point x="343" y="505" type="qcurve" smooth="yes"/>
      <point x="279" y="627" type="line" smooth="yes"/>
      <point x="268" y="649"/>
      <point x="277" y="703"/>
      <point x="296" y="725" type="qcurve" smooth="yes"/>
      <point x="400" y="846" type="line"/>
      <point x="410" y="859"/>
      <point x="422" y="884"/>
      <point x="424" y="897" type="qcurve" smooth="yes"/>
      <point x="529" y="1529" type="line" smooth="yes"/>
      <point x="538" y="1586"/>
      <point x="588" y="1678"/>
      <point x="628" y="1713" type="qcurve" smooth="yes"/>
      <point x="668" y="1748"/>
      <point x="764" y="1783"/>
      <point x="820" y="1783" type="qcurve" smooth="yes"/>
      <point x="943" y="1783" type="line"/>
      <point x="914" y="1609" type="line"/>
      <point x="801" y="1609" type="line" smooth="yes"/>
      <point x="782" y="1609"/>
      <point x="749" y="1596"/>
      <point x="735" y="1583" type="qcurve"/>
      <point x="719" y="1569"/>
      <point x="700" y="1537"/>
      <point x="697" y="1518" type="qcurve" smooth="yes"/>
      <point x="594" y="897" type="line" smooth="yes"/>
      <point x="587" y="855"/>
      <point x="552" y="780"/>
      <point x="522" y="746" type="qcurve" smooth="yes"/>
      <point x="461" y="676" type="line"/>
      <point x="499" y="606" type="line" smooth="yes"/>
      <point x="517" y="572"/>
      <point x="528" y="496"/>
      <point x="521" y="454" type="qcurve" smooth="yes"/>
      <point x="418" y="-168" type="line" smooth="yes"/>
      <point x="415" y="-187"/>
      <point x="423" y="-218"/>
      <point x="434" y="-232" type="qcurve"/>
      <point x="445" y="-245"/>
      <point x="473" y="-258"/>
      <point x="491" y="-258" type="qcurve" smooth="yes"/>
      <point x="605" y="-258" type="line"/>
      <point x="577" y="-431" type="line"/>
    </contour>
  </outline>
</glyph>
<glyph name="bar" format="2">
  <advance width="495"/>
  <unicode hex="007C"/>
  <outline>
    <contour>
      <point x="95" y="0" type="line"/>
      <point x="333" y="1440" type="line"/>
      <point x="502" y="1440" type="line"/>
      <point x="263" y="0" type="line"/>
    </contour>
  </outline>
</glyph>
<glyph name="braceright" format="2">
  <advance width="812"/>
  <unicode hex="007D"/>
  <outline>
    <contour>
      <point x="-63" y="-433" type="line"/>
      <point x="-36" y="-269" type="line"/>
      <point x="76" y="-269" type="line" smooth="yes"/>
      <point x="95" y="-269"/>
      <point x="131" y="-256"/>
      <point x="146" y="-242" type="qcurve"/>
      <point x="162" y="-228"/>
      <point x="181" y="-195"/>
      <point x="184" y="-175" type="qcurve" smooth="yes"/>
      <point x="289" y="454" type="line" smooth="yes"/>
      <point x="295" y="495"/>
      <point x="330" y="568"/>
      <point x="360" y="602" type="qcurve" smooth="yes"/>
      <point x="422" y="674" type="line"/>
      <point x="383" y="746" type="line"/>
      <point x="366" y="780"/>
      <point x="355" y="853"/>
      <point x="361" y="894" type="qcurve" smooth="yes"/>
      <point x="465" y="1522" type="line" smooth="yes"/>
      <point x="468" y="1542"/>
      <point x="461" y="1576"/>
      <point x="449" y="1589" type="qcurve"/>
      <point x="437" y="1603"/>
      <point x="408" y="1617"/>
      <point x="389" y="1617" type="qcurve" smooth="yes"/>
      <point x="276" y="1617" type="line"/>
      <point x="304" y="1781" type="line"/>
      <point x="425" y="1781" type="line" smooth="yes"/>
      <point x="480" y="1781"/>
      <point x="562" y="1747"/>
      <point x="590" y="1712" type="qcurve" smooth="yes"/>
      <point x="619" y="1677"/>
      <point x="637" y="1587"/>
      <point x="628" y="1532" type="qcurve" smooth="yes"/>
      <point x="523" y="894" type="line" smooth="yes"/>
      <point x="521" y="880"/>
      <point x="524" y="854"/>
      <point x="529" y="841" type="qcurve"/>
      <point x="594" y="720" type="line"/>
      <point x="604" y="700"/>
      <point x="595" y="649"/>
      <point x="578" y="628" type="qcurve"/>
      <point x="475" y="507" type="line"/>
      <point x="464" y="495"/>
      <point x="452" y="469"/>
      <point x="449" y="454" type="qcurve"/>
      <point x="343" y="-185" type="line" smooth="yes"/>
      <point x="334" y="-240"/>
      <point x="286" y="-329"/>
      <point x="246" y="-364" type="qcurve" smooth="yes"/>
      <point x="206" y="-399"/>
      <point x="113" y="-433"/>
      <point x="58" y="-433" type="qcurve" smooth="yes"/>
    </contour>
  </outline>
</glyph>
<glyph name="asciitilde" format="2">
  <advance width="1293"/>
  <unicode hex="007E"/>
  <outline>
    <contour>
      <point x="827" y="444" type="curve" smooth="yes"/>
      <point x="660" y="444"/>
      <point x="555" y="618"/>
      <point x="439" y="618" type="curve" smooth="yes"/>
      <point x="378" y="618"/>
      <point x="350" y="559"/>
      <point x="350" y="501" type="curve"/>
      <point x="350" y="490"/>
      <point x="350" y="481"/>
      <point x="352" y="473" type="curve"/>
      <point x="183" y="473" type="line"/>
      <point x="181" y="487"/>
      <point x="181" y="499"/>
      <point x="181" y="513" type="curve" smooth="yes"/>
      <point x="181" y="670"/>
      <point x="272" y="802"/>
      <point x="430" y="814" type="curve" smooth="yes"/>
      <point x="442" y="815"/>
      <point x="455" y="815"/>
      <point x="467" y="814" type="curve"/>
      <point x="630" y="807"/>
      <point x="728" y="641"/>
      <point x="843" y="641" type="curve" smooth="yes"/>
      <point x="903" y="641"/>
      <point x="931" y="704"/>
      <point x="932" y="761" type="curve"/>
      <point x="932" y="771"/>
      <point x="931" y="780"/>
      <point x="930" y="789" type="curve"/>
      <point x="1099" y="789" type="line"/>
      <point x="1100" y="776"/>
      <point x="1101" y="762"/>
      <point x="1101" y="750" type="curve" smooth="yes"/>
      <point x="1101" y="584"/>
      <point x="1003" y="444"/>
    </contour>
  </outline>
</glyph>
<glyph name="exclamdown" format="2">
  <advance width="608"/>
  <unicode hex="00A1"/>
  <outline>
    <contour>
      <point x="419" y="1093" type="curve" smooth="yes"/>
      <point x="451" y="1093"/>
      <point x="476" y="1083"/>
      <point x="494" y="1060" type="curve"/>
      <point x="513" y="1038"/>
      <point x="519" y="1012"/>
      <point x="514" y="981" type="curve" smooth="yes"/>
      <point x="508" y="949"/>
      <point x="493" y="922"/>
      <point x="467" y="900" type="curve" smooth="yes"/>
      <point x="442" y="878"/>
      <point x="414" y="868"/>
      <point x="382" y="868" type="curve" smooth="yes"/>
      <point x="349" y="868"/>
      <point x="324" y="878"/>
      <point x="305" y="900" type="curve"/>
      <point x="287" y="922"/>
      <point x="281" y="949"/>
      <point x="286" y="981" type="curve"/>
      <point x="292" y="1013"/>
      <point x="307" y="1039"/>
      <point x="332" y="1061" type="curve" smooth="yes"/>
      <point x="358" y="1083"/>
      <point x="386" y="1093"/>
    </contour>
    <contour>
      <point x="417" y="692" type="line"/>
      <point x="371" y="265" type="line"/>
      <point x="268" y="-360" type="line"/>
      <point x="89" y="-360" type="line"/>
      <point x="192" y="265" type="line"/>
      <point x="281" y="692" type="line"/>
    </contour>
  </outline>
</glyph>
<glyph name="cent" format="2">
  <advance width="1091"/>
  <unicode hex="00A2"/>
  <outline>
    <contour>
      <point x="409" y="-59" type="line"/>
      <point x="439" y="124" type="line"/>
      <point x="370" y="132"/>
      <point x="259" y="178"/>
      <point x="215" y="216" type="qcurve"/>
      <point x="130" y="293"/>
      <point x="68" y="535"/>
      <point x="93" y="690" type="qcurve"/>
      <point x="107" y="768"/>
      <point x="156" y="907"/>
      <point x="193" y="968" type="qcurve" smooth="yes"/>
      <point x="266" y="1091"/>
      <point x="484" y="1240"/>
      <point x="627" y="1255" type="qcurve"/>
      <point x="657" y="1440" type="line"/>
      <point x="804" y="1440" type="line"/>
      <point x="773" y="1254" type="line"/>
      <point x="841" y="1244"/>
      <point x="951" y="1195"/>
      <point x="994" y="1154" type="qcurve" smooth="yes"/>
      <point x="1037" y="1113"/>
      <point x="1088" y="1009"/>
      <point x="1095" y="944" type="qcurve"/>
      <point x="909" y="890" type="line"/>
      <point x="900" y="937"/>
      <point x="858" y="1009"/>
      <point x="825" y="1035" type="qcurve" smooth="yes"/>
      <point x="792" y="1061"/>
      <point x="712" y="1087"/>
      <point x="664" y="1087" type="qcurve" smooth="yes"/>
      <point x="610" y="1087"/>
      <point x="517" y="1062"/>
      <point x="479" y="1036" type="qcurve"/>
      <point x="400" y="985"/>
      <point x="303" y="807"/>
      <point x="283" y="690" type="qcurve" smooth="yes"/>
      <point x="269" y="600"/>
      <point x="286" y="458"/>
      <point x="317" y="403" type="qcurve" smooth="yes"/>
      <point x="347" y="348"/>
      <point x="455" y="293"/>
      <point x="533" y="293" type="qcurve" smooth="yes"/>
      <point x="636" y="293"/>
      <point x="787" y="390"/>
      <point x="837" y="481" type="qcurve"/>
      <point x="1011" y="433" type="line"/>
      <point x="939" y="300"/>
      <point x="724" y="145"/>
      <point x="587" y="126" type="qcurve"/>
      <point x="556" y="-59" type="line"/>
    </contour>
  </outline>
</glyph>
<glyph name="sterling" format="2">
  <advance width="1226"/>
  <unicode hex="00A3"/>
  <outline>
    <contour>
      <point x="312" y="126" type="line"/>
      <point x="341" y="148"/>
      <point x="384" y="204"/>
      <point x="415" y="266"/>
      <point x="435" y="332"/>
      <point x="440" y="364" type="qcurve" smooth="yes"/>
      <point x="454" y="452"/>
      <point x="439" y="618"/>
      <point x="414" y="783"/>
      <point x="399" y="948"/>
      <point x="414" y="1034" type="qcurve" smooth="yes"/>
      <point x="425" y="1105"/>
      <point x="493" y="1208"/>
      <point x="589" y="1274"/>
      <point x="708" y="1305"/>
      <point x="772" y="1305" type="qcurve" smooth="yes"/>
      <point x="839" y="1305"/>
      <point x="953" y="1267"/>
      <point x="1037" y="1193"/>
      <point x="1085" y="1086"/>
      <point x="1084" y="1016" type="qcurve"/>
      <point x="1268" y="1048" type="line"/>
      <point x="1267" y="1149"/>
      <point x="1197" y="1307"/>
      <point x="1073" y="1413"/>
      <point x="905" y="1469"/>
      <point x="807" y="1469" type="qcurve" smooth="yes"/>
      <point x="703" y="1469"/>
      <point x="513" y="1419"/>
      <point x="360" y="1312"/>
      <point x="254" y="1146"/>
      <point x="235" y="1031" type="qcurve" smooth="yes"/>
      <point x="220" y="943"/>
      <point x="237" y="778"/>
      <point x="263" y="615"/>
      <point x="280" y="453"/>
      <point x="266" y="371" type="qcurve" smooth="yes"/>
      <point x="255" y="305"/>
      <point x="190" y="200"/>
      <point x="128" y="163" type="qcurve"/>
    </contour>
    <contour>
      <point x="-6" y="0" type="line"/>
      <point x="1060" y="0" type="line"/>
      <point x="1087" y="163" type="line"/>
      <point x="21" y="163" type="line"/>
    </contour>
    <contour>
      <point x="105" y="628" type="line"/>
      <point x="945" y="628" type="line"/>
      <point x="972" y="791" type="line"/>
      <point x="132" y="791" type="line"/>
    </contour>
  </outline>
</glyph>
<glyph name="currency" format="2">
  <advance width="1266"/>
  <unicode hex="00A4"/>
  <outline>
    <contour>
      <point x="596" y="196" type="qcurve" smooth="yes"/>
      <point x="496" y="196"/>
      <point x="324" y="271"/>
      <point x="198" y="400"/>
      <point x="127" y="575"/>
      <point x="127" y="674" type="qcurve" smooth="yes"/>
      <point x="127" y="787"/>
      <point x="217" y="994"/>
      <point x="370" y="1152"/>
      <point x="575" y="1246"/>
      <point x="689" y="1246" type="qcurve" smooth="yes"/>
      <point x="790" y="1246"/>
      <point x="962" y="1172"/>
      <point x="1088" y="1043"/>
      <point x="1160" y="869"/>
      <point x="1160" y="769" type="qcurve" smooth="yes"/>
      <point x="1160" y="655"/>
      <point x="1070" y="447"/>
      <point x="916" y="290"/>
      <point x="711" y="196"/>
    </contour>
    <contour>
      <point x="89" y="128" type="line"/>
      <point x="-13" y="252" type="line"/>
      <point x="243" y="476" type="line"/>
      <point x="345" y="353" type="line"/>
    </contour>
    <contour>
      <point x="321" y="963" type="line"/>
      <point x="135" y="1188" type="line"/>
      <point x="276" y="1312" type="line"/>
      <point x="460" y="1087" type="line"/>
    </contour>
    <contour>
      <point x="1008" y="128" type="line"/>
      <point x="824" y="353" type="line"/>
      <point x="964" y="476" type="line"/>
      <point x="1148" y="252" type="line"/>
    </contour>
    <contour>
      <point x="611" y="356" type="qcurve" smooth="yes"/>
      <point x="691" y="356"/>
      <point x="833" y="422"/>
      <point x="939" y="532"/>
      <point x="1002" y="676"/>
      <point x="1002" y="755" type="qcurve" smooth="yes"/>
      <point x="1002" y="823"/>
      <point x="951" y="943"/>
      <point x="863" y="1033"/>
      <point x="743" y="1085"/>
      <point x="674" y="1085" type="qcurve" smooth="yes"/>
      <point x="594" y="1085"/>
      <point x="452" y="1020"/>
      <point x="345" y="910"/>
      <point x="283" y="765"/>
      <point x="283" y="685" type="qcurve" smooth="yes"/>
      <point x="283" y="616"/>
      <point x="334" y="496"/>
      <point x="422" y="407"/>
      <point x="542" y="356"/>
    </contour>
    <contour>
      <point x="1042" y="964" type="line"/>
      <point x="941" y="1087" type="line"/>
      <point x="1196" y="1312" type="line"/>
      <point x="1297" y="1188" type="line"/>
    </contour>
  </outline>
</glyph>
<glyph name="yen" format="2">
  <advance width="1131"/>
  <unicode hex="00A5"/>
  <outline>
    <contour>
      <point x="160" y="519" type="line"/>
      <point x="183" y="670" type="line"/>
      <point x="951" y="670" type="line"/>
      <point x="927" y="519" type="line"/>
    </contour>
    <contour>
      <point x="111" y="215" type="line"/>
      <point x="135" y="365" type="line"/>
      <point x="902" y="365" type="line"/>
      <point x="879" y="215" type="line"/>
    </contour>
    <contour>
      <point x="370" y="0" type="line"/>
      <point x="465" y="598" type="line"/>
      <point x="123" y="1440" type="line"/>
      <point x="331" y="1440" type="line"/>
      <point x="589" y="808" type="line"/>
      <point x="1046" y="1440" type="line"/>
      <point x="1254" y="1440" type="line"/>
      <point x="646" y="598" type="line"/>
      <point x="552" y="0" type="line"/>
    </contour>
  </outline>
</glyph>
<glyph name="brokenbar" format="2">
  <advance width="496"/>
  <unicode hex="00A6"/>
  <outline>
    <contour>
      <point x="160" y="672" type="line"/>
      <point x="281" y="1440" type="line"/>
      <point x="460" y="1440" type="line"/>
      <point x="339" y="672" type="line"/>
    </contour>
    <contour>
      <point x="-2" y="-349" type="line"/>
      <point x="120" y="419" type="line"/>
      <point x="298" y="419" type="line"/>
      <point x="177" y="-349" type="line"/>
    </contour>
  </outline>
</glyph>
<glyph name="section" format="2">
  <advance width="1025"/>
  <unicode hex="00A7"/>
  <outline>
    <contour>
      <point x="414" y="-301" type="curve" smooth="yes"/>
      <point x="208" y="-301"/>
      <point x="41" y="-205"/>
      <point x="36" y="18" type="curve"/>
      <point x="213" y="46" type="line"/>
      <point x="222" y="-80"/>
      <point x="329" y="-147"/>
      <point x="449" y="-147" type="curve" smooth="yes"/>
      <point x="568" y="-147"/>
      <point x="696" y="-77"/>
      <point x="696" y="56" type="curve" smooth="yes"/>
      <point x="696" y="250"/>
      <point x="98" y="183"/>
      <point x="98" y="471" type="curve" smooth="yes"/>
      <point x="98" y="672"/>
      <point x="290" y="782"/>
      <point x="472" y="788" type="curve"/>
      <point x="489" y="788"/>
      <point x="507" y="787"/>
      <point x="524" y="786" type="curve"/>
      <point x="522" y="724" type="line"/>
      <point x="422" y="698"/>
      <point x="273" y="638"/>
      <point x="273" y="514" type="curve" smooth="yes"/>
      <point x="273" y="320"/>
      <point x="874" y="398"/>
      <point x="874" y="95" type="curve" smooth="yes"/>
      <point x="874" y="-162"/>
      <point x="651" y="-301"/>
    </contour>
    <contour>
      <point x="566" y="252" type="curve"/>
      <point x="574" y="316" type="line"/>
      <point x="687" y="326"/>
      <point x="805" y="415"/>
      <point x="805" y="537" type="curve" smooth="yes"/>
      <point x="805" y="732"/>
      <point x="208" y="661"/>
      <point x="208" y="954" type="curve" smooth="yes"/>
      <point x="208" y="1186"/>
      <point x="434" y="1319"/>
      <point x="645" y="1319" type="curve" smooth="yes"/>
      <point x="833" y="1319"/>
      <point x="1003" y="1210"/>
      <point x="997" y="1004" type="curve"/>
      <point x="820" y="972" type="line"/>
      <point x="820" y="1100"/>
      <point x="735" y="1166"/>
      <point x="611" y="1166" type="curve" smooth="yes"/>
      <point x="510" y="1166"/>
      <point x="382" y="1112"/>
      <point x="382" y="994" type="curve" smooth="yes"/>
      <point x="382" y="802"/>
      <point x="984" y="878"/>
      <point x="984" y="578" type="curve" smooth="yes"/>
      <point x="984" y="381"/>
      <point x="837" y="242"/>
      <point x="642" y="242" type="curve" smooth="yes"/>
      <point x="616" y="242"/>
      <point x="590" y="245"/>
    </contour>
  </outline>
</glyph>
<glyph name="dieresis" format="2">
  <advance width="1133"/>
  <unicode hex="00A8"/>
  <outline>
    <contour>
      <point x="529" y="1252" type="curve" smooth="yes"/>
      <point x="476" y="1252"/>
      <point x="435" y="1289"/>
      <point x="435" y="1344" type="curve" smooth="yes"/>
      <point x="435" y="1416"/>
      <point x="495" y="1478"/>
      <point x="566" y="1478" type="curve" smooth="yes"/>
      <point x="621" y="1478"/>
      <point x="661" y="1442"/>
      <point x="661" y="1386" type="curve" smooth="yes"/>
      <point x="661" y="1314"/>
      <point x="602" y="1252"/>
    </contour>
    <contour>
      <point x="880" y="1252" type="curve" smooth="yes"/>
      <point x="828" y="1252"/>
      <point x="786" y="1289"/>
      <point x="786" y="1343" type="curve" smooth="yes"/>
      <point x="786" y="1416"/>
      <point x="845" y="1478"/>
      <point x="918" y="1478" type="curve" smooth="yes"/>
      <point x="971" y="1478"/>
      <point x="1012" y="1443"/>
      <point x="1012" y="1388" type="curve" smooth="yes"/>
      <point x="1012" y="1314"/>
      <point x="954" y="1252"/>
    </contour>
  </outline>
</glyph>
<glyph name="copyright" format="2">
  <advance width="1625"/>
  <unicode hex="00A9"/>
  <outline>
    <contour>
      <point x="749" y="-78" type="qcurve" smooth="yes"/>
      <point x="601" y="-78"/>
      <point x="346" y="31"/>
      <point x="160" y="220"/>
      <point x="54" y="477"/>
      <point x="54" y="624" type="qcurve" smooth="yes"/>
      <point x="54" y="737"/>
      <point x="114" y="950"/>
      <point x="223" y="1138"/>
      <point x="376" y="1295"/>
      <point x="561" y="1409"/>
      <point x="772" y="1472"/>
      <point x="886" y="1472" type="qcurve" smooth="yes"/>
      <point x="1035" y="1472"/>
      <point x="1289" y="1364"/>
      <point x="1475" y="1175"/>
      <point x="1581" y="919"/>
      <point x="1581" y="771" type="qcurve" smooth="yes"/>
      <point x="1581" y="658"/>
      <point x="1521" y="445"/>
      <point x="1412" y="256"/>
      <point x="1259" y="99"/>
      <point x="1074" y="-15"/>
      <point x="863" y="-78"/>
    </contour>
    <contour>
      <point x="791" y="274" type="qcurve" smooth="yes"/>
      <point x="749" y="274"/>
      <point x="671" y="288"/>
      <point x="635" y="304" type="qcurve" smooth="yes"/>
      <point x="563" y="337"/>
      <point x="471" y="467"/>
      <point x="456" y="549" type="qcurve" smooth="yes"/>
      <point x="451" y="573"/>
      <point x="448" y="623"/>
      <point x="448" y="647" type="qcurve" smooth="yes"/>
      <point x="448" y="718"/>
      <point x="481" y="854"/>
      <point x="546" y="973"/>
      <point x="643" y="1065"/>
      <point x="707" y="1092" type="qcurve" smooth="yes"/>
      <point x="745" y="1109"/>
      <point x="828" y="1122"/>
      <point x="873" y="1122" type="qcurve" smooth="yes"/>
      <point x="898" y="1122"/>
      <point x="949" y="1117"/>
      <point x="973" y="1110" type="qcurve"/>
      <point x="1014" y="1100"/>
      <point x="1086" y="1057"/>
      <point x="1142" y="998"/>
      <point x="1179" y="923"/>
      <point x="1185" y="881" type="qcurve"/>
      <point x="1039" y="839" type="line"/>
      <point x="1021" y="905"/>
      <point x="923" y="983"/>
      <point x="853" y="983" type="qcurve" smooth="yes"/>
      <point x="786" y="983"/>
      <point x="691" y="925"/>
      <point x="630" y="832"/>
      <point x="602" y="716"/>
      <point x="602" y="657" type="qcurve" smooth="yes"/>
      <point x="602" y="608"/>
      <point x="624" y="519"/>
      <point x="672" y="452"/>
      <point x="749" y="413"/>
      <point x="804" y="413" type="qcurve" smooth="yes"/>
      <point x="843" y="413"/>
      <point x="904" y="431"/>
      <point x="954" y="466"/>
      <point x="993" y="517"/>
      <point x="1010" y="550" type="qcurve"/>
      <point x="1153" y="513" type="line"/>
      <point x="1103" y="398"/>
      <point x="916" y="274"/>
    </contour>
    <contour>
      <point x="1407" y="756" type="qcurve" smooth="yes"/>
      <point x="1407" y="870"/>
      <point x="1325" y="1067"/>
      <point x="1181" y="1213"/>
      <point x="984" y="1297"/>
      <point x="870" y="1297" type="qcurve" smooth="yes"/>
      <point x="737" y="1297"/>
      <point x="502" y="1190"/>
      <point x="327" y="1009"/>
      <point x="226" y="771"/>
      <point x="226" y="639" type="qcurve" smooth="yes"/>
      <point x="226" y="525"/>
      <point x="308" y="328"/>
      <point x="453" y="181"/>
      <point x="650" y="97"/>
      <point x="764" y="97" type="qcurve" smooth="yes"/>
      <point x="897" y="97"/>
      <point x="1131" y="205"/>
      <point x="1306" y="387"/>
      <point x="1407" y="626"/>
    </contour>
  </outline>
</glyph>
<glyph name="ordfeminine" format="2">
  <advance width="617"/>
  <unicode hex="00AA"/>
  <outline>
    <contour>
      <point x="373.542" y="765.235" type="curve" smooth="yes"/>
      <point x="260.102" y="765.235"/>
      <point x="169.35" y="827.627"/>
      <point x="169.35" y="948.36" type="curve" smooth="yes"/>
      <point x="169.35" y="1107.18"/>
      <point x="276.307" y="1163.09"/>
      <point x="411.625" y="1192.26" type="curve" smooth="yes"/>
      <point x="439.985" y="1197.93"/>
      <point x="469.966" y="1203.6"/>
      <point x="498.326" y="1208.46" type="curve"/>
      <point x="561.528" y="1217.37"/>
      <point x="623.11" y="1224.67"/>
      <point x="684.691" y="1233.58" type="curve"/>
      <point x="641.746" y="1208.46" type="line"/>
      <point x="643.367" y="1221.43"/>
      <point x="644.177" y="1234.39"/>
      <point x="644.177" y="1247.36" type="curve" smooth="yes"/>
      <point x="644.177" y="1346.21"/>
      <point x="594.75" y="1381.86"/>
      <point x="499.946" y="1381.86" type="curve" smooth="yes"/>
      <point x="418.918" y="1381.86"/>
      <point x="356.526" y="1341.35"/>
      <point x="327.355" y="1265.18" type="curve"/>
      <point x="222.829" y="1300.02" type="line"/>
      <point x="269.015" y="1431.29"/>
      <point x="375.162" y="1494.49"/>
      <point x="511.29" y="1494.49" type="curve" smooth="yes"/>
      <point x="616.627" y="1494.49"/>
      <point x="702.518" y="1462.89"/>
      <point x="742.222" y="1372.14" type="curve" smooth="yes"/>
      <point x="756.807" y="1338.11"/>
      <point x="764.099" y="1299.21"/>
      <point x="764.099" y="1257.89" type="curve" smooth="yes"/>
      <point x="764.099" y="1241.68"/>
      <point x="762.479" y="1227.1"/>
      <point x="759.238" y="1210.89" type="curve"/>
      <point x="692.794" y="783.872" type="line"/>
      <point x="591.509" y="783.872" type="line"/>
      <point x="616.627" y="946.739" type="line"/>
      <point x="650.659" y="929.723" type="line"/>
      <point x="592.319" y="822.766"/>
      <point x="496.705" y="765.235"/>
    </contour>
    <contour>
      <point x="401.091" y="865.711" type="curve" smooth="yes"/>
      <point x="486.982" y="865.711"/>
      <point x="560.718" y="908.656"/>
      <point x="598.801" y="980.771" type="curve" smooth="yes"/>
      <point x="608.525" y="999.408"/>
      <point x="615.817" y="1019.67"/>
      <point x="621.489" y="1042.35" type="curve" smooth="yes"/>
      <point x="629.592" y="1076.39"/>
      <point x="632.023" y="1112.85"/>
      <point x="635.264" y="1147.69" type="curve"/>
      <point x="672.537" y="1130.67" type="line"/>
      <point x="623.92" y="1125"/>
      <point x="562.338" y="1117.71"/>
      <point x="500.757" y="1107.99" type="curve" smooth="yes"/>
      <point x="433.503" y="1095.83"/>
      <point x="356.526" y="1079.63"/>
      <point x="318.442" y="1043.97" type="curve"/>
      <point x="298.995" y="1024.53"/>
      <point x="286.031" y="1001.03"/>
      <point x="283.6" y="970.238" type="curve"/>
      <point x="283.6" y="962.135"/>
      <point x="282.79" y="954.842"/>
      <point x="283.6" y="947.55" type="curve" smooth="yes"/>
      <point x="290.082" y="888.399"/>
      <point x="343.561" y="865.711"/>
    </contour>
    <contour>
      <point x="109.389" y="581.301" type="line"/>
      <point x="126.405" y="689.069" type="line"/>
      <point x="733.309" y="689.069" type="line"/>
      <point x="716.293" y="581.301" type="line"/>
    </contour>
  </outline>
</glyph>
<glyph name="guillemotleft" format="2">
  <advance width="1055"/>
  <unicode hex="00AB"/>
  <outline>
    <contour>
      <point x="787" y="104" type="line"/>
      <point x="519" y="541" type="line"/>
      <point x="932" y="977" type="line"/>
      <point x="1017" y="900" type="line"/>
      <point x="677" y="541" type="line"/>
      <point x="898" y="181" type="line"/>
    </contour>
    <contour>
      <point x="434" y="104" type="line"/>
      <point x="166" y="541" type="line"/>
      <point x="579" y="977" type="line"/>
      <point x="663" y="900" type="line"/>
      <point x="323" y="541" type="line"/>
      <point x="545" y="181" type="line"/>
    </contour>
  </outline>
</glyph>
<glyph name="logicalnot" format="2">
  <advance width="1159"/>
  <unicode hex="00AC"/>
  <outline>
    <contour>
      <point x="980" y="385" type="line"/>
      <point x="1020" y="629" type="line"/>
      <point x="219" y="629" type="line"/>
      <point x="243" y="772" type="line"/>
      <point x="1184" y="772" type="line"/>
      <point x="1120" y="385" type="line"/>
    </contour>
  </outline>
</glyph>
<glyph name="registered" format="2">
  <advance width="1219"/>
  <unicode hex="00AE"/>
  <outline>
    <contour>
      <point x="629" y="564" type="qcurve" smooth="yes"/>
      <point x="533" y="564"/>
      <point x="370" y="634"/>
      <point x="251" y="756"/>
      <point x="184" y="921"/>
      <point x="184" y="1016" type="qcurve" smooth="yes"/>
      <point x="184" y="1124"/>
      <point x="269" y="1320"/>
      <point x="414" y="1469"/>
      <point x="607" y="1557"/>
      <point x="716" y="1557" type="qcurve" smooth="yes"/>
      <point x="811" y="1557"/>
      <point x="974" y="1487"/>
      <point x="1093" y="1365"/>
      <point x="1161" y="1201"/>
      <point x="1161" y="1106" type="qcurve" smooth="yes"/>
      <point x="1161" y="998"/>
      <point x="1076" y="802"/>
      <point x="931" y="653"/>
      <point x="738" y="564"/>
    </contour>
    <contour>
      <point x="641" y="696" type="qcurve" smooth="yes"/>
      <point x="721" y="696"/>
      <point x="864" y="762"/>
      <point x="970" y="872"/>
      <point x="1032" y="1017"/>
      <point x="1032" y="1096" type="qcurve" smooth="yes"/>
      <point x="1032" y="1165"/>
      <point x="982" y="1285"/>
      <point x="893" y="1374"/>
      <point x="774" y="1425"/>
      <point x="705" y="1425" type="qcurve" smooth="yes"/>
      <point x="624" y="1425"/>
      <point x="482" y="1360"/>
      <point x="376" y="1250"/>
      <point x="314" y="1106"/>
      <point x="314" y="1026" type="qcurve" smooth="yes"/>
      <point x="314" y="957"/>
      <point x="364" y="836"/>
      <point x="452" y="747"/>
      <point x="572" y="696"/>
    </contour>
    <contour>
      <point x="475" y="829" type="line"/>
      <point x="549" y="1297" type="line"/>
      <point x="747" y="1297" type="line" smooth="yes"/>
      <point x="776" y="1297"/>
      <point x="825" y="1279"/>
      <point x="860" y="1245"/>
      <point x="879" y="1198"/>
      <point x="879" y="1168" type="qcurve" smooth="yes"/>
      <point x="879" y="1142"/>
      <point x="863" y="1094"/>
      <point x="835" y="1052"/>
      <point x="795" y="1018"/>
      <point x="772" y="1007" type="qcurve"/>
      <point x="830" y="829" type="line"/>
      <point x="739" y="829" type="line"/>
      <point x="688" y="992" type="line"/>
      <point x="580" y="992" type="line"/>
      <point x="555" y="829" type="line"/>
    </contour>
    <contour>
      <point x="593" y="1068" type="line"/>
      <point x="712" y="1068" type="line" smooth="yes"/>
      <point x="731" y="1068"/>
      <point x="762" y="1084"/>
      <point x="784" y="1111"/>
      <point x="796" y="1144"/>
      <point x="796" y="1162" type="qcurve" smooth="yes"/>
      <point x="796" y="1189"/>
      <point x="762" y="1220"/>
      <point x="736" y="1220" type="qcurve" smooth="yes"/>
      <point x="617" y="1220" type="line"/>
    </contour>
  </outline>
</glyph>
<glyph name="macron" format="2">
  <advance width="936"/>
  <unicode hex="00AF"/>
  <outline>
    <contour>
      <point x="428" y="1680" type="line"/>
      <point x="451" y="1822" type="line"/>
      <point x="951" y="1822" type="line"/>
      <point x="927" y="1680" type="line"/>
    </contour>
  </outline>
</glyph>
<glyph name="degree" format="2">
  <advance width="864"/>
  <unicode hex="00B0"/>
  <outline>
    <contour>
      <point x="443" y="750" type="qcurve" smooth="yes"/>
      <point x="374" y="750"/>
      <point x="257" y="800"/>
      <point x="170" y="887"/>
      <point x="121" y="1006"/>
      <point x="121" y="1074" type="qcurve" smooth="yes"/>
      <point x="121" y="1151"/>
      <point x="183" y="1294"/>
      <point x="289" y="1404"/>
      <point x="429" y="1470"/>
      <point x="507" y="1470" type="qcurve" smooth="yes"/>
      <point x="575" y="1470"/>
      <point x="693" y="1420"/>
      <point x="780" y="1333"/>
      <point x="830" y="1214"/>
      <point x="830" y="1146" type="qcurve" smooth="yes"/>
      <point x="830" y="1067"/>
      <point x="769" y="924"/>
      <point x="664" y="815"/>
      <point x="523" y="750"/>
    </contour>
    <contour>
      <point x="458" y="911" type="qcurve" smooth="yes"/>
      <point x="502" y="911"/>
      <point x="580" y="947"/>
      <point x="638" y="1008"/>
      <point x="672" y="1087"/>
      <point x="672" y="1130" type="qcurve" smooth="yes"/>
      <point x="672" y="1167"/>
      <point x="644" y="1232"/>
      <point x="595" y="1281"/>
      <point x="530" y="1309"/>
      <point x="493" y="1309" type="qcurve" smooth="yes"/>
      <point x="450" y="1309"/>
      <point x="372" y="1273"/>
      <point x="314" y="1212"/>
      <point x="279" y="1133"/>
      <point x="279" y="1090" type="qcurve" smooth="yes"/>
      <point x="279" y="1053"/>
      <point x="307" y="988"/>
      <point x="356" y="939"/>
      <point x="421" y="911"/>
    </contour>
  </outline>
</glyph>
<glyph name="plusminus" format="2">
  <advance width="1159"/>
  <unicode hex="00B1"/>
  <outline>
    <contour>
      <point x="589" y="440" type="line"/>
      <point x="630" y="689" type="line"/>
      <point x="229" y="689" type="line"/>
      <point x="253" y="832" type="line"/>
      <point x="654" y="832" type="line"/>
      <point x="695" y="1080" type="line"/>
      <point x="835" y="1080" type="line"/>
      <point x="794" y="832" type="line"/>
      <point x="1194" y="832" type="line"/>
      <point x="1170" y="689" type="line"/>
      <point x="770" y="689" type="line"/>
      <point x="729" y="440" type="line"/>
    </contour>
    <contour>
      <point x="140" y="150" type="line"/>
      <point x="164" y="293" type="line"/>
      <point x="1105" y="293" type="line"/>
      <point x="1081" y="150" type="line"/>
    </contour>
  </outline>
</glyph>
<glyph name="twosuperior" format="2">
  <advance width="773"/>
  <unicode hex="00B2"/>
  <outline>
    <contour>
      <point x="683" y="540" type="line"/>
      <point x="700" y="663" type="line"/>
      <point x="219" y="663" type="line"/>
      <point x="231" y="615" type="line"/>
      <point x="606" y="899" type="line"/>
      <point x="709" y="985"/>
      <point x="763" y="1040"/>
      <point x="771" y="1163" type="curve" smooth="yes"/>
      <point x="783" y="1334"/>
      <point x="664" y="1460"/>
      <point x="493" y="1460" type="curve" smooth="yes"/>
      <point x="320" y="1460"/>
      <point x="188" y="1351"/>
      <point x="166" y="1187" type="curve"/>
      <point x="299" y="1176" type="line"/>
      <point x="308" y="1263"/>
      <point x="386" y="1337"/>
      <point x="483" y="1337" type="curve" smooth="yes"/>
      <point x="580" y="1337"/>
      <point x="645" y="1263"/>
      <point x="638" y="1164" type="curve" smooth="yes"/>
      <point x="635" y="1114"/>
      <point x="614" y="1062"/>
      <point x="545" y="1008" type="curve" smooth="yes"/>
      <point x="90" y="655" type="line"/>
      <point x="73" y="540" type="line"/>
    </contour>
  </outline>
</glyph>
<glyph name="threesuperior" format="2">
  <advance width="760"/>
  <unicode hex="00B3"/>
  <outline>
    <contour>
      <point x="349" y="519" type="qcurve" smooth="yes"/>
      <point x="299" y="519"/>
      <point x="215" y="547"/>
      <point x="181" y="576" type="qcurve"/>
      <point x="146" y="604"/>
      <point x="105" y="680"/>
      <point x="99" y="729" type="qcurve"/>
      <point x="227" y="763" type="line"/>
      <point x="236" y="703"/>
      <point x="313" y="642"/>
      <point x="369" y="642" type="qcurve"/>
      <point x="406" y="643"/>
      <point x="471" y="667"/>
      <point x="498" y="692" type="qcurve" smooth="yes"/>
      <point x="525" y="717"/>
      <point x="557" y="778"/>
      <point x="564" y="816" type="qcurve" smooth="yes"/>
      <point x="570" y="854"/>
      <point x="557" y="917"/>
      <point x="539" y="942" type="qcurve" smooth="yes"/>
      <point x="521" y="967"/>
      <point x="463" y="991"/>
      <point x="426" y="991" type="qcurve" smooth="yes"/>
      <point x="404" y="991"/>
      <point x="358" y="979"/>
      <point x="337" y="970" type="qcurve"/>
      <point x="294" y="1070" type="line"/>
      <point x="670" y="1367" type="line"/>
      <point x="680" y="1318" type="line"/>
      <point x="232" y="1318" type="line"/>
      <point x="252" y="1440" type="line"/>
      <point x="784" y="1440" type="line"/>
      <point x="763" y="1317" type="line"/>
      <point x="445" y="1050" type="line"/>
      <point x="450" y="1101" type="line"/>
      <point x="495" y="1103"/>
      <point x="569" y="1087"/>
      <point x="599" y="1068" type="qcurve" smooth="yes"/>
      <point x="658" y="1031"/>
      <point x="706" y="900"/>
      <point x="692" y="816" type="qcurve" smooth="yes"/>
      <point x="685" y="773"/>
      <point x="654" y="697"/>
      <point x="629" y="663" type="qcurve" smooth="yes"/>
      <point x="579" y="596"/>
      <point x="432" y="519"/>
    </contour>
  </outline>
</glyph>
<glyph name="acute" format="2">
  <advance width="932"/>
  <unicode hex="00B4"/>
  <outline>
    <contour>
      <point x="782" y="1932" type="line"/>
      <point x="950" y="1932" type="line"/>
      <point x="770" y="1606" type="line"/>
      <point x="657" y="1606" type="line"/>
    </contour>
  </outline>
</glyph>
<glyph name="paragraph" format="2">
  <advance width="1279"/>
  <unicode hex="00B6"/>
  <outline>
    <contour>
      <point x="506" y="-282" type="line"/>
      <point x="634" y="530" type="line"/>
      <point x="595" y="530"/>
      <point x="517" y="530"/>
      <point x="479" y="534" type="qcurve" smooth="yes"/>
      <point x="469" y="535"/>
      <point x="451" y="536"/>
      <point x="442" y="538" type="qcurve"/>
      <point x="376" y="548"/>
      <point x="275" y="602"/>
      <point x="204" y="683"/>
      <point x="164" y="789"/>
      <point x="159" y="852" type="qcurve" smooth="yes"/>
      <point x="157" y="875"/>
      <point x="156" y="917"/>
      <point x="158" y="940" type="qcurve" smooth="yes"/>
      <point x="162" y="998"/>
      <point x="192" y="1110"/>
      <point x="243" y="1211"/>
      <point x="313" y="1299"/>
      <point x="357" y="1334" type="qcurve" smooth="yes"/>
      <point x="419" y="1383"/>
      <point x="567" y="1430"/>
      <point x="645" y="1436" type="qcurve" smooth="yes"/>
      <point x="668" y="1438"/>
      <point x="714" y="1440"/>
      <point x="737" y="1440" type="qcurve" smooth="yes"/>
      <point x="957" y="1440" type="line"/>
      <point x="685" y="-282" type="line"/>
    </contour>
    <contour>
      <point x="838" y="-282" type="line"/>
      <point x="1110" y="1440" type="line"/>
      <point x="1290" y="1440" type="line"/>
      <point x="1017" y="-282" type="line"/>
    </contour>
  </outline>
</glyph>
<glyph name="periodcentered" format="2">
  <advance width="450"/>
  <unicode hex="00B7"/>
  <outline>
    <contour>
      <point x="203" y="508" type="curve" smooth="yes"/>
      <point x="144" y="508"/>
      <point x="98" y="548"/>
      <point x="98" y="609" type="curve" smooth="yes"/>
      <point x="98" y="686"/>
      <point x="163" y="752"/>
      <point x="241" y="752" type="curve" smooth="yes"/>
      <point x="298" y="752"/>
      <point x="340" y="710"/>
      <point x="340" y="653" type="curve" smooth="yes"/>
      <point x="340" y="579"/>
      <point x="280" y="508"/>
    </contour>
  </outline>
</glyph>
<glyph name="cedilla" format="2">
  <advance width="757"/>
  <unicode hex="00B8"/>
  <outline>
    <contour>
      <point x="174" y="-481" type="qcurve" smooth="yes"/>
      <point x="137" y="-481"/>
      <point x="76" y="-462"/>
      <point x="50" y="-448" type="qcurve"/>
      <point x="113" y="-331" type="line"/>
      <point x="133" y="-339"/>
      <point x="167" y="-347"/>
      <point x="181" y="-347" type="qcurve" smooth="yes"/>
      <point x="216" y="-347"/>
      <point x="260" y="-303"/>
      <point x="265" y="-278" type="qcurve" smooth="yes"/>
      <point x="269" y="-256"/>
      <point x="254" y="-226"/>
      <point x="236" y="-216" type="qcurve" smooth="yes"/>
      <point x="218" y="-206"/>
      <point x="176" y="-188"/>
      <point x="151" y="-180" type="qcurve"/>
      <point x="257" y="25" type="line"/>
      <point x="378" y="26" type="line"/>
      <point x="311" y="-105" type="line"/>
      <point x="361" y="-131"/>
      <point x="411" y="-218"/>
      <point x="400" y="-283" type="qcurve" smooth="yes"/>
      <point x="393" y="-326"/>
      <point x="352" y="-397"/>
      <point x="319" y="-425" type="qcurve" smooth="yes"/>
      <point x="286" y="-453"/>
      <point x="213" y="-481"/>
    </contour>
  </outline>
</glyph>
<glyph name="onesuperior" format="2">
  <advance width="610"/>
  <unicode hex="00B9"/>
  <outline>
    <contour>
      <point x="252" y="540" type="line"/>
      <point x="372" y="1299" type="line"/>
      <point x="189" y="1196" type="line"/>
      <point x="212" y="1339" type="line"/>
      <point x="394" y="1440" type="line"/>
      <point x="522" y="1440" type="line"/>
      <point x="379" y="540" type="line"/>
    </contour>
  </outline>
</glyph>
<glyph name="ordmasculine" format="2">
  <advance width="815"/>
  <unicode hex="00BA"/>
  <outline>
    <contour>
      <point x="861" y="500" type="line"/>
      <point x="880" y="609" type="line"/>
      <point x="135" y="609" type="line"/>
      <point x="117" y="500" type="line"/>
    </contour>
    <contour>
      <point x="515" y="710" type="curve" smooth="yes"/>
      <point x="741" y="710"/>
      <point x="889" y="880"/>
      <point x="924" y="1091" type="curve" smooth="yes"/>
      <point x="960" y="1309"/>
      <point x="860" y="1470"/>
      <point x="641" y="1470" type="curve" smooth="yes"/>
      <point x="418" y="1470"/>
      <point x="269" y="1300"/>
      <point x="234" y="1091" type="curve" smooth="yes"/>
      <point x="198" y="874"/>
      <point x="296" y="710"/>
    </contour>
    <contour>
      <point x="537" y="840" type="curve" smooth="yes"/>
      <point x="387" y="840"/>
      <point x="349" y="957"/>
      <point x="371" y="1091" type="curve" smooth="yes"/>
      <point x="394" y="1228"/>
      <point x="473" y="1340"/>
      <point x="620" y="1340" type="curve" smooth="yes"/>
      <point x="771" y="1340"/>
      <point x="809" y="1227"/>
      <point x="786" y="1091" type="curve" smooth="yes"/>
      <point x="764" y="956"/>
      <point x="688" y="840"/>
    </contour>
  </outline>
</glyph>
<glyph name="onequarter" format="2">
  <advance width="1879"/>
  <unicode hex="00BC"/>
  <outline>
    <contour>
      <point x="413" y="-1" type="line"/>
      <point x="319" y="85" type="line"/>
      <point x="1522" y="1447" type="line"/>
      <point x="1615" y="1360" type="line"/>
    </contour>
    <contour>
      <point x="1475" y="0" type="line"/>
      <point x="1500" y="168" type="line"/>
      <point x="1065" y="168" type="line"/>
      <point x="1082" y="283" type="line"/>
      <point x="1462" y="900" type="line"/>
      <point x="1594" y="900" type="line"/>
      <point x="1215" y="283" type="line"/>
      <point x="1518" y="283" type="line"/>
      <point x="1564" y="581" type="line"/>
      <point x="1684" y="581" type="line"/>
      <point x="1639" y="283" type="line"/>
      <point x="1723" y="283" type="line"/>
      <point x="1705" y="168" type="line"/>
      <point x="1620" y="168" type="line"/>
      <point x="1595" y="0" type="line"/>
    </contour>
    <contour>
      <point x="372" y="540" type="line"/>
      <point x="488" y="1308" type="line"/>
      <point x="308" y="1205" type="line"/>
      <point x="268" y="1302" type="line"/>
      <point x="510" y="1440" type="line"/>
      <point x="629" y="1440" type="line"/>
      <point x="493" y="540" type="line"/>
    </contour>
  </outline>
</glyph>
<glyph name="onehalf" format="2">
  <advance width="1869"/>
  <unicode hex="00BD"/>
  <outline>
    <contour>
      <point x="252" y="540" type="line"/>
      <point x="372" y="1299" type="line"/>
      <point x="190" y="1196" type="line"/>
      <point x="213" y="1339" type="line"/>
      <point x="394" y="1440" type="line"/>
      <point x="523" y="1440" type="line"/>
      <point x="380" y="540" type="line"/>
    </contour>
    <contour>
      <point x="310" y="0" type="line"/>
      <point x="210" y="88" type="line"/>
      <point x="1431" y="1447" type="line"/>
      <point x="1529" y="1359" type="line"/>
    </contour>
    <contour>
      <point x="1690" y="0" type="line"/>
      <point x="1707" y="123" type="line"/>
      <point x="1226" y="123" type="line"/>
      <point x="1238" y="75" type="line"/>
      <point x="1613" y="359" type="line"/>
      <point x="1716" y="445"/>
      <point x="1770" y="500"/>
      <point x="1778" y="623" type="curve" smooth="yes"/>
      <point x="1790" y="794"/>
      <point x="1671" y="920"/>
      <point x="1500" y="920" type="curve" smooth="yes"/>
      <point x="1327" y="920"/>
      <point x="1195" y="811"/>
      <point x="1173" y="647" type="curve"/>
      <point x="1306" y="636" type="line"/>
      <point x="1315" y="723"/>
      <point x="1393" y="797"/>
      <point x="1490" y="797" type="curve" smooth="yes"/>
      <point x="1587" y="797"/>
      <point x="1652" y="723"/>
      <point x="1645" y="624" type="curve" smooth="yes"/>
      <point x="1642" y="574"/>
      <point x="1621" y="522"/>
      <point x="1552" y="468" type="curve" smooth="yes"/>
      <point x="1097" y="115" type="line"/>
      <point x="1080" y="0" type="line"/>
    </contour>
  </outline>
</glyph>
<glyph name="threequarters" format="2">
  <advance width="1892"/>
  <unicode hex="00BE"/>
  <outline>
    <contour>
      <point x="590" y="-1" type="line"/>
      <point x="495" y="85" type="line"/>
      <point x="1697" y="1447" type="line"/>
      <point x="1791" y="1360" type="line"/>
    </contour>
    <contour>
      <point x="1645" y="0" type="line"/>
      <point x="1672" y="168" type="line"/>
      <point x="1238" y="168" type="line"/>
      <point x="1254" y="283" type="line"/>
      <point x="1634" y="900" type="line"/>
      <point x="1767" y="900" type="line"/>
      <point x="1387" y="283" type="line"/>
      <point x="1690" y="283" type="line"/>
      <point x="1734" y="581" type="line"/>
      <point x="1856" y="581" type="line"/>
      <point x="1810" y="283" type="line"/>
      <point x="1895" y="283" type="line"/>
      <point x="1877" y="168" type="line"/>
      <point x="1793" y="168" type="line"/>
      <point x="1766" y="0" type="line"/>
    </contour>
    <contour>
      <point x="489" y="518" type="curve" smooth="yes"/>
      <point x="319" y="518"/>
      <point x="186" y="605"/>
      <point x="178" y="807" type="curve"/>
      <point x="305" y="823" type="line"/>
      <point x="314" y="702"/>
      <point x="379" y="635"/>
      <point x="503" y="634" type="curve"/>
      <point x="613" y="634"/>
      <point x="705" y="713"/>
      <point x="705" y="831" type="curve" smooth="yes"/>
      <point x="705" y="873"/>
      <point x="690" y="907"/>
      <point x="664" y="932" type="curve" smooth="yes"/>
      <point x="638" y="957"/>
      <point x="594" y="970"/>
      <point x="540" y="971" type="curve"/>
      <point x="447" y="971" type="line"/>
      <point x="462" y="1073" type="line"/>
      <point x="725" y="1323" type="line"/>
      <point x="307" y="1323" type="line"/>
      <point x="326" y="1440" type="line"/>
      <point x="892" y="1440" type="line"/>
      <point x="874" y="1323" type="line"/>
      <point x="603" y="1069" type="line"/>
      <point x="731" y="1057"/>
      <point x="834" y="997"/>
      <point x="834" y="853" type="curve" smooth="yes"/>
      <point x="834" y="649"/>
      <point x="680" y="518"/>
    </contour>
  </outline>
</glyph>
<glyph name="questiondown" format="2">
  <advance width="1041"/>
  <unicode hex="00BF"/>
  <outline>
    <contour>
      <point x="21" y="74" type="qcurve" smooth="yes"/>
      <point x="38" y="180"/>
      <point x="132" y="341"/>
      <point x="206" y="397" type="qcurve" smooth="yes"/>
      <point x="280" y="453"/>
      <point x="473" y="509"/>
      <point x="592" y="509" type="qcurve" smooth="yes"/>
      <point x="672" y="509" type="line"/>
      <point x="645" y="345" type="line"/>
      <point x="568" y="345" type="line" smooth="yes"/>
      <point x="409" y="345"/>
      <point x="218" y="205"/>
      <point x="195" y="69" type="qcurve" smooth="yes"/>
      <point x="185" y="6"/>
      <point x="213" y="-102"/>
      <point x="250" y="-141" type="qcurve"/>
      <point x="286" y="-182"/>
      <point x="397" y="-227"/>
      <point x="470" y="-227" type="qcurve" smooth="yes"/>
      <point x="552" y="-227"/>
      <point x="678" y="-190"/>
      <point x="729" y="-153" type="qcurve" smooth="yes"/>
      <point x="779" y="-117"/>
      <point x="856" y="-9"/>
      <point x="887" y="64" type="qcurve"/>
      <point x="1054" y="36" type="line"/>
      <point x="1012" y="-75"/>
      <point x="889" y="-234"/>
      <point x="811" y="-287" type="qcurve" smooth="yes"/>
      <point x="733" y="-340"/>
      <point x="548" y="-390"/>
      <point x="446" y="-390" type="qcurve" smooth="yes"/>
      <point x="334" y="-390"/>
      <point x="162" y="-325"/>
      <point x="106" y="-264" type="qcurve" smooth="yes"/>
      <point x="49" y="-203"/>
      <point x="3" y="-32"/>
    </contour>
    <contour>
      <point x="702" y="691" type="line"/>
      <point x="645" y="345" type="line"/>
      <point x="486" y="345" type="line"/>
      <point x="543" y="691" type="line"/>
    </contour>
    <contour>
      <point x="689" y="1093" type="qcurve" smooth="yes"/>
      <point x="713" y="1093"/>
      <point x="750" y="1077"/>
      <point x="763" y="1061" type="qcurve" smooth="yes"/>
      <point x="777" y="1044"/>
      <point x="786" y="1005"/>
      <point x="781" y="981" type="qcurve"/>
      <point x="777" y="956"/>
      <point x="756" y="917"/>
      <point x="736" y="900" type="qcurve" smooth="yes"/>
      <point x="717" y="884"/>
      <point x="675" y="868"/>
      <point x="651" y="868" type="qcurve" smooth="yes"/>
      <point x="627" y="868"/>
      <point x="591" y="884"/>
      <point x="577" y="900" type="qcurve"/>
      <point x="564" y="917"/>
      <point x="555" y="956"/>
      <point x="558" y="981" type="qcurve"/>
      <point x="562" y="1005"/>
      <point x="585" y="1044"/>
      <point x="604" y="1061" type="qcurve"/>
      <point x="623" y="1077"/>
      <point x="664" y="1093"/>
    </contour>
  </outline>
</glyph>
<glyph name="Agrave" format="2">
  <advance width="1261"/>
  <unicode hex="00C0"/>
  <outline>
    <contour>
      <point x="-71" y="0" type="line"/>
      <point x="628" y="1440" type="line"/>
      <point x="879" y="1440" type="line"/>
      <point x="1121" y="0" type="line"/>
      <point x="935" y="0" type="line"/>
      <point x="707" y="1333" type="line"/>
      <point x="761" y="1333" type="line"/>
      <point x="116" y="0" type="line"/>
    </contour>
    <contour>
      <point x="211" y="335" type="line"/>
      <point x="239" y="507" type="line"/>
      <point x="972" y="507" type="line"/>
      <point x="945" y="335" type="line"/>
    </contour>
    <contour>
      <point x="679" y="1604" type="line"/>
      <point x="600" y="1937" type="line"/>
      <point x="777" y="1937" type="line"/>
      <point x="798" y="1604" type="line"/>
    </contour>
  </outline>
</glyph>
<glyph name="Aacute" format="2">
  <advance width="1261"/>
  <unicode hex="00C1"/>
  <outline>
    <contour>
      <point x="875" y="1937" type="line"/>
      <point x="751" y="1604" type="line"/>
      <point x="869" y="1604" type="line"/>
      <point x="1052" y="1937" type="line"/>
    </contour>
    <contour>
      <point x="-71" y="0" type="line"/>
      <point x="627" y="1440" type="line"/>
      <point x="878" y="1440" type="line"/>
      <point x="1120" y="0" type="line"/>
      <point x="934" y="0" type="line"/>
      <point x="706" y="1333" type="line"/>
      <point x="761" y="1333" type="line"/>
      <point x="115" y="0" type="line"/>
    </contour>
    <contour>
      <point x="211" y="335" type="line"/>
      <point x="238" y="507" type="line"/>
      <point x="971" y="507" type="line"/>
      <point x="945" y="335" type="line"/>
    </contour>
  </outline>
</glyph>
<glyph name="Acircumflex" format="2">
  <advance width="1256"/>
  <unicode hex="00C2"/>
  <outline>
    <contour>
      <point x="587" y="1606" type="line"/>
      <point x="871" y="1888" type="line"/>
      <point x="1021" y="1888" type="line"/>
      <point x="1210" y="1606" type="line"/>
      <point x="1044" y="1606" type="line"/>
      <point x="928" y="1781" type="line"/>
      <point x="754" y="1606" type="line"/>
    </contour>
    <contour>
      <point x="42" y="0" type="line"/>
      <point x="756" y="1440" type="line"/>
      <point x="989" y="1440" type="line"/>
      <point x="1226" y="0" type="line"/>
      <point x="1050" y="0" type="line"/>
      <point x="826" y="1340" type="line"/>
      <point x="882" y="1340" type="line"/>
      <point x="218" y="0" type="line"/>
    </contour>
    <contour>
      <point x="324" y="339" type="line"/>
      <point x="351" y="501" type="line"/>
      <point x="1083" y="501" type="line"/>
      <point x="1057" y="339" type="line"/>
    </contour>
  </outline>
</glyph>
<glyph name="Atilde" format="2">
  <advance width="1261"/>
  <unicode hex="00C3"/>
  <outline>
    <contour>
      <point x="941" y="1657" type="qcurve" smooth="yes"/>
      <point x="897" y="1657"/>
      <point x="823" y="1696"/>
      <point x="757" y="1742"/>
      <point x="696" y="1781"/>
      <point x="665" y="1781" type="qcurve" smooth="yes"/>
      <point x="646" y="1781"/>
      <point x="621" y="1761"/>
      <point x="606" y="1730"/>
      <point x="601" y="1694"/>
      <point x="603" y="1678" type="qcurve"/>
      <point x="483" y="1678" type="line"/>
      <point x="482" y="1686"/>
      <point x="482" y="1699"/>
      <point x="482" y="1707" type="qcurve" smooth="yes"/>
      <point x="482" y="1749"/>
      <point x="506" y="1824"/>
      <point x="551" y="1881"/>
      <point x="617" y="1917"/>
      <point x="659" y="1920" type="qcurve"/>
      <point x="666" y="1920"/>
      <point x="678" y="1921"/>
      <point x="685" y="1920" type="qcurve"/>
      <point x="728" y="1918"/>
      <point x="800" y="1879"/>
      <point x="864" y="1834"/>
      <point x="922" y="1797"/>
      <point x="952" y="1797" type="qcurve" smooth="yes"/>
      <point x="968" y="1797"/>
      <point x="992" y="1812"/>
      <point x="1007" y="1836"/>
      <point x="1015" y="1866"/>
      <point x="1015" y="1881" type="qcurve" smooth="yes"/>
      <point x="1015" y="1887"/>
      <point x="1015" y="1897"/>
      <point x="1014" y="1902" type="qcurve"/>
      <point x="1134" y="1902" type="line"/>
      <point x="1135" y="1894"/>
      <point x="1135" y="1880"/>
      <point x="1135" y="1872" type="qcurve" smooth="yes"/>
      <point x="1135" y="1828"/>
      <point x="1110" y="1750"/>
      <point x="1060" y="1691"/>
      <point x="988" y="1657"/>
    </contour>
    <contour>
      <point x="-71" y="0" type="line"/>
      <point x="627" y="1440" type="line"/>
      <point x="878" y="1440" type="line"/>
      <point x="1120" y="0" type="line"/>
      <point x="934" y="0" type="line"/>
      <point x="706" y="1333" type="line"/>
      <point x="761" y="1333" type="line"/>
      <point x="115" y="0" type="line"/>
    </contour>
    <contour>
      <point x="211" y="335" type="line"/>
      <point x="238" y="507" type="line"/>
      <point x="971" y="507" type="line"/>
      <point x="945" y="335" type="line"/>
    </contour>
  </outline>
</glyph>
<glyph name="Aring" format="2">
  <advance width="1261"/>
  <unicode hex="00C5"/>
  <outline>
    <contour>
      <point x="772" y="1555" type="qcurve" smooth="yes"/>
      <point x="730" y="1555"/>
      <point x="659" y="1584"/>
      <point x="606" y="1637"/>
      <point x="576" y="1708"/>
      <point x="576" y="1750" type="qcurve" smooth="yes"/>
      <point x="576" y="1803"/>
      <point x="620" y="1901"/>
      <point x="695" y="1977"/>
      <point x="792" y="2023"/>
      <point x="846" y="2023" type="qcurve" smooth="yes"/>
      <point x="888" y="2023"/>
      <point x="959" y="1994"/>
      <point x="1012" y="1941"/>
      <point x="1041" y="1870"/>
      <point x="1041" y="1828" type="qcurve" smooth="yes"/>
      <point x="1041" y="1774"/>
      <point x="997" y="1676"/>
      <point x="923" y="1600"/>
      <point x="826" y="1555"/>
    </contour>
    <contour>
      <point x="791" y="1679" type="qcurve" smooth="yes"/>
      <point x="817" y="1679"/>
      <point x="863" y="1700"/>
      <point x="898" y="1736"/>
      <point x="918" y="1783"/>
      <point x="918" y="1808" type="qcurve" smooth="yes"/>
      <point x="918" y="1848"/>
      <point x="866" y="1899"/>
      <point x="826" y="1899" type="qcurve" smooth="yes"/>
      <point x="801" y="1899"/>
      <point x="755" y="1878"/>
      <point x="720" y="1842"/>
      <point x="700" y="1796"/>
      <point x="700" y="1771" type="qcurve" smooth="yes"/>
      <point x="700" y="1732"/>
      <point x="752" y="1679"/>
    </contour>
    <contour>
      <point x="-71" y="0" type="line"/>
      <point x="627" y="1440" type="line"/>
      <point x="878" y="1440" type="line"/>
      <point x="1120" y="0" type="line"/>
      <point x="934" y="0" type="line"/>
      <point x="706" y="1333" type="line"/>
      <point x="761" y="1333" type="line"/>
      <point x="115" y="0" type="line"/>
    </contour>
    <contour>
      <point x="211" y="335" type="line"/>
      <point x="238" y="507" type="line"/>
      <point x="971" y="507" type="line"/>
      <point x="945" y="335" type="line"/>
    </contour>
  </outline>
</glyph>
<glyph name="AE" format="2">
  <advance width="1805"/>
  <unicode hex="00C6"/>
  <outline>
    <contour>
      <point x="-58" y="0" type="line"/>
      <point x="651" y="1440" type="line"/>
      <point x="1030" y="1440" type="line"/>
      <point x="1002" y="1267" type="line"/>
      <point x="682" y="1267" type="line"/>
      <point x="783" y="1332" type="line"/>
      <point x="129" y="0" type="line"/>
    </contour>
    <contour>
      <point x="227" y="335" type="line"/>
      <point x="256" y="507" type="line"/>
      <point x="943" y="507" type="line"/>
      <point x="914" y="335" type="line"/>
    </contour>
    <contour>
      <point x="727" y="0" type="line"/>
      <point x="966" y="1440" type="line"/>
      <point x="1859" y="1440" type="line"/>
      <point x="1830" y="1267" type="line"/>
      <point x="1115" y="1267" type="line"/>
      <point x="1042" y="823" type="line"/>
      <point x="1639" y="823" type="line"/>
      <point x="1610" y="650" type="line"/>
      <point x="1013" y="650" type="line"/>
      <point x="934" y="173" type="line"/>
      <point x="1649" y="173" type="line"/>
      <point x="1620" y="0" type="line"/>
    </contour>
  </outline>
</glyph>
<glyph name="Ccedilla" format="2">
  <advance width="1405"/>
  <unicode hex="00C7"/>
  <outline>
    <component base="C"/>
    <contour>
      <point x="487" y="-481" type="curve" smooth="yes"/>
      <point x="443" y="-481"/>
      <point x="402" y="-469"/>
      <point x="363" y="-448" type="curve"/>
      <point x="424" y="-331" type="line"/>
      <point x="446" y="-339"/>
      <point x="469" y="-347"/>
      <point x="493" y="-347" type="curve" smooth="yes"/>
      <point x="538" y="-347"/>
      <point x="577" y="-311"/>
      <point x="577" y="-264" type="curve" smooth="yes"/>
      <point x="577" y="-213"/>
      <point x="502" y="-193"/>
      <point x="463" y="-180" type="curve"/>
      <point x="566" y="25" type="line"/>
      <point x="687" y="26" type="line"/>
      <point x="621" y="-105" type="line"/>
      <point x="678" y="-134"/>
      <point x="714" y="-182"/>
      <point x="714" y="-248" type="curve" smooth="yes"/>
      <point x="714" y="-371"/>
      <point x="612" y="-481"/>
    </contour>
  </outline>
</glyph>
<glyph name="Egrave" format="2">
  <advance width="1112"/>
  <unicode hex="00C8"/>
  <outline>
    <contour>
      <point x="802" y="1937" type="line"/>
      <point x="817" y="1604" type="line"/>
      <point x="700" y="1604" type="line"/>
      <point x="625" y="1937" type="line"/>
    </contour>
    <contour>
      <point x="33" y="0" type="line"/>
      <point x="272" y="1440" type="line"/>
      <point x="1166" y="1440" type="line"/>
      <point x="1137" y="1267" type="line"/>
      <point x="422" y="1267" type="line"/>
      <point x="349" y="823" type="line"/>
      <point x="946" y="823" type="line"/>
      <point x="917" y="650" type="line"/>
      <point x="320" y="650" type="line"/>
      <point x="241" y="173" type="line"/>
      <point x="956" y="173" type="line"/>
      <point x="927" y="0" type="line"/>
    </contour>
  </outline>
</glyph>
<glyph name="Eacute" format="2">
  <advance width="1108"/>
  <unicode hex="00C9"/>
  <outline>
    <contour>
      <point x="875" y="1932" type="line"/>
      <point x="1043" y="1932" type="line"/>
      <point x="863" y="1606" type="line"/>
      <point x="751" y="1606" type="line"/>
    </contour>
    <contour>
      <point x="58" y="0" type="line"/>
      <point x="297" y="1440" type="line"/>
      <point x="1187" y="1440" type="line"/>
      <point x="1159" y="1277" type="line"/>
      <point x="438" y="1277" type="line"/>
      <point x="362" y="816" type="line"/>
      <point x="965" y="816" type="line"/>
      <point x="938" y="653" type="line"/>
      <point x="335" y="653" type="line"/>
      <point x="254" y="163" type="line"/>
      <point x="976" y="163" type="line"/>
      <point x="949" y="0" type="line"/>
    </contour>
  </outline>
</glyph>
<glyph name="Ecircumflex" format="2">
  <advance width="1112"/>
  <unicode hex="00CA"/>
  <outline>
    <contour>
      <point x="414" y="1604" type="line"/>
      <point x="702" y="1892" type="line"/>
      <point x="860" y="1892" type="line"/>
      <point x="1055" y="1604" type="line"/>
      <point x="879" y="1604" type="line"/>
      <point x="763" y="1779" type="line"/>
      <point x="589" y="1604" type="line"/>
    </contour>
    <contour>
      <point x="33" y="0" type="line"/>
      <point x="272" y="1440" type="line"/>
      <point x="1166" y="1440" type="line"/>
      <point x="1137" y="1267" type="line"/>
      <point x="422" y="1267" type="line"/>
      <point x="349" y="823" type="line"/>
      <point x="946" y="823" type="line"/>
      <point x="917" y="650" type="line"/>
      <point x="320" y="650" type="line"/>
      <point x="241" y="173" type="line"/>
      <point x="956" y="173" type="line"/>
      <point x="927" y="0" type="line"/>
    </contour>
  </outline>
</glyph>
<glyph name="Igrave" format="2">
  <advance width="467"/>
  <unicode hex="00CC"/>
  <outline>
    <contour>
      <point x="533" y="1932" type="line"/>
      <point x="550" y="1606" type="line"/>
      <point x="438" y="1606" type="line"/>
      <point x="366" y="1932" type="line"/>
    </contour>
    <contour>
      <point x="160" y="0" type="line"/>
      <point x="398" y="1440" type="line"/>
      <point x="566" y="1440" type="line"/>
      <point x="328" y="0" type="line"/>
    </contour>
  </outline>
</glyph>
<glyph name="Iacute" format="2">
  <advance width="460"/>
  <unicode hex="00CD"/>
  <outline>
    <contour>
      <point x="335" y="1604" type="line"/>
      <point x="459" y="1937" type="line"/>
      <point x="636" y="1937" type="line"/>
      <point x="454" y="1604" type="line"/>
    </contour>
    <contour>
      <point x="35" y="0" type="line"/>
      <point x="263" y="1440" type="line"/>
      <point x="441" y="1440" type="line"/>
      <point x="213" y="0" type="line"/>
    </contour>
  </outline>
</glyph>
<glyph name="Icircumflex" format="2">
  <advance width="492"/>
  <unicode hex="00CE"/>
  <outline>
    <contour>
      <point x="205" y="1606" type="line"/>
      <point x="488" y="1888" type="line"/>
      <point x="638" y="1888" type="line"/>
      <point x="828" y="1606" type="line"/>
      <point x="661" y="1606" type="line"/>
      <point x="545" y="1781" type="line"/>
      <point x="371" y="1606" type="line"/>
    </contour>
    <contour>
      <point x="168" y="0" type="line"/>
      <point x="406" y="1440" type="line"/>
      <point x="575" y="1440" type="line"/>
      <point x="336" y="0" type="line"/>
    </contour>
  </outline>
</glyph>
<glyph name="Eth" format="2">
  <advance width="1315"/>
  <unicode hex="00D0"/>
  <outline>
    <contour>
      <point x="56" y="649" type="line"/>
      <point x="80" y="792" type="line"/>
      <point x="709" y="792" type="line"/>
      <point x="685" y="649" type="line"/>
    </contour>
    <contour>
      <point x="59" y="0" type="line"/>
      <point x="298" y="1440" type="line"/>
      <point x="761" y="1440" type="line" smooth="yes"/>
      <point x="1112" y="1440"/>
      <point x="1300" y="1276"/>
      <point x="1300" y="901" type="curve" smooth="yes"/>
      <point x="1300" y="390"/>
      <point x="1025" y="0"/>
      <point x="505" y="0" type="curve" smooth="yes"/>
    </contour>
    <contour>
      <point x="259" y="164" type="line"/>
      <point x="520" y="164" type="line" smooth="yes"/>
      <point x="942" y="164"/>
      <point x="1120" y="471"/>
      <point x="1120" y="879" type="curve" smooth="yes"/>
      <point x="1120" y="1163"/>
      <point x="999" y="1276"/>
      <point x="718" y="1276" type="curve" smooth="yes"/>
      <point x="443" y="1276" type="line"/>
    </contour>
  </outline>
</glyph>
<glyph name="Ntilde" format="2">
  <advance width="1338"/>
  <unicode hex="00D1"/>
  <outline>
    <contour>
      <point x="945" y="1607" type="qcurve" smooth="yes"/>
      <point x="901" y="1607"/>
      <point x="827" y="1646"/>
      <point x="761" y="1692"/>
      <point x="700" y="1731"/>
      <point x="670" y="1731" type="qcurve" smooth="yes"/>
      <point x="651" y="1731"/>
      <point x="625" y="1711"/>
      <point x="610" y="1680"/>
      <point x="605" y="1644"/>
      <point x="607" y="1628" type="qcurve"/>
      <point x="488" y="1628" type="line"/>
      <point x="487" y="1636"/>
      <point x="487" y="1649"/>
      <point x="487" y="1657" type="qcurve" smooth="yes"/>
      <point x="487" y="1701"/>
      <point x="512" y="1779"/>
      <point x="561" y="1837"/>
      <point x="633" y="1871"/>
      <point x="679" y="1871" type="qcurve" smooth="yes"/>
      <point x="724" y="1871"/>
      <point x="799" y="1832"/>
      <point x="865" y="1786"/>
      <point x="925" y="1747"/>
      <point x="956" y="1747" type="qcurve" smooth="yes"/>
      <point x="976" y="1747"/>
      <point x="1001" y="1768"/>
      <point x="1016" y="1800"/>
      <point x="1020" y="1836"/>
      <point x="1018" y="1852" type="qcurve"/>
      <point x="1138" y="1852" type="line"/>
      <point x="1139" y="1844"/>
      <point x="1139" y="1830"/>
      <point x="1139" y="1822" type="qcurve" smooth="yes"/>
      <point x="1139" y="1779"/>
      <point x="1113" y="1700"/>
      <point x="1064" y="1642"/>
      <point x="992" y="1607"/>
    </contour>
    <contour>
      <point x="17" y="0" type="line"/>
      <point x="245" y="1440" type="line"/>
      <point x="427" y="1440" type="line"/>
      <point x="979" y="323" type="line"/>
      <point x="1156" y="1440" type="line"/>
      <point x="1337" y="1440" type="line"/>
      <point x="1109" y="0" type="line"/>
      <point x="928" y="0" type="line"/>
      <point x="375" y="1117" type="line"/>
      <point x="199" y="0" type="line"/>
    </contour>
  </outline>
</glyph>
<glyph name="Ograve" format="2">
  <advance width="1425"/>
  <unicode hex="00D2"/>
  <outline>
    <component base="O"/>
    <contour>
      <point x="850" y="1937" type="line"/>
      <point x="673" y="1937" type="line"/>
      <point x="751" y="1604" type="line"/>
      <point x="869" y="1604" type="line"/>
    </contour>
  </outline>
</glyph>
<glyph name="Oacute" format="2">
  <advance width="1425"/>
  <unicode hex="00D3"/>
  <outline>
    <component base="O"/>
    <contour>
      <point x="927" y="1937" type="line"/>
      <point x="802" y="1604" type="line"/>
      <point x="921" y="1604" type="line"/>
      <point x="1104" y="1937" type="line"/>
    </contour>
  </outline>
</glyph>
<glyph name="Ocircumflex" format="2">
  <advance width="1425"/>
  <unicode hex="00D4"/>
  <outline>
    <component base="O"/>
    <contour>
      <point x="512" y="1604" type="line"/>
      <point x="798" y="1892" type="line"/>
      <point x="957" y="1892" type="line"/>
      <point x="1153" y="1604" type="line"/>
      <point x="977" y="1604" type="line"/>
      <point x="859" y="1779" type="line"/>
      <point x="687" y="1604" type="line"/>
    </contour>
  </outline>
</glyph>
<glyph name="multiply" format="2">
  <advance width="953"/>
  <unicode hex="00D7"/>
  <outline>
    <contour>
      <point x="703" y="345" type="line"/>
      <point x="484" y="614" type="line"/>
      <point x="177" y="345" type="line"/>
      <point x="90" y="452" type="line"/>
      <point x="398" y="720" type="line"/>
      <point x="180" y="988" type="line"/>
      <point x="301" y="1094" type="line"/>
      <point x="519" y="826" type="line"/>
      <point x="826" y="1094" type="line"/>
      <point x="913" y="988" type="line"/>
      <point x="607" y="720" type="line"/>
      <point x="825" y="451" type="line"/>
    </contour>
  </outline>
</glyph>
<glyph name="Oslash" format="2">
  <advance width="1431"/>
  <unicode hex="00D8"/>
  <outline>
    <contour>
      <point x="79" y="-26" type="line"/>
      <point x="-30" y="91" type="line"/>
      <point x="178" y="287" type="line"/>
      <point x="222" y="329" type="line"/>
      <point x="1163" y="1218" type="line"/>
      <point x="1192" y="1245" type="line"/>
      <point x="1420" y="1463" type="line"/>
      <point x="1529" y="1346" type="line"/>
      <point x="1306" y="1134" type="line"/>
      <point x="1265" y="1095" type="line"/>
      <point x="322" y="204" type="line"/>
      <point x="285" y="169" type="line"/>
    </contour>
    <contour>
      <point x="616" y="-30" type="curve" smooth="yes"/>
      <point x="259" y="-30"/>
      <point x="65" y="188"/>
      <point x="65" y="539" type="curve" smooth="yes"/>
      <point x="65" y="1013"/>
      <point x="350" y="1470"/>
      <point x="864" y="1470" type="curve" smooth="yes"/>
      <point x="1220" y="1470"/>
      <point x="1416" y="1253"/>
      <point x="1416" y="902" type="curve" smooth="yes"/>
      <point x="1416" y="428"/>
      <point x="1130" y="-30"/>
    </contour>
    <contour>
      <point x="652" y="144" type="curve" smooth="yes"/>
      <point x="1048" y="144"/>
      <point x="1224" y="535"/>
      <point x="1224" y="881" type="curve" smooth="yes"/>
      <point x="1224" y="1140"/>
      <point x="1091" y="1296"/>
      <point x="827" y="1296" type="curve" smooth="yes"/>
      <point x="444" y="1296"/>
      <point x="256" y="907"/>
      <point x="256" y="569" type="curve" smooth="yes"/>
      <point x="256" y="308"/>
      <point x="382" y="144"/>
    </contour>
  </outline>
</glyph>
<glyph name="Ugrave" format="2">
  <advance width="1361"/>
  <unicode hex="00D9"/>
  <outline>
    <contour>
      <point x="876" y="1937" type="line"/>
      <point x="699" y="1937" type="line"/>
      <point x="776" y="1604" type="line"/>
      <point x="895" y="1604" type="line"/>
    </contour>
    <contour>
      <point x="571" y="-30" type="qcurve" smooth="yes"/>
      <point x="468" y="-30"/>
      <point x="293" y="29"/>
      <point x="165" y="142"/>
      <point x="92" y="308"/>
      <point x="92" y="415" type="qcurve" smooth="yes"/>
      <point x="92" y="444"/>
      <point x="96" y="498"/>
      <point x="101" y="526" type="qcurve" smooth="yes"/>
      <point x="246" y="1439" type="line"/>
      <point x="428" y="1440" type="line"/>
      <point x="285" y="540" type="line" smooth="yes"/>
      <point x="282" y="520"/>
      <point x="278" y="479"/>
      <point x="278" y="459" type="qcurve" smooth="yes"/>
      <point x="278" y="389"/>
      <point x="326" y="273"/>
      <point x="411" y="189"/>
      <point x="528" y="143"/>
      <point x="598" y="143" type="qcurve" smooth="yes"/>
      <point x="661" y="143"/>
      <point x="778" y="179"/>
      <point x="878" y="244"/>
      <point x="959" y="334"/>
      <point x="987" y="388" type="qcurve" smooth="yes"/>
      <point x="1001" y="415"/>
      <point x="1022" y="473"/>
      <point x="1029" y="503" type="qcurve" smooth="yes"/>
      <point x="1031" y="512"/>
      <point x="1035" y="531"/>
      <point x="1037" y="540" type="qcurve"/>
      <point x="1180" y="1440" type="line"/>
      <point x="1361" y="1440" type="line"/>
      <point x="1216" y="526" type="line" smooth="yes"/>
      <point x="1197" y="403"/>
      <point x="1084" y="198"/>
      <point x="915" y="51"/>
      <point x="697" y="-30"/>
    </contour>
  </outline>
</glyph>
<glyph name="Uacute" format="2">
  <advance width="1370"/>
  <unicode hex="00DA"/>
  <outline>
    <contour>
      <point x="925" y="1937" type="line"/>
      <point x="1103" y="1937" type="line"/>
      <point x="917" y="1604" type="line"/>
      <point x="799" y="1604" type="line"/>
    </contour>
    <contour>
      <point x="586" y="-30" type="qcurve" smooth="yes"/>
      <point x="504" y="-30"/>
      <point x="365" y="4"/>
      <point x="308" y="39" type="qcurve" smooth="yes"/>
      <point x="192" y="108"/>
      <point x="93" y="357"/>
      <point x="120" y="526" type="qcurve" smooth="yes"/>
      <point x="272" y="1439" type="line"/>
      <point x="453" y="1440" type="line"/>
      <point x="304" y="540" type="line" smooth="yes"/>
      <point x="287" y="440"/>
      <point x="330" y="291"/>
      <point x="376" y="241" type="qcurve"/>
      <point x="424" y="191"/>
      <point x="547" y="143"/>
      <point x="615" y="143" type="qcurve" smooth="yes"/>
      <point x="683" y="143"/>
      <point x="823" y="192"/>
      <point x="887" y="242" type="qcurve" smooth="yes"/>
      <point x="950" y="292"/>
      <point x="1040" y="440"/>
      <point x="1057" y="540" type="qcurve" smooth="yes"/>
      <point x="1206" y="1440" type="line"/>
      <point x="1387" y="1440" type="line"/>
      <point x="1236" y="526" type="line" smooth="yes"/>
      <point x="1222" y="441"/>
      <point x="1162" y="296"/>
      <point x="1117" y="233" type="qcurve" smooth="yes"/>
      <point x="1025" y="107"/>
      <point x="751" y="-30"/>
    </contour>
  </outline>
</glyph>
<glyph name="Udieresis" format="2">
  <advance width="1365"/>
  <unicode hex="00DC"/>
  <outline>
    <contour>
      <point x="690" y="1614" type="qcurve" smooth="yes"/>
      <point x="666" y="1614"/>
      <point x="631" y="1631"/>
      <point x="617" y="1647" type="qcurve"/>
      <point x="603" y="1664"/>
      <point x="593" y="1704"/>
      <point x="598" y="1727" type="qcurve"/>
      <point x="602" y="1751"/>
      <point x="624" y="1791"/>
      <point x="643" y="1808" type="qcurve" smooth="yes"/>
      <point x="662" y="1825"/>
      <point x="704" y="1840"/>
      <point x="727" y="1840" type="qcurve" smooth="yes"/>
      <point x="751" y="1840"/>
      <point x="789" y="1825"/>
      <point x="802" y="1808" type="qcurve"/>
      <point x="816" y="1791"/>
      <point x="824" y="1751"/>
      <point x="820" y="1727" type="qcurve" smooth="yes"/>
      <point x="816" y="1703"/>
      <point x="794" y="1664"/>
      <point x="775" y="1647" type="qcurve" smooth="yes"/>
      <point x="756" y="1630"/>
      <point x="714" y="1614"/>
    </contour>
    <contour>
      <point x="1071" y="1614" type="qcurve" smooth="yes"/>
      <point x="1048" y="1614"/>
      <point x="1011" y="1631"/>
      <point x="998" y="1647" type="qcurve" smooth="yes"/>
      <point x="984" y="1664"/>
      <point x="975" y="1704"/>
      <point x="978" y="1727" type="qcurve"/>
      <point x="983" y="1751"/>
      <point x="1006" y="1791"/>
      <point x="1025" y="1808" type="qcurve" smooth="yes"/>
      <point x="1044" y="1825"/>
      <point x="1085" y="1840"/>
      <point x="1109" y="1840" type="qcurve" smooth="yes"/>
      <point x="1133" y="1840"/>
      <point x="1170" y="1825"/>
      <point x="1183" y="1808" type="qcurve"/>
      <point x="1197" y="1791"/>
      <point x="1205" y="1751"/>
      <point x="1201" y="1727" type="qcurve" smooth="yes"/>
      <point x="1197" y="1703"/>
      <point x="1175" y="1664"/>
      <point x="1156" y="1647" type="qcurve" smooth="yes"/>
      <point x="1137" y="1630"/>
      <point x="1096" y="1614"/>
    </contour>
    <contour>
      <point x="609" y="-30" type="qcurve" smooth="yes"/>
      <point x="527" y="-30"/>
      <point x="389" y="4"/>
      <point x="332" y="39" type="qcurve" smooth="yes"/>
      <point x="217" y="108"/>
      <point x="117" y="355"/>
      <point x="145" y="524" type="qcurve" smooth="yes"/>
      <point x="297" y="1439" type="line"/>
      <point x="467" y="1440" type="line"/>
      <point x="318" y="540" type="line" smooth="yes"/>
      <point x="301" y="436"/>
      <point x="344" y="282"/>
      <point x="393" y="232" type="qcurve" smooth="yes"/>
      <point x="441" y="181"/>
      <point x="569" y="132"/>
      <point x="636" y="132" type="qcurve" smooth="yes"/>
      <point x="704" y="132"/>
      <point x="848" y="182"/>
      <point x="913" y="232" type="qcurve" smooth="yes"/>
      <point x="977" y="282"/>
      <point x="1072" y="436"/>
      <point x="1088" y="540" type="qcurve" smooth="yes"/>
      <point x="1237" y="1440" type="line"/>
      <point x="1408" y="1440" type="line"/>
      <point x="1256" y="524" type="line" smooth="yes"/>
      <point x="1243" y="440"/>
      <point x="1183" y="295"/>
      <point x="1137" y="233" type="qcurve" smooth="yes"/>
      <point x="1044" y="107"/>
      <point x="773" y="-30"/>
    </contour>
  </outline>
</glyph>
<glyph name="Yacute" format="2">
  <advance width="1131"/>
  <unicode hex="00DD"/>
  <outline>
    <contour>
      <point x="779" y="1937" type="line"/>
      <point x="654" y="1604" type="line"/>
      <point x="773" y="1604" type="line"/>
      <point x="956" y="1937" type="line"/>
    </contour>
    <contour>
      <point x="369" y="0" type="line"/>
      <point x="464" y="598" type="line"/>
      <point x="122" y="1440" type="line"/>
      <point x="330" y="1440" type="line"/>
      <point x="588" y="808" type="line"/>
      <point x="1045" y="1440" type="line"/>
      <point x="1253" y="1440" type="line"/>
      <point x="645" y="598" type="line"/>
      <point x="551" y="0" type="line"/>
    </contour>
  </outline>
</glyph>
<glyph name="Thorn" format="2">
  <advance width="1178"/>
  <unicode hex="00DE"/>
  <outline>
    <contour>
      <point x="33" y="0" type="line"/>
      <point x="272" y="1440" type="line"/>
      <point x="453" y="1440" type="line"/>
      <point x="409" y="1175" type="line"/>
      <point x="775" y="1175" type="line" smooth="yes"/>
      <point x="812" y="1175"/>
      <point x="883" y="1162"/>
      <point x="917" y="1149" type="qcurve"/>
      <point x="970" y="1131"/>
      <point x="1057" y="1064"/>
      <point x="1086" y="1016" type="qcurve"/>
      <point x="1129" y="956"/>
      <point x="1162" y="801"/>
      <point x="1149" y="720" type="qcurve" smooth="yes"/>
      <point x="1137" y="642"/>
      <point x="1057" y="494"/>
      <point x="999" y="434" type="qcurve" smooth="yes"/>
      <point x="962" y="396"/>
      <point x="878" y="335"/>
      <point x="827" y="312" type="qcurve" smooth="yes"/>
      <point x="776" y="289"/>
      <point x="676" y="266"/>
      <point x="624" y="266" type="qcurve" smooth="yes"/>
      <point x="259" y="266" type="line"/>
      <point x="215" y="0" type="line"/>
    </contour>
    <contour>
      <point x="287" y="439" type="line"/>
      <point x="652" y="439" type="line" smooth="yes"/>
      <point x="708" y="439"/>
      <point x="829" y="495"/>
      <point x="875" y="544" type="qcurve" smooth="yes"/>
      <point x="910" y="582"/>
      <point x="959" y="672"/>
      <point x="965" y="720" type="qcurve"/>
      <point x="973" y="774"/>
      <point x="951" y="875"/>
      <point x="921" y="913" type="qcurve"/>
      <point x="892" y="952"/>
      <point x="798" y="1001"/>
      <point x="745" y="1001" type="qcurve" smooth="yes"/>
      <point x="380" y="1001" type="line"/>
    </contour>
  </outline>
</glyph>
<glyph name="germandbls" format="2">
  <advance width="1150"/>
  <unicode hex="00DF"/>
  <outline>
    <contour>
      <point x="533" y="-29" type="curve" smooth="yes"/>
      <point x="475" y="-29"/>
      <point x="415" y="-25"/>
      <point x="362" y="0" type="curve"/>
      <point x="390" y="169" type="line"/>
      <point x="440" y="149"/>
      <point x="489" y="141"/>
      <point x="543" y="141" type="curve" smooth="yes"/>
      <point x="734" y="141"/>
      <point x="879" y="271"/>
      <point x="879" y="466" type="curve" smooth="yes"/>
      <point x="879" y="637"/>
      <point x="712" y="687"/>
      <point x="571" y="689" type="curve"/>
      <point x="596" y="844" type="line"/>
      <point x="756" y="862"/>
      <point x="870" y="961"/>
      <point x="870" y="1129" type="curve" smooth="yes"/>
      <point x="870" y="1247"/>
      <point x="786" y="1307"/>
      <point x="673" y="1307" type="curve" smooth="yes"/>
      <point x="489" y="1307"/>
      <point x="420" y="1178"/>
      <point x="394" y="1016" type="curve" smooth="yes"/>
      <point x="226" y="0" type="line"/>
      <point x="58" y="0" type="line"/>
      <point x="234" y="1062" type="line" smooth="yes"/>
      <point x="275" y="1311"/>
      <point x="442" y="1470"/>
      <point x="699" y="1470" type="curve" smooth="yes"/>
      <point x="891" y="1470"/>
      <point x="1040" y="1362"/>
      <point x="1040" y="1159" type="curve" smooth="yes"/>
      <point x="1040" y="1012"/>
      <point x="971" y="853"/>
      <point x="833" y="791" type="curve"/>
      <point x="966" y="763"/>
      <point x="1048" y="627"/>
      <point x="1048" y="496" type="curve" smooth="yes"/>
      <point x="1048" y="193"/>
      <point x="837" y="-29"/>
    </contour>
  </outline>
</glyph>
<glyph name="agrave" format="2">
  <advance width="1172"/>
  <unicode hex="00E0"/>
  <outline>
    <component base="a"/>
    <contour>
      <point x="686" y="1572" type="line"/>
      <point x="701" y="1246" type="line"/>
      <point x="591" y="1246" type="line"/>
      <point x="523" y="1572" type="line"/>
    </contour>
  </outline>
</glyph>
<glyph name="aacute" format="2">
  <advance width="1052"/>
  <unicode hex="00E1"/>
  <outline>
    <component base="a"/>
    <contour>
      <point x="621" y="1577" type="line"/>
      <point x="791" y="1577" type="line"/>
      <point x="613" y="1244" type="line"/>
      <point x="498" y="1244" type="line"/>
    </contour>
  </outline>
</glyph>
<glyph name="acircumflex" format="2">
  <advance width="1172"/>
  <unicode hex="00E2"/>
  <outline>
    <component base="a"/>
    <contour>
      <point x="409" y="1246" type="line"/>
      <point x="686" y="1528" type="line"/>
      <point x="833" y="1528" type="line"/>
      <point x="1017" y="1246" type="line"/>
      <point x="855" y="1246" type="line"/>
      <point x="742" y="1421" type="line"/>
      <point x="571" y="1246" type="line"/>
    </contour>
  </outline>
</glyph>
<glyph name="atilde" format="2">
  <advance width="1052"/>
  <unicode hex="00E3"/>
  <outline>
    <component base="a"/>
    <contour>
      <point x="743" y="1238" type="qcurve" smooth="yes"/>
      <point x="700" y="1238"/>
      <point x="628" y="1276"/>
      <point x="564" y="1323"/>
      <point x="504" y="1361"/>
      <point x="474" y="1361" type="qcurve" smooth="yes"/>
      <point x="455" y="1361"/>
      <point x="430" y="1341"/>
      <point x="415" y="1310"/>
      <point x="410" y="1274"/>
      <point x="412" y="1259" type="qcurve"/>
      <point x="296" y="1259" type="line"/>
      <point x="295" y="1266"/>
      <point x="295" y="1278"/>
      <point x="295" y="1286" type="qcurve" smooth="yes"/>
      <point x="295" y="1329"/>
      <point x="319" y="1407"/>
      <point x="367" y="1466"/>
      <point x="438" y="1501"/>
      <point x="484" y="1501" type="qcurve" smooth="yes"/>
      <point x="528" y="1501"/>
      <point x="601" y="1463"/>
      <point x="666" y="1416"/>
      <point x="725" y="1378"/>
      <point x="755" y="1378" type="qcurve" smooth="yes"/>
      <point x="775" y="1378"/>
      <point x="800" y="1399"/>
      <point x="815" y="1431"/>
      <point x="819" y="1467"/>
      <point x="817" y="1483" type="qcurve"/>
      <point x="933" y="1483" type="line"/>
      <point x="934" y="1475"/>
      <point x="935" y="1461"/>
      <point x="935" y="1454" type="qcurve" smooth="yes"/>
      <point x="935" y="1411"/>
      <point x="910" y="1333"/>
      <point x="861" y="1273"/>
      <point x="789" y="1238"/>
    </contour>
  </outline>
</glyph>
<glyph name="aring" format="2">
  <advance width="1172"/>
  <unicode hex="00E5"/>
  <outline>
    <component base="a"/>
    <contour>
      <point x="685" y="1195" type="qcurve" smooth="yes"/>
      <point x="655" y="1195"/>
      <point x="603" y="1211"/>
      <point x="580" y="1226" type="qcurve" smooth="yes"/>
      <point x="535" y="1257"/>
      <point x="493" y="1361"/>
      <point x="503" y="1425" type="qcurve" smooth="yes"/>
      <point x="508" y="1456"/>
      <point x="533" y="1514"/>
      <point x="553" y="1540" type="qcurve"/>
      <point x="590" y="1593"/>
      <point x="699" y="1654"/>
      <point x="761" y="1654" type="qcurve" smooth="yes"/>
      <point x="791" y="1654"/>
      <point x="844" y="1639"/>
      <point x="866" y="1624" type="qcurve" smooth="yes"/>
      <point x="911" y="1592"/>
      <point x="952" y="1489"/>
      <point x="942" y="1425" type="qcurve" smooth="yes"/>
      <point x="937" y="1393"/>
      <point x="912" y="1336"/>
      <point x="894" y="1310" type="qcurve"/>
      <point x="855" y="1257"/>
      <point x="746" y="1195"/>
    </contour>
    <contour>
      <point x="705" y="1315" type="qcurve" smooth="yes"/>
      <point x="727" y="1315"/>
      <point x="768" y="1331"/>
      <point x="786" y="1348" type="qcurve"/>
      <point x="804" y="1364"/>
      <point x="825" y="1402"/>
      <point x="828" y="1425" type="qcurve"/>
      <point x="832" y="1448"/>
      <point x="824" y="1487"/>
      <point x="812" y="1503" type="qcurve"/>
      <point x="799" y="1519"/>
      <point x="763" y="1535"/>
      <point x="741" y="1535" type="qcurve" smooth="yes"/>
      <point x="719" y="1535"/>
      <point x="680" y="1519"/>
      <point x="662" y="1503" type="qcurve"/>
      <point x="643" y="1487"/>
      <point x="621" y="1448"/>
      <point x="617" y="1425" type="qcurve" smooth="yes"/>
      <point x="613" y="1402"/>
      <point x="622" y="1364"/>
      <point x="636" y="1348" type="qcurve"/>
      <point x="649" y="1331"/>
      <point x="683" y="1315"/>
    </contour>
  </outline>
</glyph>
<glyph name="ae" format="2">
  <advance width="1769"/>
  <unicode hex="00E6"/>
  <outline>
    <contour>
      <point x="1188" y="-30" type="qcurve" smooth="yes"/>
      <point x="1080" y="-30"/>
      <point x="919" y="47"/>
      <point x="812" y="179"/>
      <point x="759" y="356"/>
      <point x="759" y="456" type="qcurve" smooth="yes"/>
      <point x="759" y="535"/>
      <point x="787" y="694"/>
      <point x="844" y="839"/>
      <point x="930" y="965"/>
      <point x="1046" y="1057"/>
      <point x="1193" y="1110"/>
      <point x="1283" y="1110" type="qcurve" smooth="yes"/>
      <point x="1393" y="1110"/>
      <point x="1545" y="1031"/>
      <point x="1639" y="898"/>
      <point x="1682" y="721"/>
      <point x="1682" y="623" type="qcurve" smooth="yes"/>
      <point x="1682" y="589"/>
      <point x="1678" y="522"/>
      <point x="1673" y="489" type="qcurve"/>
      <point x="1508" y="489" type="line"/>
      <point x="1510" y="524"/>
      <point x="1517" y="595"/>
      <point x="1517" y="630" type="qcurve" smooth="yes"/>
      <point x="1517" y="696"/>
      <point x="1495" y="811"/>
      <point x="1439" y="897"/>
      <point x="1341" y="946"/>
      <point x="1266" y="946" type="qcurve" smooth="yes"/>
      <point x="1202" y="946"/>
      <point x="1103" y="905"/>
      <point x="1029" y="836"/>
      <point x="977" y="742"/>
      <point x="946" y="637"/>
      <point x="932" y="525"/>
      <point x="932" y="472" type="qcurve" smooth="yes"/>
      <point x="932" y="407"/>
      <point x="959" y="288"/>
      <point x="1020" y="197"/>
      <point x="1121" y="143"/>
      <point x="1195" y="143" type="qcurve" smooth="yes"/>
      <point x="1294" y="143"/>
      <point x="1441" y="245"/>
      <point x="1485" y="331" type="qcurve"/>
      <point x="1637" y="271" type="line"/>
      <point x="1606" y="205"/>
      <point x="1514" y="94"/>
      <point x="1398" y="14"/>
      <point x="1263" y="-30"/>
    </contour>
    <contour>
      <point x="387" y="121" type="qcurve" smooth="yes"/>
      <point x="468" y="121"/>
      <point x="600" y="199"/>
      <point x="697" y="322"/>
      <point x="754" y="472"/>
      <point x="759" y="545" type="qcurve"/>
      <point x="805" y="508" type="line"/>
      <point x="532" y="494" type="line" smooth="yes"/>
      <point x="478" y="491"/>
      <point x="361" y="473"/>
      <point x="263" y="426"/>
      <point x="199" y="343"/>
      <point x="199" y="275" type="qcurve" smooth="yes"/>
      <point x="199" y="234"/>
      <point x="230" y="175"/>
      <point x="282" y="138"/>
      <point x="350" y="121"/>
    </contour>
    <contour>
      <point x="358" y="-30" type="qcurve" smooth="yes"/>
      <point x="290" y="-30"/>
      <point x="169" y="3"/>
      <point x="79" y="72"/>
      <point x="26" y="180"/>
      <point x="26" y="254" type="qcurve" smooth="yes"/>
      <point x="26" y="327"/>
      <point x="66" y="436"/>
      <point x="135" y="516"/>
      <point x="229" y="570"/>
      <point x="338" y="604"/>
      <point x="458" y="622"/>
      <point x="517" y="626" type="qcurve" smooth="yes"/>
      <point x="797" y="643" type="line"/>
      <point x="762" y="610" type="line"/>
      <point x="766" y="635"/>
      <point x="771" y="683"/>
      <point x="771" y="708" type="qcurve" smooth="yes"/>
      <point x="771" y="764"/>
      <point x="743" y="851"/>
      <point x="688" y="910"/>
      <point x="604" y="940"/>
      <point x="547" y="940" type="qcurve" smooth="yes"/>
      <point x="450" y="940"/>
      <point x="303" y="852"/>
      <point x="267" y="760" type="qcurve"/>
      <point x="112" y="813" type="line"/>
      <point x="141" y="884"/>
      <point x="232" y="994"/>
      <point x="350" y="1070"/>
      <point x="489" y="1110"/>
      <point x="565" y="1110" type="qcurve" smooth="yes"/>
      <point x="652" y="1110"/>
      <point x="792" y="1063"/>
      <point x="890" y="972"/>
      <point x="943" y="836"/>
      <point x="943" y="746" type="qcurve" smooth="yes"/>
      <point x="943" y="740"/>
      <point x="942" y="715"/>
      <point x="941" y="688"/>
      <point x="939" y="664"/>
      <point x="938" y="659" type="qcurve"/>
      <point x="823" y="254" type="line"/>
      <point x="820" y="247"/>
      <point x="802" y="221"/>
      <point x="779" y="194"/>
      <point x="756" y="171"/>
      <point x="750" y="166" type="qcurve"/>
      <point x="682" y="67"/>
      <point x="483" y="-30"/>
    </contour>
    <contour>
      <point x="873" y="489" type="line"/>
      <point x="896" y="639" type="line"/>
      <point x="1608" y="639" type="line"/>
      <point x="1584" y="489" type="line"/>
    </contour>
  </outline>
</glyph>
<glyph name="ccedilla" format="2">
  <advance width="1068"/>
  <unicode hex="00E7"/>
  <outline>
    <contour>
      <point x="351" y="-481" type="curve" smooth="yes"/>
      <point x="308" y="-481"/>
      <point x="267" y="-469"/>
      <point x="230" y="-448" type="curve"/>
      <point x="292" y="-331" type="line"/>
      <point x="313" y="-339"/>
      <point x="335" y="-347"/>
      <point x="358" y="-347" type="curve" smooth="yes"/>
      <point x="403" y="-347"/>
      <point x="442" y="-309"/>
      <point x="442" y="-264" type="curve" smooth="yes"/>
      <point x="442" y="-216"/>
      <point x="368" y="-193"/>
      <point x="330" y="-180" type="curve"/>
      <point x="434" y="25" type="line"/>
      <point x="552" y="26" type="line"/>
      <point x="486" y="-105" type="line"/>
      <point x="540" y="-134"/>
      <point x="575" y="-182"/>
      <point x="575" y="-245" type="curve" smooth="yes"/>
      <point x="575" y="-367"/>
      <point x="476" y="-481"/>
    </contour>
    <contour>
      <point x="467" y="-30" type="curve" smooth="yes"/>
      <point x="196" y="-30"/>
      <point x="57" y="148"/>
      <point x="57" y="408" type="curve" smooth="yes"/>
      <point x="57" y="758"/>
      <point x="278" y="1110"/>
      <point x="658" y="1110" type="curve" smooth="yes"/>
      <point x="862" y="1110"/>
      <point x="1022" y="1006"/>
      <point x="1048" y="794" type="curve"/>
      <point x="865" y="740" type="line"/>
      <point x="844" y="863"/>
      <point x="751" y="937"/>
      <point x="627" y="937" type="curve" smooth="yes"/>
      <point x="361" y="937"/>
      <point x="243" y="664"/>
      <point x="243" y="433" type="curve" smooth="yes"/>
      <point x="243" y="267"/>
      <point x="315" y="143"/>
      <point x="495" y="143" type="curve" smooth="yes"/>
      <point x="632" y="143"/>
      <point x="729" y="213"/>
      <point x="793" y="331" type="curve"/>
      <point x="963" y="283" type="line"/>
      <point x="863" y="87"/>
      <point x="690" y="-30"/>
    </contour>
  </outline>
</glyph>
<glyph name="egrave" format="2">
  <advance width="1121"/>
  <unicode hex="00E8"/>
  <outline>
    <contour>
      <point x="819" y="1572" type="line"/>
      <point x="834" y="1246" type="line"/>
      <point x="724" y="1246" type="line"/>
      <point x="655" y="1572" type="line"/>
    </contour>
    <contour>
      <point x="577" y="-30" type="qcurve" smooth="yes"/>
      <point x="501" y="-30"/>
      <point x="375" y="5"/>
      <point x="324" y="40" type="qcurve" smooth="yes"/>
      <point x="273" y="75"/>
      <point x="201" y="174"/>
      <point x="181" y="237" type="qcurve" smooth="yes"/>
      <point x="160" y="301"/>
      <point x="153" y="449"/>
      <point x="167" y="533" type="qcurve" smooth="yes"/>
      <point x="182" y="622"/>
      <point x="238" y="775"/>
      <point x="280" y="840" type="qcurve" smooth="yes"/>
      <point x="363" y="970"/>
      <point x="608" y="1110"/>
      <point x="759" y="1110" type="qcurve" smooth="yes"/>
      <point x="837" y="1110"/>
      <point x="962" y="1073"/>
      <point x="1011" y="1035" type="qcurve" smooth="yes"/>
      <point x="1109" y="960"/>
      <point x="1173" y="684"/>
      <point x="1134" y="492" type="qcurve"/>
      <point x="968" y="492" type="line"/>
      <point x="979" y="553" type="line"/>
      <point x="994" y="654"/>
      <point x="979" y="804"/>
      <point x="949" y="855" type="qcurve" smooth="yes"/>
      <point x="920" y="906"/>
      <point x="814" y="955"/>
      <point x="739" y="955" type="qcurve" smooth="yes"/>
      <point x="658" y="955"/>
      <point x="528" y="902"/>
      <point x="478" y="848" type="qcurve" smooth="yes"/>
      <point x="426" y="794"/>
      <point x="359" y="641"/>
      <point x="343" y="540" type="qcurve" smooth="yes"/>
      <point x="326" y="443"/>
      <point x="343" y="294"/>
      <point x="377" y="240" type="qcurve" smooth="yes"/>
      <point x="410" y="187"/>
      <point x="519" y="133"/>
      <point x="597" y="133" type="qcurve" smooth="yes"/>
      <point x="703" y="133"/>
      <point x="873" y="233"/>
      <point x="932" y="327" type="qcurve"/>
      <point x="1080" y="269" type="line"/>
      <point x="1037" y="197"/>
      <point x="929" y="88"/>
      <point x="862" y="48" type="qcurve" smooth="yes"/>
      <point x="795" y="8"/>
      <point x="653" y="-30"/>
    </contour>
    <contour>
      <point x="279" y="492" type="line"/>
      <point x="302" y="631" type="line"/>
      <point x="1072" y="631" type="line"/>
      <point x="1049" y="492" type="line"/>
    </contour>
  </outline>
</glyph>
<glyph name="eacute" format="2">
  <advance width="1110"/>
  <unicode hex="00E9"/>
  <outline>
    <component base="e"/>
    <contour>
      <point x="664" y="1577" type="line"/>
      <point x="542" y="1244" type="line"/>
      <point x="657" y="1244" type="line"/>
      <point x="835" y="1577" type="line"/>
    </contour>
  </outline>
</glyph>
<glyph name="ecircumflex" format="2">
  <advance width="1110"/>
  <unicode hex="00EA"/>
  <outline>
    <component base="e"/>
    <contour>
      <point x="317" y="1244" type="line"/>
      <point x="596" y="1532" type="line"/>
      <point x="750" y="1532" type="line"/>
      <point x="938" y="1244" type="line"/>
      <point x="768" y="1244" type="line"/>
      <point x="655" y="1419" type="line"/>
      <point x="487" y="1244" type="line"/>
    </contour>
  </outline>
</glyph>
<glyph name="igrave" format="2">
  <advance width="452"/>
  <unicode hex="00EC"/>
  <outline>
    <contour>
      <point x="359" y="1577" type="line"/>
      <point x="323" y="1372" type="line"/>
      <point x="262" y="1244" type="line"/>
      <point x="241" y="1449" type="line"/>
    </contour>
    <contour>
      <point x="51" y="0" type="line"/>
      <point x="222" y="1080" type="line"/>
      <point x="394" y="1080" type="line"/>
      <point x="223" y="0" type="line"/>
    </contour>
  </outline>
</glyph>
<glyph name="iacute" format="2">
  <advance width="453"/>
  <unicode hex="00ED"/>
  <outline>
    <contour>
      <point x="405" y="1577" type="line"/>
      <point x="576" y="1577" type="line"/>
      <point x="398" y="1244" type="line"/>
      <point x="284" y="1244" type="line"/>
    </contour>
    <contour>
      <point x="42" y="0" type="line"/>
      <point x="213" y="1080" type="line"/>
      <point x="386" y="1080" type="line"/>
      <point x="214" y="0" type="line"/>
    </contour>
  </outline>
</glyph>
<glyph name="icircumflex" format="2">
  <advance width="661"/>
  <unicode hex="00EE"/>
  <outline>
    <contour>
      <point x="113" y="1244" type="line"/>
      <point x="393" y="1532" type="line"/>
      <point x="544" y="1532" type="line"/>
      <point x="733" y="1244" type="line"/>
      <point x="563" y="1244" type="line"/>
      <point x="451" y="1419" type="line"/>
      <point x="284" y="1244" type="line"/>
    </contour>
    <contour>
      <point x="132" y="0" type="line"/>
      <point x="303" y="1080" type="line"/>
      <point x="475" y="1080" type="line"/>
      <point x="304" y="0" type="line"/>
    </contour>
  </outline>
</glyph>
<glyph name="eth" format="2">
  <advance width="1101"/>
  <unicode hex="00F0"/>
  <outline>
    <contour>
      <point x="442" y="-30" type="qcurve" smooth="yes"/>
      <point x="438" y="-30" type="line" smooth="yes"/>
      <point x="342" y="-30"/>
      <point x="193" y="30"/>
      <point x="89" y="140"/>
      <point x="35" y="294"/>
      <point x="35" y="388" type="qcurve" smooth="yes"/>
      <point x="35" y="475"/>
      <point x="76" y="647"/>
      <point x="155" y="801"/>
      <point x="271" y="929"/>
      <point x="346" y="971" type="qcurve" smooth="yes"/>
      <point x="406" y="1005"/>
      <point x="538" y="1037"/>
      <point x="611" y="1037" type="qcurve" smooth="yes"/>
      <point x="655" y="1037"/>
      <point x="736" y="1022"/>
      <point x="809" y="992"/>
      <point x="874" y="944"/>
      <point x="901" y="911" type="qcurve"/>
      <point x="902" y="927"/>
      <point x="899" y="957"/>
      <point x="897" y="972" type="qcurve"/>
      <point x="889" y="1051"/>
      <point x="826" y="1183"/>
      <point x="725" y="1281"/>
      <point x="590" y="1341"/>
      <point x="509" y="1347" type="qcurve"/>
      <point x="557" y="1494" type="line"/>
      <point x="680" y="1489"/>
      <point x="861" y="1403"/>
      <point x="981" y="1259"/>
      <point x="1042" y="1065"/>
      <point x="1046" y="952" type="qcurve" smooth="yes"/>
      <point x="1047" y="933"/>
      <point x="1047" y="896"/>
      <point x="1047" y="877" type="qcurve"/>
      <point x="1045" y="784"/>
      <point x="1021" y="600"/>
      <point x="1007" y="508" type="qcurve" smooth="yes"/>
      <point x="989" y="395"/>
      <point x="899" y="199"/>
      <point x="756" y="53"/>
      <point x="563" y="-30"/>
    </contour>
    <contour>
      <point x="468" y="136" type="qcurve" smooth="yes"/>
      <point x="564" y="136"/>
      <point x="704" y="217"/>
      <point x="795" y="349"/>
      <point x="840" y="516"/>
      <point x="840" y="601" type="qcurve" smooth="yes"/>
      <point x="840" y="661"/>
      <point x="809" y="761"/>
      <point x="747" y="832"/>
      <point x="652" y="871"/>
      <point x="589" y="871" type="qcurve" smooth="yes"/>
      <point x="580" y="871" type="line" smooth="yes"/>
      <point x="484" y="871"/>
      <point x="345" y="790"/>
      <point x="255" y="658"/>
      <point x="211" y="492"/>
      <point x="211" y="407" type="qcurve" smooth="yes"/>
      <point x="211" y="281"/>
      <point x="338" y="136"/>
    </contour>
    <contour>
      <point x="655" y="1105" type="line"/>
      <point x="566" y="1199" type="line"/>
      <point x="914" y="1565" type="line"/>
      <point x="1002" y="1471" type="line"/>
    </contour>
  </outline>
</glyph>
